<svg preserveAspectRatio="none" width="100%" height="100%" overflow="visible" style="display: block;" viewBox="0 0 189 62.532" fill="none" xmlns="http://www.w3.org/2000/svg">
<g id="Layer 1">
<path id="Vector" fill-rule="evenodd" clip-rule="evenodd" d="M37.5579 41.6896H23.4246C21.7197 41.6896 20.329 43.1205 20.329 44.8641V59.3576C20.329 61.1059 21.7243 62.532 23.4246 62.532H37.849C39.8911 62.532 41.2079 61.9682 42.6402 60.4947L59.0004 43.7175C60.4234 42.2582 60.9871 40.9647 60.9871 38.8042V24.0121C60.9871 22.2638 59.5918 20.8377 57.8916 20.8377H43.7583C42.0534 20.8377 40.6627 22.2686 40.6627 24.0121V38.5057C40.6627 40.254 39.2674 41.6801 37.5671 41.6801M79.3572 57.4908C78.5394 57.4908 77.7955 57.1923 77.3012 56.5006V57.3202H76.2246V49.2988H77.4167V52.4875C77.9341 51.9047 78.5717 51.6394 79.3387 51.6394C80.9604 51.6394 82.0508 52.9471 82.0508 54.5627C82.0508 56.1784 80.9835 57.4861 79.3572 57.4861V57.4908ZM79.14 56.4058C80.1934 56.4058 80.8587 55.624 80.8587 54.5675C80.8587 53.5109 80.2119 52.7291 79.14 52.7291C78.0681 52.7291 77.4167 53.5014 77.4167 54.5675C77.4167 55.6335 78.082 56.4058 79.14 56.4058ZM83.6586 59.8219C83.252 59.8219 82.8824 59.7366 82.5267 59.5281L82.7992 58.481C83.0025 58.6137 83.2844 58.7037 83.5292 58.7037C84.0513 58.7037 84.3101 58.4431 84.4672 57.9504L84.6473 57.415L82.5267 51.8099H83.8342L85.3219 56.0884L86.7726 51.8099H88.0386L85.7146 58.121C85.3265 59.1444 84.7906 59.8219 83.654 59.8219H83.6586ZM91.7995 57.325V49.5262H94.5531C96.0131 49.5262 97.3114 50.289 97.3114 51.9284C97.3114 53.6672 96.0639 54.3163 94.5254 54.3163H93.0146V57.325H91.7995ZM93.0146 53.2456H94.5393C95.3848 53.2456 96.0917 52.9281 96.0917 51.9521C96.0917 50.9761 95.3894 50.616 94.5485 50.616H93.01V53.2456H93.0146ZM98.5265 57.325V51.8099H99.7232V52.5728C99.9265 52.2269 100.171 51.9853 100.462 51.8431C100.753 51.7057 101.063 51.6346 101.396 51.6346C101.594 51.6346 101.793 51.6536 101.987 51.701L101.83 52.966C101.613 52.8997 101.386 52.857 101.16 52.857C100.301 52.857 99.7186 53.4303 99.7186 54.3163V57.3202H98.5219L98.5265 57.325ZM105.328 57.4908C103.71 57.4908 102.417 56.24 102.417 54.5675C102.417 52.8949 103.729 51.6441 105.332 51.6441C106.935 51.6441 108.243 52.8902 108.243 54.5675C108.243 56.2447 106.935 57.4908 105.328 57.4908ZM105.328 56.4058C106.386 56.4058 107.051 55.6288 107.051 54.5675C107.051 53.5061 106.39 52.7291 105.328 52.7291C104.265 52.7291 103.609 53.5014 103.609 54.5675C103.609 55.6335 104.274 56.4058 105.328 56.4058ZM112.577 57.4908C111.754 57.4908 111.015 57.1923 110.521 56.5006V57.3202H109.444V49.2988H110.632V52.4875C111.149 51.9047 111.787 51.6394 112.554 51.6394C114.175 51.6394 115.266 52.9471 115.266 54.5627C115.266 56.1784 114.203 57.4861 112.572 57.4861L112.577 57.4908ZM112.36 56.4058C113.413 56.4058 114.078 55.624 114.078 54.5675C114.078 53.5109 113.431 52.7291 112.36 52.7291C111.288 52.7291 110.636 53.5014 110.636 54.5675C110.636 55.6335 111.301 56.4058 112.36 56.4058ZM118.976 57.4908C117.359 57.4908 116.065 56.24 116.065 54.5675C116.065 52.8949 117.382 51.6441 118.985 51.6441C120.588 51.6441 121.896 52.8902 121.896 54.5675C121.896 56.2447 120.588 57.4908 118.976 57.4908ZM118.976 56.4058C120.034 56.4058 120.699 55.6288 120.699 54.5675C120.699 53.5061 120.043 52.7291 118.976 52.7291C117.908 52.7291 117.257 53.5014 117.257 54.5675C117.257 55.6335 117.922 56.4058 118.976 56.4058ZM122.353 57.3297L124.298 54.5532L122.469 51.8052H123.975L125.121 53.672L126.229 51.8052H127.699L125.92 54.5201L127.847 57.325H126.313L125.074 55.3871L123.818 57.3155L122.353 57.3297ZM115.977 37.0748C117.761 37.0748 118.883 35.7292 118.883 33.9477C118.883 32.1662 117.779 30.8206 115.977 30.8206C114.175 30.8206 113.076 32.1473 113.076 33.9477C113.076 35.7482 114.203 37.0748 115.977 37.0748ZM115.977 42.135C111.362 42.135 107.439 38.8421 107.439 33.9477C107.439 29.0534 111.449 25.7605 115.977 25.7605C120.505 25.7605 124.515 29.0439 124.515 33.9477C124.515 38.8515 120.51 42.135 115.977 42.135ZM95.3617 41.6896V26.2058H101.169V27.812C101.973 26.3148 103.535 25.7273 105.133 25.7273C105.753 25.7273 106.219 25.8173 106.815 25.9358L106.164 32.0383C105.411 31.7256 104.593 31.5598 103.784 31.5598C102.163 31.5598 101.169 32.4552 101.169 34.1514V41.6849H95.3617V41.6896ZM82.0923 30.2852H84.5318C86.0103 30.2852 87.1469 29.8494 87.1469 28.1437C87.1469 26.438 86.0427 25.9689 84.5642 25.9689H82.097V30.2852H82.0923ZM134.324 42.135C129.709 42.135 125.874 38.8231 125.874 33.9477C125.874 29.0723 129.893 25.7605 134.495 25.7605C136.731 25.7605 138.912 26.3669 140.677 27.8168L138.21 32.1947C137.281 31.2944 136.181 30.8254 134.902 30.8254C132.929 30.8254 131.594 31.8346 131.594 33.9525C131.594 36.0703 132.984 37.0795 134.934 37.0795C136.371 37.0795 137.554 36.492 138.593 35.5018L140.797 39.9981C139.014 41.3579 136.542 42.1397 134.324 42.1397V42.135ZM151.382 35.4307C151.003 35.3691 150.638 35.3265 150.278 35.3075C149.284 35.2507 147.173 35.3075 147.173 36.7621C147.173 37.7286 148.129 37.9703 148.901 37.9703C150.583 37.9703 151.382 37.1269 151.382 35.4354V35.4307ZM160.336 41.6896V26.2106H166.144V27.8168C166.943 26.3195 168.509 25.732 170.108 25.732C170.727 25.732 171.194 25.8221 171.79 25.9405L171.138 32.043C170.385 31.7303 169.572 31.5645 168.759 31.5645C167.137 31.5645 166.148 32.46 166.148 34.1562V41.6896H160.341H160.336ZM181.15 42.135C176.276 42.135 172.704 39.06 172.704 33.9193C172.704 28.7786 176.378 25.7605 181.095 25.7605C186.755 25.7605 189.869 30.181 188.787 35.6155H177.902C177.99 36.5583 178.775 37.1222 179.584 37.4064C180.078 37.5818 180.637 37.6718 181.266 37.6718C183.086 37.6718 184.634 37.2548 186.2 36.3025L187.882 40.2303C186.339 41.4337 183.063 42.135 181.146 42.135H181.15ZM178.276 31.7445H183.326C183.326 30.4321 182.01 29.9299 180.915 29.9299C179.82 29.9299 178.392 30.4321 178.272 31.7445H178.276ZM151.336 31.9862C147.824 31.7872 141.92 32.2278 141.92 37.1032C141.92 40.254 144.295 42.135 147.233 42.135C148.956 42.135 150.869 41.6422 151.964 40.1687V41.6849H156.899V32.4552C156.899 27.6557 153.752 25.6088 149.381 25.6088C147.048 25.6088 144.646 26.239 142.645 27.4851L144.068 31.4461C145.26 30.5316 146.887 30.0768 148.365 30.0768C149.756 30.0768 151.063 30.4037 151.336 31.9862ZM76.2293 41.6896V20.8472H84.9107C89.2768 20.8472 93.01 23.2114 93.01 28.0537C93.01 33.1754 89.3369 35.2601 84.7629 35.2601H82.0923V41.6943H76.2293V41.6896ZM23.4246 20.8472H37.5579C39.2628 20.8472 40.6535 19.4163 40.6535 17.6727V3.17445C40.6535 1.42614 39.2581 0 37.5579 0H23.1335C21.0914 0 19.7746 0.563821 18.3423 2.03734L1.98208 18.8098C0.559049 20.2691 0 21.5626 0 23.7231V38.5151C0 40.2635 1.39531 41.6896 3.09556 41.6896H17.2289C18.9337 41.6896 20.3244 40.2587 20.3244 38.5151V24.0216C20.3244 22.2733 21.7197 20.8472 23.42 20.8472H23.4246Z" fill="var(--fill-0, #00BFFF)"/>
</g>
</svg>
