<svg width="120" height="30" viewBox="0 0 120 30" fill="none" xmlns="http://www.w3.org/2000/svg">
  <g fill="#111827">
    <text x="37" y="19.8" font-family="Arial, Helvetica, sans-serif" font-size="12" font-weight="700" letter-spacing=".25">HUAWEI</text>
  </g>
  <g transform="translate(8 5)">
    <path d="M9.8 0c-2.7 3.1-3.2 7.7-1.6 10.6C10.3 8.2 11.4 4 9.8 0Z" fill="#E60012"/>
    <path d="M5.7 1.3C3.1 4 2.8 8.2 5 10.9c1.5-2.8 2.1-6.3.7-9.6Z" fill="#E60012"/>
    <path d="M14.1 1.3c1.4 3.3.8 6.8-.7 9.6 2.2-2.7 1.9-6.9.7-9.6Z" fill="#E60012"/>
    <path d="M1.9 5.4C.8 8.8 2.4 12.5 5.7 14c.1-3.2-1.2-6.5-3.8-8.6Z" fill="#E60012"/>
    <path d="M17.7 5.4c-2.6 2.1-3.9 5.4-3.8 8.6 3.3-1.5 4.9-5.2 3.8-8.6Z" fill="#E60012"/>
    <path d="M.2 10.7c.8 3.2 3.9 5.2 7.3 4.9-1.6-2.6-4.2-4.5-7.3-4.9Z" fill="#E60012"/>
    <path d="M19.4 10.7c-3.1.4-5.7 2.3-7.3 4.9 3.4.3 6.5-1.7 7.3-4.9Z" fill="#E60012"/>
  </g>
</svg>
