<svg preserveAspectRatio="none" width="100%" height="100%" overflow="visible" style="display: block;" viewBox="0 0 13.5 21.4707" fill="none" xmlns="http://www.w3.org/2000/svg">
<path id="Vector" d="M6.75 8.75037V10.7504L7.75 11.7504M10.88 6.41037L10.07 2.36037C9.97856 1.89997 9.72809 1.48641 9.36245 1.19207C8.99682 0.897732 8.5393 0.741374 8.07 0.750368H5.39C4.9207 0.741374 4.46318 0.897732 4.09755 1.19207C3.73191 1.48641 3.48144 1.89997 3.39 2.36037L2.61 6.41037M2.63 15.1104L3.43 19.1104C3.52144 19.5708 3.77191 19.9843 4.13755 20.2787C4.50318 20.573 4.9607 20.7294 5.43 20.7204H8.15C8.6193 20.7294 9.07682 20.573 9.44245 20.2787C9.80809 19.9843 10.0586 19.5708 10.15 19.1104L10.96 15.0604M12.75 10.7504C12.75 14.0641 10.0637 16.7504 6.75 16.7504C3.43629 16.7504 0.75 14.0641 0.75 10.7504C0.75 7.43666 3.43629 4.75037 6.75 4.75037C10.0637 4.75037 12.75 7.43666 12.75 10.7504Z" stroke="var(--stroke-0, #1E293B)" stroke-width="1.5" stroke-linecap="round" stroke-linejoin="round"/>
</svg>
