<svg preserveAspectRatio="none" width="100%" height="100%" overflow="visible" style="display: block;" viewBox="0 0 17.5 21.5" fill="none" xmlns="http://www.w3.org/2000/svg">
<path id="Vector (Stroke)" fill-rule="evenodd" clip-rule="evenodd" d="M8.69358 3.21614e-07H8.80642C10.6442 -1.55332e-05 12.0998 -2.81632e-05 13.239 0.153135C14.4114 0.310763 15.3604 0.64288 16.1088 1.39124C16.8571 2.13961 17.1892 3.08856 17.3469 4.26098C17.5 5.40019 17.5 6.85583 17.5 8.69359V12.8064C17.5 14.6442 17.5 16.0998 17.3469 17.239C17.1892 18.4114 16.8571 19.3604 16.1088 20.1088C15.3604 20.8571 14.4114 21.1892 13.239 21.3469C12.0998 21.5 10.6442 21.5 8.80641 21.5H8.69359C6.85583 21.5 5.40019 21.5 4.26098 21.3469C3.08856 21.1892 2.13961 20.8571 1.39124 20.1088C0.64288 19.3604 0.310763 18.4114 0.153135 17.239C-2.81632e-05 16.0998 -1.55332e-05 14.6442 3.21614e-07 12.8064V8.69358C-1.55332e-05 6.85582 -2.81632e-05 5.40019 0.153135 4.26098C0.310763 3.08856 0.64288 2.13961 1.39124 1.39124C2.13961 0.64288 3.08856 0.310763 4.26098 0.153135C5.40019 -2.81632e-05 6.85582 -1.55332e-05 8.69358 3.21614e-07ZM3.56398 1.82317C3.07495 1.96933 2.72972 2.17409 2.4519 2.4519C2.02869 2.87511 1.77502 3.45476 1.63976 4.46085C1.50159 5.48851 1.5 6.84318 1.5 8.75V12.75C1.5 14.6568 1.50159 16.0115 1.63976 17.0392C1.77502 18.0452 2.02869 18.6249 2.4519 19.0481C2.87511 19.4713 3.45476 19.725 4.46085 19.8602C5.48851 19.9984 6.84318 20 8.75 20C10.6568 20 12.0115 19.9984 13.0392 19.8602C14.0452 19.725 14.6249 19.4713 15.0481 19.0481C15.4713 18.6249 15.725 18.0452 15.8602 17.0392C15.9984 16.0115 16 14.6568 16 12.75V8.75C16 6.84318 15.9984 5.48851 15.8602 4.46085C15.725 3.45476 15.4713 2.87511 15.0481 2.4519C14.7703 2.17409 14.4251 1.96933 13.936 1.82317C13.2743 2.81685 12.8116 3.50765 12.1237 3.93514C11.9865 4.02042 11.8438 4.09674 11.6968 4.16363C10.9546 4.50112 10.117 4.50069 8.91043 4.50006C8.85767 4.50003 8.8042 4.5 8.75 4.5C8.6958 4.5 8.64234 4.50003 8.58957 4.50006C7.38296 4.50069 6.54542 4.50112 5.80325 4.16363C5.65616 4.09674 5.51355 4.02042 5.37631 3.93514C4.68837 3.50765 4.22571 2.81686 3.56398 1.82317ZM5.20129 1.56609C5.64537 2.20963 5.8779 2.48081 6.168 2.66108C6.25035 2.71225 6.33592 2.75805 6.42417 2.79818C6.83307 2.98412 7.31758 3 8.75 3C10.1824 3 10.6669 2.98412 11.0758 2.79818C11.1641 2.75804 11.2497 2.71225 11.332 2.66108C11.6221 2.48081 11.8546 2.20963 12.2987 1.56609C11.3785 1.50096 10.2307 1.5 8.75 1.5C7.26929 1.5 6.12152 1.50096 5.20129 1.56609ZM5 17.75C5 17.3358 5.33579 17 5.75 17H11.75C12.1642 17 12.5 17.3358 12.5 17.75C12.5 18.1642 12.1642 18.5 11.75 18.5H5.75C5.33579 18.5 5 18.1642 5 17.75Z" fill="var(--fill-0, #00BFFF)"/>
</svg>
