<svg preserveAspectRatio="none" width="100%" height="100%" overflow="visible" style="display: block;" viewBox="0 0 18.334 13.3333" fill="none" xmlns="http://www.w3.org/2000/svg">
<path id="Icon color" fill-rule="evenodd" clip-rule="evenodd" d="M15.8337 0.408323L14.617 0.283323C10.9768 -0.0944412 7.30722 -0.0944412 3.667 0.283323L2.50033 0.408323C1.05993 0.571126 -0.0217065 1.80058 0.000330761 3.24999V10.0833C-0.0217065 11.5327 1.05993 12.7622 2.50033 12.925L3.717 13.05C5.52751 13.2391 7.34664 13.3337 9.167 13.3333C10.9957 13.3345 12.8232 13.24 14.642 13.05L15.8337 12.925C17.2741 12.7622 18.3557 11.5327 18.3337 10.0833V3.24999C18.3557 1.80058 17.2741 0.571126 15.8337 0.408323ZM16.667 10.0833C16.6902 10.6712 16.2659 11.1818 15.6837 11.2667L14.467 11.3917C12.7063 11.5751 10.9372 11.6669 9.167 11.6667C7.39676 11.6669 5.6277 11.5751 3.867 11.3917L2.65033 11.2667C2.0681 11.1818 1.6438 10.6712 1.667 10.0833V3.24999C1.6438 2.66207 2.0681 2.15147 2.65033 2.06666L3.867 1.94166C7.39082 1.57498 10.9432 1.57498 14.467 1.94166L15.6837 2.06666C16.2659 2.15147 16.6902 2.66207 16.667 3.24999V10.0833ZM7.83268 3.94888C8.0368 3.84071 8.28394 3.85396 8.47533 3.98332L11.717 6.14999C11.8917 6.26381 11.997 6.45817 11.997 6.66666C11.997 6.87514 11.8917 7.06951 11.717 7.18332L8.47533 9.34999C8.28394 9.47935 8.0368 9.4926 7.83268 9.38444C7.62856 9.27627 7.50075 9.06433 7.50033 8.83332V4.49999C7.50075 4.26898 7.62856 4.05704 7.83268 3.94888Z" fill="var(--fill-0, white)"/>
</svg>
