<svg preserveAspectRatio="none" width="100%" height="100%" overflow="visible" style="display: block;" viewBox="0 0 136 44.9966" fill="none" xmlns="http://www.w3.org/2000/svg">
<g id="Layer 1">
<path id="Vector" fill-rule="evenodd" clip-rule="evenodd" d="M27.0258 29.9989H16.8558C15.629 29.9989 14.6283 31.0285 14.6283 32.2831V42.7123C14.6283 43.9704 15.6323 44.9966 16.8558 44.9966H27.2352C28.7047 44.9966 29.6522 44.5909 30.6829 43.5306L42.4553 31.4581C43.4793 30.408 43.8849 29.4772 43.8849 27.9226V17.2786C43.8849 16.0205 42.8809 14.9943 41.6574 14.9943H31.4874C30.2606 14.9943 29.2599 16.0239 29.2599 17.2786V27.7078C29.2599 28.9658 28.2559 29.992 27.0324 29.992M57.1036 41.369C56.5151 41.369 55.9799 41.1543 55.6241 40.6565V41.2463H54.8495V35.4743H55.7072V37.7688C56.0796 37.3494 56.5384 37.1585 57.0903 37.1585C58.2572 37.1585 59.0418 38.0995 59.0418 39.2621C59.0418 40.4247 58.2738 41.3656 57.1036 41.3656V41.369ZM56.9473 40.5883C57.7053 40.5883 58.1841 40.0258 58.1841 39.2655C58.1841 38.5052 57.7186 37.9426 56.9473 37.9426C56.176 37.9426 55.7072 38.4984 55.7072 39.2655C55.7072 40.0326 56.186 40.5883 56.9473 40.5883ZM60.1988 43.0464C59.9062 43.0464 59.6403 42.9851 59.3843 42.8351L59.5804 42.0816C59.7267 42.1771 59.9295 42.2418 60.1057 42.2418C60.4814 42.2418 60.6676 42.0543 60.7806 41.6997L60.9103 41.3145L59.3843 37.2812H60.3251L61.3957 40.3599L62.4396 37.2812H63.3505L61.6782 41.8225C61.399 42.5589 61.0133 43.0464 60.1955 43.0464H60.1988ZM66.0568 41.2497V35.6379H68.0382C69.0888 35.6379 70.023 36.1868 70.023 37.3665C70.023 38.6177 69.1254 39.0848 68.0183 39.0848H66.9311V41.2497H66.0568ZM66.9311 38.3143H68.0283C68.6367 38.3143 69.1453 38.0858 69.1453 37.3835C69.1453 36.6812 68.64 36.4221 68.0349 36.4221H66.9278V38.3143H66.9311ZM70.8974 41.2497V37.2812H71.7585V37.8301C71.9048 37.5813 72.081 37.4074 72.2904 37.3051C72.4999 37.2062 72.7226 37.1551 72.962 37.1551C73.1049 37.1551 73.2479 37.1687 73.3875 37.2028L73.2745 38.1131C73.1182 38.0654 72.9553 38.0347 72.7924 38.0347C72.1741 38.0347 71.7552 38.4472 71.7552 39.0848V41.2463H70.8941L70.8974 41.2497ZM75.7912 41.369C74.6276 41.369 73.6967 40.469 73.6967 39.2655C73.6967 38.062 74.6409 37.1619 75.7946 37.1619C76.9482 37.1619 77.8891 38.0586 77.8891 39.2655C77.8891 40.4724 76.9482 41.369 75.7912 41.369ZM75.7912 40.5883C76.5526 40.5883 77.0313 40.0292 77.0313 39.2655C77.0313 38.5018 76.5559 37.9426 75.7912 37.9426C75.0266 37.9426 74.5545 38.4984 74.5545 39.2655C74.5545 40.0326 75.0332 40.5883 75.7912 40.5883ZM81.0076 41.369C80.4158 41.369 79.8838 41.1543 79.5281 40.6565V41.2463H78.7535V35.4743H79.6079V37.7688C79.9802 37.3494 80.439 37.1585 80.9909 37.1585C82.1579 37.1585 82.9425 38.0995 82.9425 39.2621C82.9425 40.4247 82.1778 41.3656 81.0042 41.3656L81.0076 41.369ZM80.8513 40.5883C81.6093 40.5883 82.0881 40.0258 82.0881 39.2655C82.0881 38.5052 81.6226 37.9426 80.8513 37.9426C80.08 37.9426 79.6112 38.4984 79.6112 39.2655C79.6112 40.0326 80.09 40.5883 80.8513 40.5883ZM85.6122 41.369C84.4485 41.369 83.5176 40.469 83.5176 39.2655C83.5176 38.062 84.4652 37.1619 85.6188 37.1619C86.7724 37.1619 87.7133 38.0586 87.7133 39.2655C87.7133 40.4724 86.7724 41.369 85.6122 41.369ZM85.6122 40.5883C86.3735 40.5883 86.8522 40.0292 86.8522 39.2655C86.8522 38.5018 86.3801 37.9426 85.6122 37.9426C84.8442 37.9426 84.3754 38.4984 84.3754 39.2655C84.3754 40.0326 84.8541 40.5883 85.6122 40.5883ZM88.0424 41.2531L89.4421 39.2552L88.1256 37.2778H89.2094L90.0339 38.6211L90.8318 37.2778H91.889L90.609 39.2314L91.9954 41.2497H90.8916L90.0006 39.8553L89.0963 41.2429L88.0424 41.2531ZM83.4545 26.6782C84.7378 26.6782 85.5457 25.7099 85.5457 24.428C85.5457 23.1461 84.7511 22.1778 83.4545 22.1778C82.1579 22.1778 81.3666 23.1324 81.3666 24.428C81.3666 25.7235 82.1778 26.6782 83.4545 26.6782ZM83.4545 30.3193C80.1332 30.3193 77.3106 27.9498 77.3106 24.428C77.3106 20.9061 80.1964 18.5366 83.4545 18.5366C86.7126 18.5366 89.5984 20.8993 89.5984 24.428C89.5984 27.9567 86.7159 30.3193 83.4545 30.3193ZM68.62 29.9989V18.8571H72.7991V20.0129C73.3776 18.9355 74.5013 18.5128 75.6516 18.5128C76.0971 18.5128 76.4329 18.5775 76.8618 18.6628L76.393 23.054C75.8511 22.829 75.2626 22.7097 74.6808 22.7097C73.5139 22.7097 72.7991 23.354 72.7991 24.5746V29.9955H68.62V29.9989ZM59.0717 21.7926H60.8271C61.891 21.7926 62.7089 21.4789 62.7089 20.2515C62.7089 19.0242 61.9143 18.6866 60.8504 18.6866H59.0751V21.7926H59.0717ZM96.6565 30.3193C93.3352 30.3193 90.5758 27.9362 90.5758 24.428C90.5758 20.9198 93.4682 18.5366 96.7795 18.5366C98.3886 18.5366 99.9579 18.973 101.228 20.0163L99.4525 23.1665C98.7843 22.5187 97.993 22.1812 97.0721 22.1812C95.6525 22.1812 94.6917 22.9074 94.6917 24.4314C94.6917 25.9554 95.6924 26.6816 97.0954 26.6816C98.1293 26.6816 98.9804 26.2588 99.7285 25.5463L101.314 28.7817C100.031 29.7602 98.2523 30.3228 96.6565 30.3228V30.3193ZM108.931 25.4951C108.658 25.4508 108.396 25.4201 108.136 25.4065C107.422 25.3656 105.902 25.4065 105.902 26.4531C105.902 27.1486 106.59 27.3225 107.146 27.3225C108.356 27.3225 108.931 26.7157 108.931 25.4985V25.4951ZM115.374 29.9989V18.8605H119.553V20.0163C120.128 18.9389 121.255 18.5162 122.406 18.5162C122.851 18.5162 123.187 18.581 123.616 18.6662L123.147 23.0574C122.605 22.8324 122.02 22.7131 121.435 22.7131C120.268 22.7131 119.556 23.3574 119.556 24.578V29.9989H115.377H115.374ZM130.351 30.3193C126.844 30.3193 124.274 28.1067 124.274 24.4075C124.274 20.7084 126.917 18.5366 130.312 18.5366C134.384 18.5366 136.625 21.7176 135.847 25.6281H128.014C128.077 26.3065 128.643 26.7122 129.224 26.9168C129.58 27.043 129.982 27.1077 130.435 27.1077C131.744 27.1077 132.858 26.8077 133.985 26.1224L135.195 28.9488C134.085 29.8148 131.728 30.3193 130.348 30.3193H130.351ZM128.284 22.8426H131.917C131.917 21.8982 130.97 21.5369 130.182 21.5369C129.394 21.5369 128.367 21.8982 128.28 22.8426H128.284ZM108.898 23.0165C106.371 22.8733 102.122 23.1904 102.122 26.6986C102.122 28.9658 103.831 30.3193 105.945 30.3193C107.186 30.3193 108.562 29.9648 109.35 28.9045V29.9955H112.901V23.354C112.901 19.9004 110.637 18.4275 107.491 18.4275C105.813 18.4275 104.084 18.881 102.644 19.7776L103.668 22.6279C104.526 21.9698 105.696 21.6425 106.76 21.6425C107.761 21.6425 108.702 21.8778 108.898 23.0165ZM54.8528 29.9989V15.0011H61.0998C64.2415 15.0011 66.9278 16.7024 66.9278 20.1868C66.9278 23.8723 64.2847 25.3724 60.9934 25.3724H59.0717V30.0023H54.8528V29.9989ZM16.8558 15.0011H27.0258C28.2526 15.0011 29.2533 13.9715 29.2533 12.7169V2.28426C29.2533 1.02621 28.2492 0 27.0258 0H16.6463C15.1769 0 14.2294 0.405713 13.1987 1.46602L1.42626 13.5351C0.402278 14.5852 0 15.5159 0 17.0706V27.7146C0 28.9726 1.00403 29.9989 2.22749 29.9989H12.3975C13.6243 29.9989 14.625 28.9692 14.625 27.7146V17.2854C14.625 16.0274 15.629 15.0011 16.8525 15.0011H16.8558Z" fill="var(--fill-0, #00BFFF)"/>
</g>
</svg>
