<svg preserveAspectRatio="none" width="100%" height="100%" overflow="visible" style="display: block;" viewBox="0 0 12 12" fill="none" xmlns="http://www.w3.org/2000/svg">
<path id="Vector" d="M8.37078 7.69847L8.06715 8.01814C8.06715 8.01814 7.34542 8.77798 5.37542 6.70393C3.40541 4.62989 4.12714 3.87005 4.12714 3.87005L4.31835 3.66874C4.78938 3.17283 4.83379 2.37664 4.42283 1.7954L3.58217 0.60641C3.07352 -0.113 2.09064 -0.208034 1.50763 0.405761L0.461233 1.50742C0.172153 1.81177 -0.0215655 2.2063 0.00192505 2.64396C0.0620234 3.76364 0.540477 6.1727 3.21024 8.98346C6.04143 11.9642 8.69789 12.0826 9.78419 11.9754C10.1278 11.9415 10.4266 11.7562 10.6674 11.5027L11.6144 10.5056C12.2537 9.8326 12.0735 8.67878 11.2556 8.20799L9.98188 7.47488C9.44483 7.16576 8.79052 7.25656 8.37078 7.69847Z" fill="var(--fill-0, #00BFFF)"/>
</svg>
