<svg preserveAspectRatio="none" width="100%" height="100%" overflow="visible" style="display: block;" viewBox="0 0 16.6667 15" fill="none" xmlns="http://www.w3.org/2000/svg">
<path id="Icon color" fill-rule="evenodd" clip-rule="evenodd" d="M14.9753 0C15.4095 0.0128398 15.8215 0.195752 16.1232 0.509647C16.5495 0.918273 16.7432 1.51452 16.6389 2.09707L14.4512 13.4597C14.3553 13.9883 14.0203 14.4422 13.5445 14.6879L13.27 14.8299C12.6981 15.111 12.0167 15.0396 11.5148 14.6461L8.9528 12.6158L7.63018 13.8691C7.36361 14.1253 7.00925 14.2688 6.64031 14.2701C6.54086 14.2824 6.44029 14.2824 6.34085 14.2701C5.8121 14.1501 5.3909 13.7495 5.24283 13.2258L4.16145 9.55797L0.576253 8.35487C0.219115 8.2384 -0.0160629 7.89607 0.00228897 7.51938V6.97631C-0.0243697 6.61495 0.18392 6.27753 0.518025 6.14083L14.3264 0.133678C14.5316 0.0458907 14.7522 0.000430667 14.9753 0ZM12.9789 13.6017C13.1092 13.5312 13.2009 13.4053 13.2284 13.2592L15.3829 1.89655C15.4144 1.73081 15.3649 1.55993 15.2498 1.43704C15.1702 1.34445 15.0554 1.28985 14.9337 1.28665C14.8844 1.27492 14.8332 1.27492 14.7839 1.28665L1.25004 7.18518L5.0016 8.47183C5.11474 8.52596 5.24614 8.52596 5.35928 8.47183L11.6479 4.48656C11.7697 4.43036 11.9139 4.46484 11.9973 4.57011C12.0566 4.62596 12.0872 4.70597 12.0805 4.78734C12.0776 4.87027 12.0416 4.94855 11.9807 5.00456C11.0324 5.80663 9.44358 7.21025 6.79003 9.71671C6.70529 9.79702 6.65716 9.90881 6.65694 10.0258V12.9751C6.69898 12.9729 6.73945 12.9583 6.7734 12.9333L8.62006 11.1872C8.77436 11.0498 9.00646 11.0498 9.16075 11.1872L12.2884 13.6936C12.3558 13.7514 12.4411 13.7839 12.5297 13.7855C12.5904 13.7857 12.6503 13.7714 12.7044 13.7438L12.9789 13.6017Z" fill="var(--fill-0, white)"/>
</svg>
