<svg preserveAspectRatio="none" width="100%" height="100%" overflow="visible" style="display: block;" viewBox="0 0 13.3333 10.6667" fill="none" xmlns="http://www.w3.org/2000/svg">
<path id="Vector" fill-rule="evenodd" clip-rule="evenodd" d="M0.781049 0.781049C0 1.5621 0 2.81918 0 5.33333C0 7.84749 0 9.10457 0.781049 9.88562C1.5621 10.6667 2.81918 10.6667 5.33333 10.6667H8C10.5142 10.6667 11.7712 10.6667 12.5523 9.88562C13.3333 9.10457 13.3333 7.84749 13.3333 5.33333C13.3333 2.81918 13.3333 1.5621 12.5523 0.781049C11.7712 0 10.5142 0 8 0H5.33333C2.81918 0 1.5621 0 0.781049 0.781049ZM11.0508 2.34657C11.2276 2.55871 11.1989 2.874 10.9868 3.05078L9.52244 4.27104C8.93153 4.76348 8.45259 5.16261 8.02988 5.43448C7.58955 5.71769 7.16072 5.89658 6.66667 5.89658C6.17262 5.89658 5.74378 5.71769 5.30345 5.43448C4.88074 5.16261 4.40181 4.76349 3.8109 4.27105L2.34657 3.05078C2.13444 2.874 2.10577 2.55871 2.28256 2.34657C2.45934 2.13444 2.77462 2.10577 2.98676 2.28256L4.42602 3.48194C5.048 4.00025 5.47982 4.35894 5.84439 4.59342C6.1973 4.82039 6.43662 4.89658 6.66667 4.89658C6.89672 4.89658 7.13604 4.82039 7.48895 4.59342C7.85351 4.35894 8.28534 4.00025 8.90731 3.48194L10.3466 2.28256C10.5587 2.10577 10.874 2.13444 11.0508 2.34657Z" fill="var(--fill-0, #00BFFF)"/>
</svg>
