<svg preserveAspectRatio="none" width="100%" height="100%" overflow="visible" style="display: block;" viewBox="0 0 11.9998 14.6666" fill="none" xmlns="http://www.w3.org/2000/svg">
<g id="Layer 2">
<path id="Vector" d="M9.81095 1.36686C9.11933 0.800567 8.31066 0.394825 7.44325 0.178896C6.57585 -0.0370333 5.67133 -0.0577661 4.79495 0.118193C3.6681 0.349219 2.63141 0.899294 1.80837 1.70289C0.98533 2.50649 0.410635 3.52973 0.152741 4.65074C-0.105152 5.77174 -0.0353736 6.94325 0.353766 8.02572C0.742905 9.10819 1.435 10.056 2.34761 10.7562C3.38957 11.5188 4.27671 12.4729 4.96161 13.5675L5.42828 14.3435C5.48755 14.4421 5.57131 14.5237 5.67143 14.5803C5.77154 14.6369 5.8846 14.6666 5.99961 14.6666C6.11463 14.6666 6.22769 14.6369 6.3278 14.5803C6.42792 14.5237 6.51168 14.4421 6.57095 14.3435L7.01828 13.5982C7.61469 12.5498 8.4279 11.6407 9.40361 10.9315C10.1687 10.4051 10.801 9.70818 11.2506 8.89561C11.7002 8.08305 11.9548 7.17712 11.9944 6.2493C12.0339 5.32149 11.8573 4.39717 11.4785 3.54928C11.0997 2.70139 10.5291 1.95313 9.81161 1.36353L9.81095 1.36686ZM5.99895 8.66753C5.47153 8.66753 4.95596 8.51113 4.51743 8.21811C4.0789 7.92509 3.7371 7.50862 3.53527 7.02135C3.33343 6.53408 3.28063 5.9979 3.38352 5.48062C3.48641 4.96334 3.74039 4.48818 4.11333 4.11524C4.48627 3.7423 4.96142 3.48833 5.47871 3.38543C5.99599 3.28254 6.53217 3.33535 7.01944 3.53718C7.50671 3.73901 7.92318 4.08081 8.2162 4.51934C8.50922 4.95787 8.66561 5.47344 8.66561 6.00086C8.66561 6.7081 8.38466 7.38638 7.88456 7.88648C7.38447 8.38658 6.70619 8.66753 5.99895 8.66753Z" fill="var(--fill-0, #00BFFF)"/>
</g>
</svg>
