<svg preserveAspectRatio="none" width="100%" height="100%" overflow="visible" style="display: block;" viewBox="0 0 6.33139 6.3332" fill="none" xmlns="http://www.w3.org/2000/svg">
<g id="Vector">
<path d="M0.00632511 0.419887C0.0504568 0.147294 0.30815 -0.037622 0.580743 0.00650967C0.597616 0.00973953 0.651904 0.0198864 0.68035 0.0262215C0.737236 0.0388903 0.816589 0.0583956 0.915526 0.0872129C1.11338 0.144841 1.38978 0.239778 1.72153 0.391869C2.38571 0.696371 3.26959 1.22904 4.18679 2.14624C5.10399 3.06344 5.63666 3.94732 5.94116 4.6115C6.09325 4.94325 6.18819 5.21965 6.24582 5.4175C6.27463 5.51644 6.29414 5.59579 6.30681 5.65268C6.31314 5.68112 6.31777 5.70396 6.321 5.72084L6.32484 5.74163C6.36897 6.01423 6.18573 6.28257 5.91314 6.3267C5.64133 6.37071 5.38526 6.18669 5.34004 5.91537C5.33865 5.90809 5.33483 5.88851 5.33072 5.87006C5.3225 5.83313 5.30827 5.77459 5.28571 5.69715C5.2406 5.54226 5.16224 5.31204 5.03214 5.02825C4.77225 4.46138 4.30492 3.67859 3.47968 2.85335C2.65444 2.02811 1.87165 1.56078 1.30478 1.30089C1.02099 1.17079 0.790768 1.09243 0.635877 1.04732C0.558442 1.02476 0.461112 1.00242 0.424189 0.994197C0.152873 0.948982 -0.0376805 0.691702 0.00632511 0.419887Z" fill="var(--fill-0, #00BFFF)"/>
<path fill-rule="evenodd" clip-rule="evenodd" d="M0.157158 2.71953C0.23302 2.45401 0.509762 2.30027 0.77528 2.37613L0.63792 2.85689C0.77528 2.37613 0.77528 2.37613 0.77528 2.37613L0.77624 2.37641L0.777262 2.3767L0.779485 2.37735L0.784652 2.37889L0.797843 2.383C0.807896 2.38622 0.820448 2.3904 0.835416 2.39571C0.865357 2.40634 0.904929 2.42145 0.953467 2.44225C1.05059 2.48387 1.1833 2.54815 1.34631 2.64463C1.67262 2.83775 2.11807 3.15854 2.64139 3.68185C3.1647 4.20516 3.48549 4.65062 3.67861 4.97693C3.77508 5.13994 3.83936 5.27265 3.88099 5.36977C3.90179 5.41831 3.9169 5.45788 3.92753 5.48782C3.93284 5.50279 3.93702 5.51534 3.94024 5.5254L3.94435 5.53859L3.94589 5.54375L3.94654 5.54598L3.94683 5.547C3.94683 5.547 3.94711 5.54796 3.46635 5.68532L3.94711 5.54796C4.02297 5.81348 3.86923 6.09022 3.60371 6.16608C3.34044 6.2413 3.06615 6.09079 2.98756 5.82942L2.9851 5.82223C2.98154 5.81221 2.97419 5.79249 2.96184 5.76369C2.93718 5.70613 2.89244 5.61198 2.81803 5.48625C2.66939 5.23509 2.40092 4.85559 1.93428 4.38896C1.46765 3.92232 1.08815 3.65385 0.836986 3.5052C0.711258 3.43079 0.617105 3.38606 0.559548 3.3614C0.530746 3.34905 0.511024 3.3417 0.501006 3.33814L0.493819 3.33568C0.232447 3.25709 0.0819397 2.98279 0.157158 2.71953Z" fill="var(--fill-0, #00BFFF)"/>
</g>
</svg>
