<svg width="20" height="20" viewBox="0 0 20 20" fill="none" xmlns="http://www.w3.org/2000/svg">
<path fill-rule="evenodd" clip-rule="evenodd" d="M11.1136 1.04163H13.0527C14.0485 1.04162 14.8403 1.04161 15.4753 1.10199C16.1265 1.16391 16.6771 1.29368 17.1675 1.59423C17.6721 1.90344 18.0963 2.32768 18.4055 2.83226C18.7061 3.32271 18.8358 3.87326 18.8978 4.52442C18.9581 5.15947 18.9581 5.95131 18.9581 6.94706V7.62685C18.9581 8.33566 18.9581 8.89942 18.9269 9.35656C18.895 9.82419 18.8284 10.2257 18.6727 10.6017C18.2921 11.5206 17.562 12.2506 16.6432 12.6312C16.3272 12.7621 15.9904 12.8308 15.6089 12.8682C15.6045 12.9843 15.5988 13.0947 15.5917 13.1997C15.5578 13.6964 15.4872 14.1197 15.3235 14.5148C14.9218 15.4847 14.1512 16.2553 13.1813 16.657C12.6839 16.8631 12.1353 16.9234 11.4454 16.9455C11.0742 16.9573 10.8369 16.9655 10.6566 16.9875C10.4862 17.0083 10.4223 17.0361 10.3877 17.0565C10.3493 17.0792 10.2962 17.1209 10.2038 17.2482C10.1039 17.3858 9.99079 17.5756 9.81165 17.8782L9.59545 18.2435C9.03133 19.1966 7.63498 19.1966 7.07086 18.2435L6.85467 17.8782C6.67552 17.5756 6.56243 17.3858 6.46254 17.2482C6.37007 17.1209 6.31704 17.0792 6.27862 17.0565C6.24405 17.0361 6.1801 17.0083 6.00969 16.9875C5.82944 16.9655 5.59215 16.9573 5.22094 16.9455C4.53104 16.9234 3.98243 16.8631 3.48505 16.657C2.51514 16.2553 1.74456 15.4847 1.34281 14.5148C1.17914 14.1197 1.10856 13.6964 1.07467 13.1997C1.0415 12.7135 1.0415 12.1134 1.0415 11.3561V10.6344C1.0415 9.57058 1.04149 8.72762 1.10571 8.05221C1.17146 7.36069 1.30891 6.78057 1.6248 6.26508C1.95119 5.73246 2.399 5.28465 2.93161 4.95826C3.4471 4.64237 4.02723 4.50492 4.71874 4.43917C4.89453 4.42245 5.08167 4.41009 5.2811 4.40095C5.34779 3.80108 5.48074 3.28916 5.76073 2.83226C6.06993 2.32768 6.49417 1.90344 6.99876 1.59423C7.4892 1.29368 8.03975 1.16391 8.6909 1.10199C9.32595 1.04161 10.1178 1.04162 11.1136 1.04163ZM6.54426 4.37596C6.78326 4.37496 7.0352 4.37496 7.30092 4.37496H9.36542C10.4292 4.37495 11.2722 4.37495 11.9476 4.43917C12.6391 4.50492 13.2192 4.64237 13.7347 4.95826C14.2673 5.28465 14.7152 5.73246 15.0415 6.26508C15.3574 6.78057 15.4949 7.36069 15.5606 8.05221C15.6248 8.72762 15.6248 9.57058 15.6248 10.6344V11.3561C15.6248 11.4422 15.6248 11.5263 15.6248 11.6084C15.8543 11.5786 16.0217 11.5357 16.1648 11.4764C16.7774 11.2226 17.2641 10.7359 17.5178 10.1234C17.6 9.92508 17.6523 9.67546 17.6798 9.27148C17.7078 8.86188 17.7081 8.34074 17.7081 7.60415V6.97915C17.7081 5.9441 17.7075 5.21169 17.6534 4.64273C17.6002 4.08307 17.4997 3.74641 17.3397 3.48539C17.1336 3.14899 16.8508 2.86617 16.5144 2.66003C16.2533 2.50007 15.9167 2.3996 15.357 2.34638C14.7881 2.29229 14.0557 2.29163 13.0206 2.29163H11.1456C10.1106 2.29163 9.37818 2.29229 8.80922 2.34638C8.24956 2.3996 7.91291 2.50007 7.65188 2.66003C7.31549 2.86617 7.03267 3.14899 6.82653 3.48538C6.69273 3.70373 6.60175 3.97235 6.54426 4.37596ZM4.83706 5.68355C4.23704 5.7406 3.87081 5.84875 3.58474 6.02406C3.22032 6.24738 2.91392 6.55378 2.6906 6.9182C2.5153 7.20428 2.40715 7.57051 2.3501 8.17053C2.29216 8.77985 2.2915 9.5634 2.2915 10.6666V11.3333C2.2915 12.1184 2.29184 12.676 2.32177 13.1146C2.35132 13.5477 2.4076 13.819 2.49766 14.0364C2.77254 14.7001 3.29979 15.2273 3.9634 15.5022C4.24189 15.6175 4.60069 15.675 5.26091 15.6961L5.28682 15.6969C5.62466 15.7077 5.9185 15.7171 6.16104 15.7467C6.41959 15.7782 6.67362 15.8378 6.91502 15.9806C7.15257 16.1212 7.32414 16.3074 7.47391 16.5136C7.61245 16.7044 7.7552 16.9456 7.91702 17.219L8.14655 17.6068C8.18439 17.6707 8.25046 17.7083 8.33316 17.7083C8.41586 17.7083 8.48192 17.6707 8.51976 17.6068L8.7493 17.219C8.91112 16.9456 9.05386 16.7044 9.19241 16.5136C9.34217 16.3074 9.51375 16.1212 9.7513 15.9806C9.9927 15.8378 10.2467 15.7782 10.5053 15.7467C10.7478 15.7171 11.0417 15.7077 11.3795 15.6969L11.4054 15.6961C12.0656 15.675 12.4245 15.6175 12.7029 15.5022C13.3666 15.2273 13.8938 14.7001 14.1687 14.0364C14.2587 13.819 14.315 13.5477 14.3446 13.1146C14.3745 12.676 14.3748 12.1184 14.3748 11.3333V10.6666C14.3748 9.5634 14.3742 8.77985 14.3162 8.17053C14.2592 7.57051 14.151 7.20428 13.9757 6.9182C13.7524 6.55377 13.446 6.24738 13.0816 6.02406C12.7955 5.84875 12.4293 5.7406 11.8293 5.68355C11.22 5.62562 10.4364 5.62496 9.33317 5.62496H7.33317C6.22993 5.62496 5.44638 5.62562 4.83706 5.68355Z" fill="#00BFFF"/>
<path d="M6.24984 10.8333C6.24984 11.2935 5.87674 11.6666 5.4165 11.6666C4.95627 11.6666 4.58317 11.2935 4.58317 10.8333C4.58317 10.3731 4.95627 9.99996 5.4165 9.99996C5.87674 9.99996 6.24984 10.3731 6.24984 10.8333Z" fill="#00BFFF"/>
<path d="M9.1665 10.8333C9.1665 11.2935 8.79341 11.6666 8.33317 11.6666C7.87293 11.6666 7.49984 11.2935 7.49984 10.8333C7.49984 10.3731 7.87293 9.99996 8.33317 9.99996C8.79341 9.99996 9.1665 10.3731 9.1665 10.8333Z" fill="#00BFFF"/>
<path d="M12.0832 10.8333C12.0832 11.2935 11.7101 11.6666 11.2498 11.6666C10.7896 11.6666 10.4165 11.2935 10.4165 10.8333C10.4165 10.3731 10.7896 9.99996 11.2498 9.99996C11.7101 9.99996 12.0832 10.3731 12.0832 10.8333Z" fill="#00BFFF"/>
</svg>
