<svg width="20" height="20" viewBox="0 0 20 20" fill="none" xmlns="http://www.w3.org/2000/svg">
<path fill-rule="evenodd" clip-rule="evenodd" d="M9.181 2.3346C5.30877 2.74347 2.2915 6.01936 2.2915 9.99996C2.2915 14.2572 5.74264 17.7083 9.99984 17.7083C13.9804 17.7083 17.2563 14.691 17.6652 10.8188C16.5596 12.2223 14.8437 13.125 12.9165 13.125C9.57978 13.125 6.87484 10.42 6.87484 7.08329C6.87484 5.15611 7.77746 3.44021 9.181 2.3346ZM1.0415 9.99996C1.0415 5.05241 5.05229 1.04163 9.99984 1.04163C10.597 1.04163 10.896 1.51767 10.9472 1.89685C10.9965 2.26161 10.8616 2.7255 10.4424 2.97885C9.05205 3.81896 8.12484 5.34315 8.12484 7.08329C8.12484 9.72966 10.2701 11.875 12.9165 11.875C14.6566 11.875 16.1808 10.9477 17.0209 9.55743C17.2743 9.13816 17.7382 9.00333 18.1029 9.05259C18.4821 9.1038 18.9582 9.40277 18.9582 9.99996C18.9582 14.9475 14.9474 18.9583 9.99984 18.9583C5.05229 18.9583 1.0415 14.9475 1.0415 9.99996Z" fill="#1E293B"/>
</svg>
