<svg preserveAspectRatio="none" width="100%" height="100%" overflow="visible" style="display: block;" viewBox="0 0 23.9998 23.9993" fill="none" xmlns="http://www.w3.org/2000/svg">
<g id="Group">
<g id="Group_2">
<path id="Vector" fill-rule="evenodd" clip-rule="evenodd" d="M22.509 8.43548C22.3799 7.40348 22.1557 6.40172 21.753 5.49212C21.1256 4.031 19.9703 2.87612 18.5091 2.24828C16.7 1.44764 14.5299 1.35116 12.4731 1.31036C12.1568 1.30412 11.8443 1.30412 11.528 1.31036C9.47123 1.35116 7.30163 1.44764 5.49203 2.24828C4.03091 2.87564 2.87603 4.031 2.24819 5.49212C1.84547 6.4022 1.62083 7.40348 1.49219 8.43548H22.509Z" fill="var(--fill-0, #0D93CE)"/>
<path id="Vector_2" fill-rule="evenodd" clip-rule="evenodd" d="M22.6899 11.5276C22.6697 10.5052 22.6356 9.45541 22.508 8.43541H1.49211C1.36491 9.45541 1.33083 10.5056 1.31019 11.5276C1.30395 11.8439 1.30395 12.1564 1.31019 12.4727C1.33035 13.4951 1.36443 14.5448 1.49211 15.5648H22.5084C22.6356 14.5448 22.6697 13.4946 22.6904 12.4727C22.6966 12.1564 22.6966 11.8444 22.6899 11.5276Z" fill="var(--fill-0, #F1F0F0)"/>
<path id="Vector_3" fill-rule="evenodd" clip-rule="evenodd" d="M1.39597 14.5746C1.42045 14.9068 1.45165 15.2375 1.49245 15.5653H22.5088C22.5496 15.2375 22.5808 14.9068 22.6053 14.5746H1.39597Z" fill="var(--fill-0, #EF4444)"/>
<path id="Vector_4" fill-rule="evenodd" clip-rule="evenodd" d="M22.6053 9.42613C22.5808 9.09397 22.5496 8.76325 22.5088 8.43541H1.49245C1.45165 8.76325 1.42045 9.09397 1.39597 9.42613H22.6053Z" fill="var(--fill-0, #EF4444)"/>
<path id="Vector_5" fill-rule="evenodd" clip-rule="evenodd" d="M1.49219 15.5653C1.62131 16.5978 1.84547 17.5991 2.24819 18.5087C2.87411 19.966 4.03235 21.1257 5.49203 21.7525C7.30115 22.5532 9.47123 22.6497 11.528 22.6905C11.6811 22.6933 11.8338 22.6953 11.9859 22.6953H12.0003H12.0152C12.1674 22.6953 12.32 22.6938 12.4731 22.6905C14.5299 22.6497 16.6995 22.5532 18.5091 21.7525C19.9703 21.1252 21.1251 19.9698 21.753 18.5087C22.1557 17.5986 22.3803 16.5973 22.509 15.5653H1.49219Z" fill="var(--fill-0, #6FB444)"/>
<path id="Vector_6" fill-rule="evenodd" clip-rule="evenodd" d="M10.1328 6.43581L10.2547 6.81357L10.6517 6.81261L10.3301 7.04541L10.4535 7.42269L10.1328 7.18893L9.81217 7.42269L9.93553 7.04541L9.61393 6.81261L10.0109 6.81357L10.1328 6.43581ZM7.03441 2.98413C7.51345 2.98413 7.95889 3.12909 8.32897 3.37773C8.18113 3.34269 8.02657 3.32397 7.86769 3.32397C6.77089 3.32397 5.88193 4.21293 5.88193 5.30973C5.88193 6.40653 6.77089 7.29549 7.86769 7.29549C8.02657 7.29549 8.18065 7.27677 8.32897 7.24173C7.95889 7.49037 7.51345 7.63533 7.03441 7.63533C5.75041 7.63533 4.70929 6.59421 4.70929 5.31021C4.70929 4.02525 5.74993 2.98413 7.03441 2.98413ZM16.8634 3.19629L16.9853 3.57405L17.3823 3.57309L17.0607 3.80589L17.184 4.18317L16.8634 3.94941L16.5427 4.18317L16.6661 3.80589L16.3445 3.57309L16.7415 3.57405L16.8634 3.19629ZM15.181 3.19629L15.3029 3.57405L15.6999 3.57309L15.3783 3.80589L15.5016 4.18317L15.181 3.94941L14.8603 4.18317L14.9837 3.80589L14.6621 3.57309L15.0591 3.57405L15.181 3.19629ZM13.4981 3.19629L13.62 3.57405L14.017 3.57309L13.6954 3.80589L13.8187 4.18317L13.4981 3.94941L13.1775 4.18317L13.3008 3.80589L12.9792 3.57309L13.3762 3.57405L13.4981 3.19629ZM16.8634 4.81581L16.9853 5.19357L17.3823 5.19261L17.0607 5.42541L17.184 5.80269L16.8634 5.56893L16.5427 5.80269L16.6661 5.42541L16.3445 5.19261L16.7415 5.19357L16.8634 4.81581ZM15.181 4.81581L15.3029 5.19357L15.6999 5.19261L15.3783 5.42541L15.5016 5.80269L15.181 5.56893L14.8603 5.80269L14.9837 5.42541L14.6621 5.19261L15.0591 5.19357L15.181 4.81581ZM13.4981 4.81581L13.62 5.19357L14.017 5.19261L13.6954 5.42541L13.8187 5.80269L13.4981 5.56893L13.1775 5.80269L13.3008 5.42541L12.9792 5.19261L13.3762 5.19357L13.4981 4.81581ZM11.8157 4.81581L11.9376 5.19357L12.3346 5.19261L12.013 5.42541L12.1363 5.80269L11.8157 5.56893L11.4951 5.80269L11.6184 5.42541L11.2968 5.19261L11.6938 5.19357L11.8157 4.81581ZM16.8634 6.43581L16.9853 6.81357L17.3823 6.81261L17.0607 7.04541L17.184 7.42269L16.8634 7.18893L16.5427 7.42269L16.6661 7.04541L16.3445 6.81261L16.7415 6.81357L16.8634 6.43581ZM15.181 6.43581L15.3029 6.81357L15.6999 6.81261L15.3783 7.04541L15.5016 7.42269L15.181 7.18893L14.8603 7.42269L14.9837 7.04541L14.6621 6.81261L15.0591 6.81357L15.181 6.43581ZM13.4981 6.43581L13.62 6.81357L14.017 6.81261L13.6954 7.04541L13.8187 7.42269L13.4981 7.18893L13.1775 7.42269L13.3008 7.04541L12.9792 6.81261L13.3762 6.81357L13.4981 6.43581ZM11.8157 6.43581L11.9376 6.81357L12.3346 6.81261L12.013 7.04541L12.1363 7.42269L11.8157 7.18893L11.4951 7.42269L11.6184 7.04541L11.2968 6.81261L11.6938 6.81357L11.8157 6.43581Z" fill="var(--fill-0, white)"/>
</g>
<path id="Vector_7" fill-rule="evenodd" clip-rule="evenodd" d="M8.3982 2.00509C4.1742 2.53741 2.48412 4.59709 2.00508 8.39821C1.74924 10.4291 1.74924 13.5712 2.00508 15.6021C2.5374 19.8246 4.599 21.5166 8.3982 21.9952C10.4291 22.251 13.5712 22.251 15.602 21.9952C19.8241 21.4633 21.5166 19.4008 21.9952 15.6021C22.251 13.5712 22.251 10.4291 21.9952 8.39821C21.5166 4.59901 19.8246 2.53693 15.602 2.00509C13.5712 1.74925 10.4291 1.74925 8.3982 2.00509ZM8.17116 0.208453C10.3768 -0.0694672 13.6235 -0.0694672 15.8291 0.208453C20.9195 0.849733 23.2091 3.54877 23.7913 8.17069C24.0692 10.3763 24.0692 13.623 23.7913 15.8286C23.2091 20.4505 20.919 23.1496 15.8291 23.7909C13.6235 24.0688 10.3768 24.0688 8.17116 23.7909C3.54876 23.2091 0.8502 20.92 0.20844 15.8291C-0.06948 13.6235 -0.06948 10.3768 0.20844 8.17117C0.79164 3.54541 3.07644 0.850693 8.17116 0.208453Z" fill="var(--fill-0, #E2E8F0)"/>
</g>
</svg>
