<svg preserveAspectRatio="none" width="100%" height="100%" overflow="visible" style="display: block;" viewBox="0 0 23.9998 23.9993" fill="none" xmlns="http://www.w3.org/2000/svg">
<g id="Group">
<path id="Vector" fill-rule="evenodd" clip-rule="evenodd" d="M8.3982 2.00508C4.1742 2.5374 2.48412 4.59708 2.00508 8.3982C1.74924 10.4291 1.74924 13.5712 2.00508 15.602C2.5374 19.8246 4.599 21.5166 8.3982 21.9952C10.4291 22.251 13.5712 22.251 15.602 21.9952C19.8241 21.4633 21.5166 19.4008 21.9952 15.602C22.251 13.5712 22.251 10.4291 21.9952 8.3982C21.5166 4.599 19.8246 2.53692 15.602 2.00508C13.5712 1.74924 10.4291 1.74924 8.3982 2.00508ZM8.17116 0.208442C10.3768 -0.0694781 13.6235 -0.0694781 15.8291 0.208442C20.9195 0.849722 23.2091 3.54876 23.7913 8.17068C24.0692 10.3763 24.0692 13.623 23.7913 15.8286C23.2091 20.4505 20.919 23.1496 15.8291 23.7908C13.6235 24.0688 10.3768 24.0688 8.17116 23.7908C3.54876 23.2091 0.8502 20.92 0.20844 15.8291C-0.06948 13.6235 -0.06948 10.3768 0.20844 8.17116C0.79164 3.5454 3.07644 0.850682 8.17116 0.208442Z" fill="var(--fill-0, #E2E8F0)"/>
</g>
</svg>
