<svg preserveAspectRatio="none" width="100%" height="100%" overflow="visible" style="display: block;" viewBox="0 0 23.9999 23.9994" fill="none" xmlns="http://www.w3.org/2000/svg">
<g id="Group">
<g id="Group_2">
<path id="Vector" fill-rule="evenodd" clip-rule="evenodd" d="M22.5086 8.43494C22.3795 7.40294 22.1554 6.40118 21.7526 5.49158C21.1253 4.03046 19.9699 2.87558 18.5088 2.24774C16.6997 1.4471 14.5296 1.35062 12.4728 1.30982C12.1565 1.30358 11.844 1.30358 11.5277 1.30982C9.47087 1.35062 7.30079 1.4471 5.49167 2.24774C4.03103 2.8751 2.87567 4.03046 2.24831 5.49158C1.84559 6.40166 1.62095 7.40294 1.49231 8.43494H22.5086Z" fill="var(--fill-0, #F1F0F0)"/>
<path id="Vector_2" fill-rule="evenodd" clip-rule="evenodd" d="M22.6892 11.5274C22.669 10.505 22.6349 9.45522 22.5073 8.43522H1.49141C1.36421 9.45522 1.33013 10.5055 1.30949 11.5274C1.30325 11.8437 1.30325 12.1562 1.30949 12.4725C1.32965 13.4949 1.36373 14.5447 1.49141 15.5647H22.5077C22.6349 14.5447 22.669 13.4944 22.6897 12.4725C22.6959 12.1562 22.6959 11.8442 22.6892 11.5274Z" fill="var(--fill-0, #2057A7)"/>
<path id="Vector_3" fill-rule="evenodd" clip-rule="evenodd" d="M1.49231 15.5649C1.62143 16.5969 1.84559 17.5987 2.24831 18.5083C2.87423 19.9655 4.03247 21.1252 5.49215 21.7521C7.30127 22.5527 9.47135 22.6492 11.5282 22.69C11.6813 22.6929 11.8339 22.6948 11.9861 22.6948H12.0005H12.0154C12.1675 22.6948 12.3202 22.6934 12.4733 22.69C14.5301 22.6492 16.6997 22.5527 18.5093 21.7521C19.9704 21.1247 21.1253 19.9694 21.7531 18.5083C22.1558 17.5982 22.3805 16.5969 22.5091 15.5649H1.49231Z" fill="var(--fill-0, #EF4444)"/>
</g>
<path id="Vector_4" fill-rule="evenodd" clip-rule="evenodd" d="M8.3982 2.00508C4.1742 2.5374 2.48412 4.59708 2.00508 8.3982C1.74924 10.4291 1.74924 13.5712 2.00508 15.602C2.5374 19.8246 4.599 21.5166 8.3982 21.9952C10.4291 22.251 13.5712 22.251 15.602 21.9952C19.8241 21.4633 21.5166 19.4008 21.9952 15.602C22.251 13.5712 22.251 10.4291 21.9952 8.3982C21.5166 4.599 19.8246 2.53692 15.602 2.00508C13.5712 1.74924 10.4291 1.74924 8.3982 2.00508ZM8.17116 0.20844C10.3768 -0.06948 13.6235 -0.06948 15.8291 0.20844C20.9195 0.84972 23.2091 3.54876 23.7913 8.17068C24.0692 10.3763 24.0692 13.623 23.7913 15.8286C23.2091 20.4505 20.919 23.1496 15.8291 23.7908C13.6235 24.0688 10.3768 24.0688 8.17116 23.7908C3.54876 23.2091 0.8502 20.92 0.20844 15.8291C-0.06948 13.6235 -0.06948 10.3768 0.20844 8.17116C0.79164 3.5454 3.07644 0.85068 8.17116 0.20844Z" fill="var(--fill-0, #E2E8F0)"/>
</g>
</svg>
