<svg width="24" height="24" viewBox="0 0 24 24" fill="none" xmlns="http://www.w3.org/2000/svg">
  <g clip-path="url(#clip-uk-flag)">
    <g transform="translate(-1.545 1.83)">
      <path d="M0 17.5182V2.82552L1.69531 0H10.1719L13.5625 0.565104L16.9531 0H25.4297L27.125 2.82552V17.5182L25.4297 20.3437H16.9531L13.5625 19.7786L10.1719 20.3437H1.69531L0 17.5182Z" fill="#0053B5"/>
      <path d="M0 6.78122H27.125V13.5625H0V6.78122Z" fill="white"/>
      <path d="M0 7.91127H27.125V12.4321H0V7.91127Z" fill="#EF4444"/>
      <path d="M10.1709 0H16.9522V20.3437H10.1709V0Z" fill="white"/>
      <path d="M11.3014 0H15.8223V20.3437H11.3014V0Z" fill="#EF4444"/>
      <path d="M27.124 0H25.4287L16.9522 5.65104V7.34635L21.473 6.78125L27.124 2.82552V0Z" fill="white"/>
      <path d="M27.124 0L16.9522 6.78125H19.7777L27.124 1.69531V0Z" fill="#EF4444"/>
      <path d="M0 0H1.69531L10.1719 5.65104V7.34635L5.65104 6.78125L0 2.82552V0Z" fill="white"/>
      <path d="M0 0L10.1719 6.78125H7.34635L0 1.69531V0Z" fill="#EF4444"/>
      <path d="M0 20.3435H1.69531L10.1719 14.6925V12.9972L5.65104 13.5623L0 17.518V20.3435Z" fill="white"/>
      <path d="M0 20.3437L10.1719 13.5624H7.34635L0 18.6484V20.3437Z" fill="#EF4444"/>
      <path d="M27.124 20.3435H25.4287L16.9522 14.6925V12.9972L21.473 13.5623L27.124 17.518V20.3435Z" fill="white"/>
      <path d="M27.124 20.3437L16.9522 13.5624H19.7777L27.124 18.6484V20.3437Z" fill="#EF4444"/>
    </g>
  </g>
  <path fill-rule="evenodd" clip-rule="evenodd" d="M8.3982 2.00508C4.1742 2.5374 2.48412 4.59708 2.00508 8.3982C1.74924 10.4291 1.74924 13.5712 2.00508 15.602C2.5374 19.8246 4.599 21.5166 8.3982 21.9952C10.4291 22.251 13.5712 22.251 15.602 21.9952C19.8241 21.4633 21.5166 19.4008 21.9952 15.602C22.251 13.5712 22.251 10.4291 21.9952 8.3982C21.5166 4.599 19.8246 2.53692 15.602 2.00508C13.5712 1.74924 10.4291 1.74924 8.3982 2.00508ZM8.17116 0.208442C10.3768 -0.0694781 13.6235 -0.0694781 15.8291 0.208442C20.9195 0.849722 23.2091 3.54876 23.7913 8.17068C24.0692 10.3763 24.0692 13.623 23.7913 15.8286C23.2091 20.4505 20.919 23.1496 15.8291 23.7908C13.6235 24.0688 10.3768 24.0688 8.17116 23.7908C3.54876 23.2091 0.8502 20.92 0.20844 15.8291C-0.06948 13.6235 -0.06948 10.3768 0.20844 8.17116C0.79164 3.5454 3.07644 0.850682 8.17116 0.208442Z" fill="#E2E8F0"/>
  <defs>
    <clipPath id="clip-uk-flag">
      <rect x="1.45" y="1.83" width="21" height="20.344" rx="4.219"/>
    </clipPath>
  </defs>
</svg>
