<svg width="16" height="16" viewBox="0 0 16 16" fill="none" xmlns="http://www.w3.org/2000/svg">
<path d="M10.3708 9.69847L10.0671 10.0181C10.0671 10.0181 9.34542 10.778 7.37542 8.70393C5.40541 6.62989 6.12714 5.87005 6.12714 5.87005L6.31835 5.66874C6.78938 5.17283 6.83379 4.37664 6.42283 3.7954L5.58217 2.60641C5.07352 1.887 4.09064 1.79197 3.50763 2.40576L2.46123 3.50742C2.17215 3.81177 1.97843 4.2063 2.00193 4.64396C2.06202 5.76364 2.54048 8.1727 5.21024 10.9835C8.04143 13.9642 10.6979 14.0826 11.7842 13.9754C12.1278 13.9415 12.4266 13.7562 12.6674 13.5027L13.6144 12.5056C14.2537 11.8326 14.0735 10.6788 13.2556 10.208L11.9819 9.47488C11.4448 9.16576 10.7905 9.25656 10.3708 9.69847Z" fill="#00BFFF"/>
<path d="M8.8397 1.25338C8.88383 0.98079 9.14152 0.795874 9.41412 0.840006C9.43099 0.843236 9.48528 0.853383 9.51372 0.859718C9.57061 0.872386 9.64996 0.891892 9.7489 0.920709C9.94675 0.978338 10.2232 1.07327 10.5549 1.22536C11.2191 1.52987 12.103 2.06254 13.0202 2.97974C13.9374 3.89694 14.47 4.78081 14.7745 5.445C14.9266 5.77674 15.0216 6.05315 15.0792 6.251C15.108 6.34994 15.1275 6.42929 15.1402 6.48617C15.1465 6.51462 15.1511 6.53746 15.1544 6.55433L15.1582 6.57513C15.2023 6.84772 15.0191 7.11607 14.7465 7.1602C14.4747 7.2042 14.2186 7.02018 14.1734 6.74887C14.172 6.74159 14.1682 6.72201 14.1641 6.70355C14.1559 6.66663 14.1416 6.60808 14.1191 6.53065C14.074 6.37576 13.9956 6.14553 13.8655 5.86175C13.6056 5.29488 13.1383 4.51209 12.3131 3.68685C11.4878 2.8616 10.705 2.39427 10.1381 2.13439C9.85436 2.00428 9.62414 1.92593 9.46925 1.88081C9.39182 1.85826 9.29449 1.83592 9.25756 1.82769C8.98625 1.78248 8.79569 1.5252 8.8397 1.25338Z" fill="#00BFFF"/>
<path fill-rule="evenodd" clip-rule="evenodd" d="M8.99053 3.55303C9.06639 3.28751 9.34314 3.13376 9.60865 3.20963L9.47129 3.69039C9.60865 3.20963 9.60865 3.20963 9.60865 3.20963L9.60961 3.2099L9.61064 3.2102L9.61286 3.21085L9.61803 3.21239L9.63122 3.2165C9.64127 3.21971 9.65382 3.2239 9.66879 3.22921C9.69873 3.23983 9.7383 3.25494 9.78684 3.27575C9.88396 3.31737 10.0167 3.38165 10.1797 3.47812C10.506 3.67125 10.9514 3.99203 11.4748 4.51535C11.9981 5.03866 12.3189 5.48412 12.512 5.81043C12.6085 5.97344 12.6727 6.10615 12.7144 6.20327C12.7352 6.25181 12.7503 6.29138 12.7609 6.32132C12.7662 6.33629 12.7704 6.34884 12.7736 6.35889L12.7777 6.37208L12.7793 6.37725L12.7799 6.37947L12.7802 6.38049C12.7802 6.38049 12.7805 6.38145 12.2997 6.51882L12.7805 6.38145C12.8563 6.64697 12.7026 6.92372 12.4371 6.99958C12.1738 7.0748 11.8995 6.92429 11.8209 6.66292L11.8185 6.65573C11.8149 6.64571 11.8076 6.62599 11.7952 6.59719C11.7706 6.53963 11.7258 6.44548 11.6514 6.31975C11.5028 6.06859 11.2343 5.68909 10.7677 5.22245C10.301 4.75582 9.92152 4.48735 9.67036 4.3387C9.54463 4.26429 9.45048 4.21956 9.39292 4.19489C9.36412 4.18255 9.3444 4.17519 9.33438 4.17164L9.32719 4.16917C9.06582 4.09059 8.91531 3.81629 8.99053 3.55303Z" fill="#00BFFF"/>
</svg>
