<svg preserveAspectRatio="none" width="100%" height="100%" overflow="visible" style="display: block;" viewBox="0 0 18 18" fill="none" xmlns="http://www.w3.org/2000/svg">
<g id="apple">
<g id="BG 135" opacity="0.58">
</g>
<g id="Group">
<path id="Vector" fill-rule="evenodd" clip-rule="evenodd" d="M14.325 14.37C14.7675 13.695 14.9325 13.35 15.27 12.5925C12.78 11.6475 12.3825 8.09999 14.8425 6.74249C14.0925 5.79749 13.035 5.25 12.0375 5.25C11.3175 5.25 10.8225 5.43751 10.38 5.61001C10.005 5.75251 9.6675 5.88 9.2475 5.88C8.7975 5.88 8.4 5.73751 7.98 5.58751C7.5225 5.42251 7.0425 5.25 6.4425 5.25C5.325 5.25 4.1325 5.9325 3.375 7.1025C2.31 8.7525 2.4975 11.8425 4.215 14.4825C4.83 15.4275 5.655 16.485 6.7275 16.5C7.1775 16.5075 7.47 16.3725 7.7925 16.23C8.16 16.065 8.5575 15.885 9.255 15.885C9.9525 15.8775 10.3425 16.065 10.71 16.23C11.025 16.3725 11.31 16.5075 11.7525 16.5C12.84 16.485 13.71 15.315 14.325 14.37Z" fill="var(--fill-0, #1E1E1E)"/>
</g>
<path id="Vector_2" fill-rule="evenodd" clip-rule="evenodd" d="M11.88 1.5C12 2.325 11.6625 3.14251 11.22 3.71251C10.7475 4.32751 9.9225 4.8075 9.1275 4.7775C8.985 3.9825 9.3525 3.16499 9.8025 2.61749C10.305 2.01749 11.1525 1.5525 11.88 1.5Z" fill="var(--fill-0, #1E1E1E)"/>
<g id="Vector_3" opacity="0">
</g>
</g>
</svg>
