<svg preserveAspectRatio="none" width="100%" height="100%" overflow="visible" style="display: block;" viewBox="0 0 90.0007 90" fill="none" xmlns="http://www.w3.org/2000/svg">
<g id="Group">
<path id="Vector" d="M2.19512 0H0V2.19514H2.19512V0Z" fill="var(--fill-0, white)"/>
<path id="Vector_2" d="M2.19512 2.19527H0V4.3904H2.19512V2.19527Z" fill="var(--fill-0, white)"/>
<path id="Vector_3" d="M2.19512 4.38994H0V6.58508H2.19512V4.38994Z" fill="var(--fill-0, white)"/>
<path id="Vector_4" d="M2.19512 6.5852H0V8.7804H2.19512V6.5852Z" fill="var(--fill-0, white)"/>
<path id="Vector_5" d="M2.19512 8.78007H0V10.9753H2.19512V8.78007Z" fill="var(--fill-0, white)"/>
<path id="Vector_6" d="M2.19512 10.9756H0V13.1707H2.19512V10.9756Z" fill="var(--fill-0, white)"/>
<path id="Vector_7" d="M2.19512 13.171H0V15.3662H2.19512V13.171Z" fill="var(--fill-0, white)"/>
<path id="Vector_8" d="M2.19512 17.5601H0V19.7553H2.19512V17.5601Z" fill="var(--fill-0, white)"/>
<path id="Vector_9" d="M2.19512 21.9519H0V24.147H2.19512V21.9519Z" fill="var(--fill-0, white)"/>
<path id="Vector_10" d="M2.19512 24.1473H0V26.3424H2.19512V24.1473Z" fill="var(--fill-0, white)"/>
<path id="Vector_11" d="M2.19512 26.3426H0V28.5378H2.19512V26.3426Z" fill="var(--fill-0, white)"/>
<path id="Vector_12" d="M2.19512 28.5365H0V30.7316H2.19512V28.5365Z" fill="var(--fill-0, white)"/>
<path id="Vector_13" d="M2.19512 32.9268H0V35.122H2.19512V32.9268Z" fill="var(--fill-0, white)"/>
<path id="Vector_14" d="M2.19512 37.3182H0V39.5134H2.19512V37.3182Z" fill="var(--fill-0, white)"/>
<path id="Vector_15" d="M2.19512 43.9023H0V46.0975H2.19512V43.9023Z" fill="var(--fill-0, white)"/>
<path id="Vector_16" d="M2.19512 46.0977H0V48.2928H2.19512V46.0977Z" fill="var(--fill-0, white)"/>
<path id="Vector_17" d="M2.19512 52.6831H0V54.8782H2.19512V52.6831Z" fill="var(--fill-0, white)"/>
<path id="Vector_18" d="M2.19512 54.8785H0V57.0735H2.19512V54.8785Z" fill="var(--fill-0, white)"/>
<path id="Vector_19" d="M2.19512 57.0736H0V59.2684H2.19512V57.0736Z" fill="var(--fill-0, white)"/>
<path id="Vector_20" d="M2.19512 61.4643H0V63.6598H2.19512V61.4643Z" fill="var(--fill-0, white)"/>
<path id="Vector_21" d="M2.19512 74.6347H0V76.8301H2.19512V74.6347Z" fill="var(--fill-0, white)"/>
<path id="Vector_22" d="M2.19512 76.8296H0V79.025H2.19512V76.8296Z" fill="var(--fill-0, white)"/>
<path id="Vector_23" d="M2.19512 79.0251H0V81.2199H2.19512V79.0251Z" fill="var(--fill-0, white)"/>
<path id="Vector_24" d="M2.19512 81.2199H0V83.4153H2.19512V81.2199Z" fill="var(--fill-0, white)"/>
<path id="Vector_25" d="M2.19512 83.4145H0V85.6096H2.19512V83.4145Z" fill="var(--fill-0, white)"/>
<path id="Vector_26" d="M2.19512 85.6096H0V87.8048H2.19512V85.6096Z" fill="var(--fill-0, white)"/>
<path id="Vector_27" d="M2.19512 87.8048H0V90H2.19512V87.8048Z" fill="var(--fill-0, white)"/>
<path id="Vector_28" d="M4.39043 0H2.19531V2.19514H4.39043V0Z" fill="var(--fill-0, white)"/>
<path id="Vector_29" d="M4.39043 13.1714H2.19531V15.3666H4.39043V13.1714Z" fill="var(--fill-0, white)"/>
<path id="Vector_30" d="M4.39043 17.5601H2.19531V19.7552H4.39043V17.5601Z" fill="var(--fill-0, white)"/>
<path id="Vector_31" d="M4.39043 19.7573H2.19531V21.9525H4.39043V19.7573Z" fill="var(--fill-0, white)"/>
<path id="Vector_32" d="M4.39043 30.7319H2.19531V32.9271H4.39043V30.7319Z" fill="var(--fill-0, white)"/>
<path id="Vector_33" d="M4.39043 32.9268H2.19531V35.1219H4.39043V32.9268Z" fill="var(--fill-0, white)"/>
<path id="Vector_34" d="M4.39043 39.5127H2.19531V41.7078H4.39043V39.5127Z" fill="var(--fill-0, white)"/>
<path id="Vector_35" d="M4.39043 43.9023H2.19531V46.0975H4.39043V43.9023Z" fill="var(--fill-0, white)"/>
<path id="Vector_36" d="M4.39043 48.293H2.19531V50.4882H4.39043V48.293Z" fill="var(--fill-0, white)"/>
<path id="Vector_37" d="M4.39043 59.2695H2.19531V61.4645H4.39043V59.2695Z" fill="var(--fill-0, white)"/>
<path id="Vector_38" d="M4.39043 61.4644H2.19531V63.6599H4.39043V61.4644Z" fill="var(--fill-0, white)"/>
<path id="Vector_39" d="M4.39043 68.0493H2.19531V70.2443H4.39043V68.0493Z" fill="var(--fill-0, white)"/>
<path id="Vector_40" d="M4.39043 70.2441H2.19531V72.4391H4.39043V70.2441Z" fill="var(--fill-0, white)"/>
<path id="Vector_41" d="M4.39043 74.6348H2.19531V76.8302H4.39043V74.6348Z" fill="var(--fill-0, white)"/>
<path id="Vector_42" d="M4.39043 87.8047H2.19531V89.9999H4.39043V87.8047Z" fill="var(--fill-0, white)"/>
<path id="Vector_43" d="M6.58567 0H4.39054V2.19514H6.58567V0Z" fill="var(--fill-0, white)"/>
<path id="Vector_44" d="M6.58567 4.38994H4.39054V6.58508H6.58567V4.38994Z" fill="var(--fill-0, white)"/>
<path id="Vector_45" d="M6.58567 6.5852H4.39054V8.7804H6.58567V6.5852Z" fill="var(--fill-0, white)"/>
<path id="Vector_46" d="M6.58567 8.78007H4.39054V10.9753H6.58567V8.78007Z" fill="var(--fill-0, white)"/>
<path id="Vector_47" d="M6.58567 13.171H4.39054V15.3662H6.58567V13.171Z" fill="var(--fill-0, white)"/>
<path id="Vector_48" d="M6.58567 19.7572H4.39054V21.9524H6.58567V19.7572Z" fill="var(--fill-0, white)"/>
<path id="Vector_49" d="M6.58567 21.9519H4.39054V24.147H6.58567V21.9519Z" fill="var(--fill-0, white)"/>
<path id="Vector_50" d="M6.58567 24.1473H4.39054V26.3424H6.58567V24.1473Z" fill="var(--fill-0, white)"/>
<path id="Vector_51" d="M6.58567 26.3426H4.39054V28.5378H6.58567V26.3426Z" fill="var(--fill-0, white)"/>
<path id="Vector_52" d="M6.58567 28.5365H4.39054V30.7316H6.58567V28.5365Z" fill="var(--fill-0, white)"/>
<path id="Vector_53" d="M6.58567 37.3182H4.39054V39.5134H6.58567V37.3182Z" fill="var(--fill-0, white)"/>
<path id="Vector_54" d="M6.58567 39.5129H4.39054V41.708H6.58567V39.5129Z" fill="var(--fill-0, white)"/>
<path id="Vector_55" d="M6.58567 41.7069H4.39054V43.9021H6.58567V41.7069Z" fill="var(--fill-0, white)"/>
<path id="Vector_56" d="M6.58567 43.9023H4.39054V46.0975H6.58567V43.9023Z" fill="var(--fill-0, white)"/>
<path id="Vector_57" d="M6.58567 52.6831H4.39054V54.8782H6.58567V52.6831Z" fill="var(--fill-0, white)"/>
<path id="Vector_58" d="M6.58567 57.0736H4.39054V59.2684H6.58567V57.0736Z" fill="var(--fill-0, white)"/>
<path id="Vector_59" d="M6.58567 63.6592H4.39054V65.8541H6.58567V63.6592Z" fill="var(--fill-0, white)"/>
<path id="Vector_60" d="M6.58567 65.8541H4.39054V68.0489H6.58567V65.8541Z" fill="var(--fill-0, white)"/>
<path id="Vector_61" d="M6.58567 68.0495H4.39054V70.2444H6.58567V68.0495Z" fill="var(--fill-0, white)"/>
<path id="Vector_62" d="M6.58567 70.2444H4.39054V72.4393H6.58567V70.2444Z" fill="var(--fill-0, white)"/>
<path id="Vector_63" d="M6.58567 74.6347H4.39054V76.8301H6.58567V74.6347Z" fill="var(--fill-0, white)"/>
<path id="Vector_64" d="M6.58567 79.0251H4.39054V81.2199H6.58567V79.0251Z" fill="var(--fill-0, white)"/>
<path id="Vector_65" d="M6.58567 81.2199H4.39054V83.4153H6.58567V81.2199Z" fill="var(--fill-0, white)"/>
<path id="Vector_66" d="M6.58567 83.4145H4.39054V85.6096H6.58567V83.4145Z" fill="var(--fill-0, white)"/>
<path id="Vector_67" d="M6.58567 87.8048H4.39054V90H6.58567V87.8048Z" fill="var(--fill-0, white)"/>
<path id="Vector_68" d="M8.78112 0H6.58594V2.19514H8.78112V0Z" fill="var(--fill-0, white)"/>
<path id="Vector_69" d="M8.78112 4.39014H6.58594V6.58528H8.78112V4.39014Z" fill="var(--fill-0, white)"/>
<path id="Vector_70" d="M8.78112 6.58496H6.58594V8.78016H8.78112V6.58496Z" fill="var(--fill-0, white)"/>
<path id="Vector_71" d="M8.78112 8.78027H6.58594V10.9755H8.78112V8.78027Z" fill="var(--fill-0, white)"/>
<path id="Vector_72" d="M8.78112 13.1714H6.58594V15.3666H8.78112V13.1714Z" fill="var(--fill-0, white)"/>
<path id="Vector_73" d="M8.78112 19.7573H6.58594V21.9525H8.78112V19.7573Z" fill="var(--fill-0, white)"/>
<path id="Vector_74" d="M8.78112 21.9517H6.58594V24.1468H8.78112V21.9517Z" fill="var(--fill-0, white)"/>
<path id="Vector_75" d="M8.78112 37.3184H6.58594V39.5135H8.78112V37.3184Z" fill="var(--fill-0, white)"/>
<path id="Vector_76" d="M8.78112 43.9023H6.58594V46.0975H8.78112V43.9023Z" fill="var(--fill-0, white)"/>
<path id="Vector_77" d="M8.78112 46.0977H6.58594V48.2928H8.78112V46.0977Z" fill="var(--fill-0, white)"/>
<path id="Vector_78" d="M8.78112 48.293H6.58594V50.4882H8.78112V48.293Z" fill="var(--fill-0, white)"/>
<path id="Vector_79" d="M8.78112 52.6831H6.58594V54.8783H8.78112V52.6831Z" fill="var(--fill-0, white)"/>
<path id="Vector_80" d="M8.78112 54.8784H6.58594V57.0734H8.78112V54.8784Z" fill="var(--fill-0, white)"/>
<path id="Vector_81" d="M8.78112 57.0737H6.58594V59.2686H8.78112V57.0737Z" fill="var(--fill-0, white)"/>
<path id="Vector_82" d="M8.78112 61.4644H6.58594V63.6599H8.78112V61.4644Z" fill="var(--fill-0, white)"/>
<path id="Vector_83" d="M8.78112 65.854H6.58594V68.0489H8.78112V65.854Z" fill="var(--fill-0, white)"/>
<path id="Vector_84" d="M8.78112 68.0493H6.58594V70.2443H8.78112V68.0493Z" fill="var(--fill-0, white)"/>
<path id="Vector_85" d="M8.78112 70.2441H6.58594V72.4391H8.78112V70.2441Z" fill="var(--fill-0, white)"/>
<path id="Vector_86" d="M8.78112 74.6348H6.58594V76.8302H8.78112V74.6348Z" fill="var(--fill-0, white)"/>
<path id="Vector_87" d="M8.78112 79.0249H6.58594V81.2198H8.78112V79.0249Z" fill="var(--fill-0, white)"/>
<path id="Vector_88" d="M8.78112 81.2197H6.58594V83.4151H8.78112V81.2197Z" fill="var(--fill-0, white)"/>
<path id="Vector_89" d="M8.78112 83.4146H6.58594V85.6097H8.78112V83.4146Z" fill="var(--fill-0, white)"/>
<path id="Vector_90" d="M8.78112 87.8047H6.58594V89.9999H8.78112V87.8047Z" fill="var(--fill-0, white)"/>
<path id="Vector_91" d="M10.9734 0H8.77832V2.19514H10.9734V0Z" fill="var(--fill-0, white)"/>
<path id="Vector_92" d="M10.9734 4.39014H8.77832V6.58528H10.9734V4.39014Z" fill="var(--fill-0, white)"/>
<path id="Vector_93" d="M10.9734 6.58496H8.77832V8.78016H10.9734V6.58496Z" fill="var(--fill-0, white)"/>
<path id="Vector_94" d="M10.9734 8.78027H8.77832V10.9755H10.9734V8.78027Z" fill="var(--fill-0, white)"/>
<path id="Vector_95" d="M10.9734 13.1709H8.77832V15.3661H10.9734V13.1709Z" fill="var(--fill-0, white)"/>
<path id="Vector_96" d="M10.9734 19.7573H8.77832V21.9525H10.9734V19.7573Z" fill="var(--fill-0, white)"/>
<path id="Vector_97" d="M10.9734 21.9517H8.77832V24.1468H10.9734V21.9517Z" fill="var(--fill-0, white)"/>
<path id="Vector_98" d="M10.9734 26.3428H8.77832V28.538H10.9734V26.3428Z" fill="var(--fill-0, white)"/>
<path id="Vector_99" d="M10.9734 28.5366H8.77832V30.7317H10.9734V28.5366Z" fill="var(--fill-0, white)"/>
<path id="Vector_100" d="M10.9734 30.7319H8.77832V32.9271H10.9734V30.7319Z" fill="var(--fill-0, white)"/>
<path id="Vector_101" d="M10.9734 37.3184H8.77832V39.5135H10.9734V37.3184Z" fill="var(--fill-0, white)"/>
<path id="Vector_102" d="M10.9734 39.5127H8.77832V41.7078H10.9734V39.5127Z" fill="var(--fill-0, white)"/>
<path id="Vector_103" d="M10.9734 43.9023H8.77832V46.0975H10.9734V43.9023Z" fill="var(--fill-0, white)"/>
<path id="Vector_104" d="M10.9734 46.0977H8.77832V48.2928H10.9734V46.0977Z" fill="var(--fill-0, white)"/>
<path id="Vector_105" d="M10.9734 48.293H8.77832V50.4882H10.9734V48.293Z" fill="var(--fill-0, white)"/>
<path id="Vector_106" d="M10.9734 50.4878H8.77832V52.6829H10.9734V50.4878Z" fill="var(--fill-0, white)"/>
<path id="Vector_107" d="M10.9734 52.6831H8.77832V54.8783H10.9734V52.6831Z" fill="var(--fill-0, white)"/>
<path id="Vector_108" d="M10.9734 54.8784H8.77832V57.0734H10.9734V54.8784Z" fill="var(--fill-0, white)"/>
<path id="Vector_109" d="M10.9734 59.2695H8.77832V61.4645H10.9734V59.2695Z" fill="var(--fill-0, white)"/>
<path id="Vector_110" d="M10.9734 65.854H8.77832V68.0489H10.9734V65.854Z" fill="var(--fill-0, white)"/>
<path id="Vector_111" d="M10.9734 68.0493H8.77832V70.2443H10.9734V68.0493Z" fill="var(--fill-0, white)"/>
<path id="Vector_112" d="M10.9734 74.6348H8.77832V76.8302H10.9734V74.6348Z" fill="var(--fill-0, white)"/>
<path id="Vector_113" d="M10.9734 79.0249H8.77832V81.2198H10.9734V79.0249Z" fill="var(--fill-0, white)"/>
<path id="Vector_114" d="M10.9734 81.2197H8.77832V83.4151H10.9734V81.2197Z" fill="var(--fill-0, white)"/>
<path id="Vector_115" d="M10.9734 83.4146H8.77832V85.6097H10.9734V83.4146Z" fill="var(--fill-0, white)"/>
<path id="Vector_116" d="M10.9734 87.8047H8.77832V89.9999H10.9734V87.8047Z" fill="var(--fill-0, white)"/>
<path id="Vector_117" d="M13.1718 0H10.9767V2.19514H13.1718V0Z" fill="var(--fill-0, white)"/>
<path id="Vector_118" d="M13.1718 13.171H10.9767V15.3662H13.1718V13.171Z" fill="var(--fill-0, white)"/>
<path id="Vector_119" d="M13.1718 17.5601H10.9767V19.7553H13.1718V17.5601Z" fill="var(--fill-0, white)"/>
<path id="Vector_120" d="M13.1718 21.9519H10.9767V24.147H13.1718V21.9519Z" fill="var(--fill-0, white)"/>
<path id="Vector_121" d="M13.1718 24.1473H10.9767V26.3424H13.1718V24.1473Z" fill="var(--fill-0, white)"/>
<path id="Vector_122" d="M13.1718 26.3426H10.9767V28.5378H13.1718V26.3426Z" fill="var(--fill-0, white)"/>
<path id="Vector_123" d="M13.1718 28.5365H10.9767V30.7316H13.1718V28.5365Z" fill="var(--fill-0, white)"/>
<path id="Vector_124" d="M13.1718 32.9268H10.9767V35.122H13.1718V32.9268Z" fill="var(--fill-0, white)"/>
<path id="Vector_125" d="M13.1718 35.1223H10.9767V37.3174H13.1718V35.1223Z" fill="var(--fill-0, white)"/>
<path id="Vector_126" d="M13.1718 37.3182H10.9767V39.5134H13.1718V37.3182Z" fill="var(--fill-0, white)"/>
<path id="Vector_127" d="M13.1718 41.7069H10.9767V43.9021H13.1718V41.7069Z" fill="var(--fill-0, white)"/>
<path id="Vector_128" d="M13.1718 43.9023H10.9767V46.0975H13.1718V43.9023Z" fill="var(--fill-0, white)"/>
<path id="Vector_129" d="M13.1718 50.4878H10.9767V52.6829H13.1718V50.4878Z" fill="var(--fill-0, white)"/>
<path id="Vector_130" d="M13.1718 54.8785H10.9767V57.0735H13.1718V54.8785Z" fill="var(--fill-0, white)"/>
<path id="Vector_131" d="M13.1718 57.0736H10.9767V59.2684H13.1718V57.0736Z" fill="var(--fill-0, white)"/>
<path id="Vector_132" d="M13.1718 59.2694H10.9767V61.4644H13.1718V59.2694Z" fill="var(--fill-0, white)"/>
<path id="Vector_133" d="M13.1718 61.4643H10.9767V63.6598H13.1718V61.4643Z" fill="var(--fill-0, white)"/>
<path id="Vector_134" d="M13.1718 65.8541H10.9767V68.0489H13.1718V65.8541Z" fill="var(--fill-0, white)"/>
<path id="Vector_135" d="M13.1718 68.0495H10.9767V70.2444H13.1718V68.0495Z" fill="var(--fill-0, white)"/>
<path id="Vector_136" d="M13.1718 74.6347H10.9767V76.8301H13.1718V74.6347Z" fill="var(--fill-0, white)"/>
<path id="Vector_137" d="M13.1718 87.8048H10.9767V90H13.1718V87.8048Z" fill="var(--fill-0, white)"/>
<path id="Vector_138" d="M15.364 0H13.1689V2.19514H15.364V0Z" fill="var(--fill-0, white)"/>
<path id="Vector_139" d="M15.364 2.19531H13.1689V4.39045H15.364V2.19531Z" fill="var(--fill-0, white)"/>
<path id="Vector_140" d="M15.364 4.39014H13.1689V6.58528H15.364V4.39014Z" fill="var(--fill-0, white)"/>
<path id="Vector_141" d="M15.364 6.58496H13.1689V8.78016H15.364V6.58496Z" fill="var(--fill-0, white)"/>
<path id="Vector_142" d="M15.364 8.78027H13.1689V10.9755H15.364V8.78027Z" fill="var(--fill-0, white)"/>
<path id="Vector_143" d="M15.364 10.9756H13.1689V13.1707H15.364V10.9756Z" fill="var(--fill-0, white)"/>
<path id="Vector_144" d="M15.364 13.1714H13.1689V15.3666H15.364V13.1714Z" fill="var(--fill-0, white)"/>
<path id="Vector_145" d="M15.364 17.5601H13.1689V19.7552H15.364V17.5601Z" fill="var(--fill-0, white)"/>
<path id="Vector_146" d="M15.364 21.9517H13.1689V24.1468H15.364V21.9517Z" fill="var(--fill-0, white)"/>
<path id="Vector_147" d="M15.364 26.3428H13.1689V28.538H15.364V26.3428Z" fill="var(--fill-0, white)"/>
<path id="Vector_148" d="M15.364 30.7319H13.1689V32.9271H15.364V30.7319Z" fill="var(--fill-0, white)"/>
<path id="Vector_149" d="M15.364 35.1221H13.1689V37.3173H15.364V35.1221Z" fill="var(--fill-0, white)"/>
<path id="Vector_150" d="M15.364 39.5127H13.1689V41.7078H15.364V39.5127Z" fill="var(--fill-0, white)"/>
<path id="Vector_151" d="M15.364 43.9023H13.1689V46.0975H15.364V43.9023Z" fill="var(--fill-0, white)"/>
<path id="Vector_152" d="M15.364 48.293H13.1689V50.4882H15.364V48.293Z" fill="var(--fill-0, white)"/>
<path id="Vector_153" d="M15.364 52.6831H13.1689V54.8783H15.364V52.6831Z" fill="var(--fill-0, white)"/>
<path id="Vector_154" d="M15.364 57.0737H13.1689V59.2686H15.364V57.0737Z" fill="var(--fill-0, white)"/>
<path id="Vector_155" d="M15.364 61.4644H13.1689V63.6599H15.364V61.4644Z" fill="var(--fill-0, white)"/>
<path id="Vector_156" d="M15.364 65.854H13.1689V68.0489H15.364V65.854Z" fill="var(--fill-0, white)"/>
<path id="Vector_157" d="M15.364 70.2441H13.1689V72.4391H15.364V70.2441Z" fill="var(--fill-0, white)"/>
<path id="Vector_158" d="M15.364 74.6348H13.1689V76.8302H15.364V74.6348Z" fill="var(--fill-0, white)"/>
<path id="Vector_159" d="M15.364 76.8296H13.1689V79.025H15.364V76.8296Z" fill="var(--fill-0, white)"/>
<path id="Vector_160" d="M15.364 79.0249H13.1689V81.2198H15.364V79.0249Z" fill="var(--fill-0, white)"/>
<path id="Vector_161" d="M15.364 81.2197H13.1689V83.4151H15.364V81.2197Z" fill="var(--fill-0, white)"/>
<path id="Vector_162" d="M15.364 83.4146H13.1689V85.6097H15.364V83.4146Z" fill="var(--fill-0, white)"/>
<path id="Vector_163" d="M15.364 85.6099H13.1689V87.805H15.364V85.6099Z" fill="var(--fill-0, white)"/>
<path id="Vector_164" d="M15.364 87.8047H13.1689V89.9999H15.364V87.8047Z" fill="var(--fill-0, white)"/>
<path id="Vector_165" d="M17.5603 17.5601H15.3652V19.7552H17.5603V17.5601Z" fill="var(--fill-0, white)"/>
<path id="Vector_166" d="M17.5603 19.7573H15.3652V21.9525H17.5603V19.7573Z" fill="var(--fill-0, white)"/>
<path id="Vector_167" d="M17.5603 26.3428H15.3652V28.538H17.5603V26.3428Z" fill="var(--fill-0, white)"/>
<path id="Vector_168" d="M17.5603 28.5366H15.3652V30.7317H17.5603V28.5366Z" fill="var(--fill-0, white)"/>
<path id="Vector_169" d="M17.5603 32.9268H15.3652V35.1219H17.5603V32.9268Z" fill="var(--fill-0, white)"/>
<path id="Vector_170" d="M17.5603 37.3184H15.3652V39.5135H17.5603V37.3184Z" fill="var(--fill-0, white)"/>
<path id="Vector_171" d="M17.5603 39.5127H15.3652V41.7078H17.5603V39.5127Z" fill="var(--fill-0, white)"/>
<path id="Vector_172" d="M17.5603 43.9023H15.3652V46.0975H17.5603V43.9023Z" fill="var(--fill-0, white)"/>
<path id="Vector_173" d="M17.5603 46.0977H15.3652V48.2928H17.5603V46.0977Z" fill="var(--fill-0, white)"/>
<path id="Vector_174" d="M17.5603 48.293H15.3652V50.4882H17.5603V48.293Z" fill="var(--fill-0, white)"/>
<path id="Vector_175" d="M17.5603 57.0737H15.3652V59.2686H17.5603V57.0737Z" fill="var(--fill-0, white)"/>
<path id="Vector_176" d="M17.5603 61.4644H15.3652V63.6599H17.5603V61.4644Z" fill="var(--fill-0, white)"/>
<path id="Vector_177" d="M17.5603 63.6592H15.3652V65.854H17.5603V63.6592Z" fill="var(--fill-0, white)"/>
<path id="Vector_178" d="M17.5603 65.854H15.3652V68.0489H17.5603V65.854Z" fill="var(--fill-0, white)"/>
<path id="Vector_179" d="M19.7557 6.5852H17.5606V8.7804H19.7557V6.5852Z" fill="var(--fill-0, white)"/>
<path id="Vector_180" d="M19.7557 8.78007H17.5606V10.9753H19.7557V8.78007Z" fill="var(--fill-0, white)"/>
<path id="Vector_181" d="M19.7557 13.1712H17.5606V15.3664H19.7557V13.1712Z" fill="var(--fill-0, white)"/>
<path id="Vector_182" d="M19.7557 21.9519H17.5606V24.147H19.7557V21.9519Z" fill="var(--fill-0, white)"/>
<path id="Vector_183" d="M19.7557 28.5365H17.5606V30.7316H19.7557V28.5365Z" fill="var(--fill-0, white)"/>
<path id="Vector_184" d="M19.7557 30.7321H17.5606V32.9273H19.7557V30.7321Z" fill="var(--fill-0, white)"/>
<path id="Vector_185" d="M19.7557 32.9268H17.5606V35.122H19.7557V32.9268Z" fill="var(--fill-0, white)"/>
<path id="Vector_186" d="M19.7557 35.1223H17.5606V37.3174H19.7557V35.1223Z" fill="var(--fill-0, white)"/>
<path id="Vector_187" d="M19.7557 37.3182H17.5606V39.5134H19.7557V37.3182Z" fill="var(--fill-0, white)"/>
<path id="Vector_188" d="M19.7557 41.7069H17.5606V43.9021H19.7557V41.7069Z" fill="var(--fill-0, white)"/>
<path id="Vector_189" d="M19.7557 52.6831H17.5606V54.8782H19.7557V52.6831Z" fill="var(--fill-0, white)"/>
<path id="Vector_190" d="M19.7557 54.8785H17.5606V57.0735H19.7557V54.8785Z" fill="var(--fill-0, white)"/>
<path id="Vector_191" d="M19.7557 61.4643H17.5606V63.6598H19.7557V61.4643Z" fill="var(--fill-0, white)"/>
<path id="Vector_192" d="M19.7557 63.6592H17.5606V65.8541H19.7557V63.6592Z" fill="var(--fill-0, white)"/>
<path id="Vector_193" d="M19.7557 65.8541H17.5606V68.0489H19.7557V65.8541Z" fill="var(--fill-0, white)"/>
<path id="Vector_194" d="M19.7557 68.0495H17.5606V70.2444H19.7557V68.0495Z" fill="var(--fill-0, white)"/>
<path id="Vector_195" d="M19.7557 72.4393H17.5606V74.6341H19.7557V72.4393Z" fill="var(--fill-0, white)"/>
<path id="Vector_196" d="M19.7557 74.6347H17.5606V76.8301H19.7557V74.6347Z" fill="var(--fill-0, white)"/>
<path id="Vector_197" d="M19.7557 76.8296H17.5606V79.025H19.7557V76.8296Z" fill="var(--fill-0, white)"/>
<path id="Vector_198" d="M19.7557 85.6096H17.5606V87.8048H19.7557V85.6096Z" fill="var(--fill-0, white)"/>
<path id="Vector_199" d="M19.7557 87.8048H17.5606V90H19.7557V87.8048Z" fill="var(--fill-0, white)"/>
<path id="Vector_200" d="M21.951 0H19.7559V2.19514H21.951V0Z" fill="var(--fill-0, white)"/>
<path id="Vector_201" d="M21.951 2.19531H19.7559V4.39045H21.951V2.19531Z" fill="var(--fill-0, white)"/>
<path id="Vector_202" d="M21.951 4.39014H19.7559V6.58528H21.951V4.39014Z" fill="var(--fill-0, white)"/>
<path id="Vector_203" d="M21.951 6.58496H19.7559V8.78016H21.951V6.58496Z" fill="var(--fill-0, white)"/>
<path id="Vector_204" d="M21.951 8.78027H19.7559V10.9755H21.951V8.78027Z" fill="var(--fill-0, white)"/>
<path id="Vector_205" d="M21.951 15.3662H19.7559V17.5614H21.951V15.3662Z" fill="var(--fill-0, white)"/>
<path id="Vector_206" d="M21.951 24.1475H19.7559V26.3426H21.951V24.1475Z" fill="var(--fill-0, white)"/>
<path id="Vector_207" d="M21.951 28.5366H19.7559V30.7317H21.951V28.5366Z" fill="var(--fill-0, white)"/>
<path id="Vector_208" d="M21.951 30.7319H19.7559V32.9271H21.951V30.7319Z" fill="var(--fill-0, white)"/>
<path id="Vector_209" d="M21.951 41.707H19.7559V43.9022H21.951V41.707Z" fill="var(--fill-0, white)"/>
<path id="Vector_210" d="M21.951 43.9023H19.7559V46.0975H21.951V43.9023Z" fill="var(--fill-0, white)"/>
<path id="Vector_211" d="M21.951 50.4878H19.7559V52.6829H21.951V50.4878Z" fill="var(--fill-0, white)"/>
<path id="Vector_212" d="M21.951 54.8784H19.7559V57.0734H21.951V54.8784Z" fill="var(--fill-0, white)"/>
<path id="Vector_213" d="M21.951 61.4644H19.7559V63.6599H21.951V61.4644Z" fill="var(--fill-0, white)"/>
<path id="Vector_214" d="M21.951 65.854H19.7559V68.0489H21.951V65.854Z" fill="var(--fill-0, white)"/>
<path id="Vector_215" d="M21.951 83.4146H19.7559V85.6097H21.951V83.4146Z" fill="var(--fill-0, white)"/>
<path id="Vector_216" d="M21.951 87.8047H19.7559V89.9999H21.951V87.8047Z" fill="var(--fill-0, white)"/>
<path id="Vector_217" d="M24.1463 0H21.9511V2.19514H24.1463V0Z" fill="var(--fill-0, white)"/>
<path id="Vector_218" d="M24.1463 2.19527H21.9511V4.3904H24.1463V2.19527Z" fill="var(--fill-0, white)"/>
<path id="Vector_219" d="M24.1463 4.38994H21.9511V6.58508H24.1463V4.38994Z" fill="var(--fill-0, white)"/>
<path id="Vector_220" d="M24.1463 6.5852H21.9511V8.7804H24.1463V6.5852Z" fill="var(--fill-0, white)"/>
<path id="Vector_221" d="M24.1463 13.1712H21.9511V15.3664H24.1463V13.1712Z" fill="var(--fill-0, white)"/>
<path id="Vector_222" d="M24.1463 17.5601H21.9511V19.7553H24.1463V17.5601Z" fill="var(--fill-0, white)"/>
<path id="Vector_223" d="M24.1463 19.7572H21.9511V21.9524H24.1463V19.7572Z" fill="var(--fill-0, white)"/>
<path id="Vector_224" d="M24.1463 21.9519H21.9511V24.147H24.1463V21.9519Z" fill="var(--fill-0, white)"/>
<path id="Vector_225" d="M24.1463 26.3426H21.9511V28.5378H24.1463V26.3426Z" fill="var(--fill-0, white)"/>
<path id="Vector_226" d="M24.1463 30.7321H21.9511V32.9273H24.1463V30.7321Z" fill="var(--fill-0, white)"/>
<path id="Vector_227" d="M24.1463 32.9268H21.9511V35.122H24.1463V32.9268Z" fill="var(--fill-0, white)"/>
<path id="Vector_228" d="M24.1463 35.1223H21.9511V37.3174H24.1463V35.1223Z" fill="var(--fill-0, white)"/>
<path id="Vector_229" d="M24.1463 37.3182H21.9511V39.5134H24.1463V37.3182Z" fill="var(--fill-0, white)"/>
<path id="Vector_230" d="M24.1463 39.5129H21.9511V41.708H24.1463V39.5129Z" fill="var(--fill-0, white)"/>
<path id="Vector_231" d="M24.1463 41.7069H21.9511V43.9021H24.1463V41.7069Z" fill="var(--fill-0, white)"/>
<path id="Vector_232" d="M24.1463 43.9023H21.9511V46.0975H24.1463V43.9023Z" fill="var(--fill-0, white)"/>
<path id="Vector_233" d="M24.1463 50.4878H21.9511V52.6829H24.1463V50.4878Z" fill="var(--fill-0, white)"/>
<path id="Vector_234" d="M24.1463 54.8785H21.9511V57.0735H24.1463V54.8785Z" fill="var(--fill-0, white)"/>
<path id="Vector_235" d="M24.1463 57.0736H21.9511V59.2684H24.1463V57.0736Z" fill="var(--fill-0, white)"/>
<path id="Vector_236" d="M24.1463 59.2694H21.9511V61.4644H24.1463V59.2694Z" fill="var(--fill-0, white)"/>
<path id="Vector_237" d="M24.1463 72.4393H21.9511V74.6341H24.1463V72.4393Z" fill="var(--fill-0, white)"/>
<path id="Vector_238" d="M24.1463 74.6347H21.9511V76.8301H24.1463V74.6347Z" fill="var(--fill-0, white)"/>
<path id="Vector_239" d="M24.1463 76.8296H21.9511V79.025H24.1463V76.8296Z" fill="var(--fill-0, white)"/>
<path id="Vector_240" d="M24.1463 83.4145H21.9511V85.6096H24.1463V83.4145Z" fill="var(--fill-0, white)"/>
<path id="Vector_241" d="M24.1463 85.6096H21.9511V87.8048H24.1463V85.6096Z" fill="var(--fill-0, white)"/>
<path id="Vector_242" d="M24.1463 87.8048H21.9511V90H24.1463V87.8048Z" fill="var(--fill-0, white)"/>
<path id="Vector_243" d="M26.3417 0H24.1465V2.19514H26.3417V0Z" fill="var(--fill-0, white)"/>
<path id="Vector_244" d="M26.3417 8.78027H24.1465V10.9755H26.3417V8.78027Z" fill="var(--fill-0, white)"/>
<path id="Vector_245" d="M26.3417 10.9756H24.1465V13.1707H26.3417V10.9756Z" fill="var(--fill-0, white)"/>
<path id="Vector_246" d="M26.3417 24.147H24.1465V26.3421H26.3417V24.147Z" fill="var(--fill-0, white)"/>
<path id="Vector_247" d="M26.3417 26.3428H24.1465V28.538H26.3417V26.3428Z" fill="var(--fill-0, white)"/>
<path id="Vector_248" d="M26.3417 30.7319H24.1465V32.9271H26.3417V30.7319Z" fill="var(--fill-0, white)"/>
<path id="Vector_249" d="M26.3417 32.9268H24.1465V35.1219H26.3417V32.9268Z" fill="var(--fill-0, white)"/>
<path id="Vector_250" d="M26.3417 35.1221H24.1465V37.3173H26.3417V35.1221Z" fill="var(--fill-0, white)"/>
<path id="Vector_251" d="M26.3417 37.3184H24.1465V39.5135H26.3417V37.3184Z" fill="var(--fill-0, white)"/>
<path id="Vector_252" d="M26.3417 39.5127H24.1465V41.7078H26.3417V39.5127Z" fill="var(--fill-0, white)"/>
<path id="Vector_253" d="M26.3417 43.9023H24.1465V46.0975H26.3417V43.9023Z" fill="var(--fill-0, white)"/>
<path id="Vector_254" d="M26.3417 52.6831H24.1465V54.8783H26.3417V52.6831Z" fill="var(--fill-0, white)"/>
<path id="Vector_255" d="M26.3417 54.8784H24.1465V57.0734H26.3417V54.8784Z" fill="var(--fill-0, white)"/>
<path id="Vector_256" d="M26.3417 68.0493H24.1465V70.2443H26.3417V68.0493Z" fill="var(--fill-0, white)"/>
<path id="Vector_257" d="M26.3417 70.2441H24.1465V72.4391H26.3417V70.2441Z" fill="var(--fill-0, white)"/>
<path id="Vector_258" d="M26.3417 72.4395H24.1465V74.6343H26.3417V72.4395Z" fill="var(--fill-0, white)"/>
<path id="Vector_259" d="M26.3417 79.0249H24.1465V81.2198H26.3417V79.0249Z" fill="var(--fill-0, white)"/>
<path id="Vector_260" d="M26.3417 85.6099H24.1465V87.805H26.3417V85.6099Z" fill="var(--fill-0, white)"/>
<path id="Vector_261" d="M26.3417 87.8047H24.1465V89.9999H26.3417V87.8047Z" fill="var(--fill-0, white)"/>
<path id="Vector_262" d="M28.5367 4.38994H26.3416V6.58508H28.5367V4.38994Z" fill="var(--fill-0, white)"/>
<path id="Vector_263" d="M28.5367 10.9756H26.3416V13.1707H28.5367V10.9756Z" fill="var(--fill-0, white)"/>
<path id="Vector_264" d="M28.5367 13.171H26.3416V15.3662H28.5367V13.171Z" fill="var(--fill-0, white)"/>
<path id="Vector_265" d="M28.5367 17.5601H26.3416V19.7553H28.5367V17.5601Z" fill="var(--fill-0, white)"/>
<path id="Vector_266" d="M28.5367 21.9519H26.3416V24.147H28.5367V21.9519Z" fill="var(--fill-0, white)"/>
<path id="Vector_267" d="M28.5367 26.3426H26.3416V28.5378H28.5367V26.3426Z" fill="var(--fill-0, white)"/>
<path id="Vector_268" d="M28.5367 30.7321H26.3416V32.9273H28.5367V30.7321Z" fill="var(--fill-0, white)"/>
<path id="Vector_269" d="M28.5367 35.1223H26.3416V37.3174H28.5367V35.1223Z" fill="var(--fill-0, white)"/>
<path id="Vector_270" d="M28.5367 39.5129H26.3416V41.708H28.5367V39.5129Z" fill="var(--fill-0, white)"/>
<path id="Vector_271" d="M28.5367 41.7069H26.3416V43.9021H28.5367V41.7069Z" fill="var(--fill-0, white)"/>
<path id="Vector_272" d="M28.5367 46.0977H26.3416V48.2928H28.5367V46.0977Z" fill="var(--fill-0, white)"/>
<path id="Vector_273" d="M28.5367 50.4878H26.3416V52.6829H28.5367V50.4878Z" fill="var(--fill-0, white)"/>
<path id="Vector_274" d="M28.5367 59.2694H26.3416V61.4644H28.5367V59.2694Z" fill="var(--fill-0, white)"/>
<path id="Vector_275" d="M28.5367 61.4643H26.3416V63.6598H28.5367V61.4643Z" fill="var(--fill-0, white)"/>
<path id="Vector_276" d="M28.5367 65.8541H26.3416V68.0489H28.5367V65.8541Z" fill="var(--fill-0, white)"/>
<path id="Vector_277" d="M28.5367 70.2444H26.3416V72.4393H28.5367V70.2444Z" fill="var(--fill-0, white)"/>
<path id="Vector_278" d="M28.5367 74.6347H26.3416V76.8301H28.5367V74.6347Z" fill="var(--fill-0, white)"/>
<path id="Vector_279" d="M28.5367 79.0251H26.3416V81.2199H28.5367V79.0251Z" fill="var(--fill-0, white)"/>
<path id="Vector_280" d="M28.5367 81.2199H26.3416V83.4153H28.5367V81.2199Z" fill="var(--fill-0, white)"/>
<path id="Vector_281" d="M30.7325 6.5852H28.5373V8.7804H30.7325V6.5852Z" fill="var(--fill-0, white)"/>
<path id="Vector_282" d="M30.7325 17.5601H28.5373V19.7553H30.7325V17.5601Z" fill="var(--fill-0, white)"/>
<path id="Vector_283" d="M30.7325 28.5365H28.5373V30.7316H30.7325V28.5365Z" fill="var(--fill-0, white)"/>
<path id="Vector_284" d="M30.7325 30.7321H28.5373V32.9273H30.7325V30.7321Z" fill="var(--fill-0, white)"/>
<path id="Vector_285" d="M30.7325 35.1223H28.5373V37.3174H30.7325V35.1223Z" fill="var(--fill-0, white)"/>
<path id="Vector_286" d="M30.7325 43.9023H28.5373V46.0975H30.7325V43.9023Z" fill="var(--fill-0, white)"/>
<path id="Vector_287" d="M30.7325 54.8785H28.5373V57.0735H30.7325V54.8785Z" fill="var(--fill-0, white)"/>
<path id="Vector_288" d="M30.7325 57.0736H28.5373V59.2684H30.7325V57.0736Z" fill="var(--fill-0, white)"/>
<path id="Vector_289" d="M30.7325 61.4643H28.5373V63.6598H30.7325V61.4643Z" fill="var(--fill-0, white)"/>
<path id="Vector_290" d="M30.7325 65.8541H28.5373V68.0489H30.7325V65.8541Z" fill="var(--fill-0, white)"/>
<path id="Vector_291" d="M30.7325 70.2444H28.5373V72.4393H30.7325V70.2444Z" fill="var(--fill-0, white)"/>
<path id="Vector_292" d="M30.7325 72.4393H28.5373V74.6341H30.7325V72.4393Z" fill="var(--fill-0, white)"/>
<path id="Vector_293" d="M30.7325 81.2199H28.5373V83.4153H30.7325V81.2199Z" fill="var(--fill-0, white)"/>
<path id="Vector_294" d="M30.7325 87.8048H28.5373V90H30.7325V87.8048Z" fill="var(--fill-0, white)"/>
<path id="Vector_295" d="M32.9286 0H30.7334V2.19514H32.9286V0Z" fill="var(--fill-0, white)"/>
<path id="Vector_296" d="M32.9286 2.19531H30.7334V4.39045H32.9286V2.19531Z" fill="var(--fill-0, white)"/>
<path id="Vector_297" d="M32.9286 4.39014H30.7334V6.58528H32.9286V4.39014Z" fill="var(--fill-0, white)"/>
<path id="Vector_298" d="M32.9286 8.78027H30.7334V10.9755H32.9286V8.78027Z" fill="var(--fill-0, white)"/>
<path id="Vector_299" d="M32.9286 13.1709H30.7334V15.3661H32.9286V13.1709Z" fill="var(--fill-0, white)"/>
<path id="Vector_300" d="M32.9286 15.3662H30.7334V17.5614H32.9286V15.3662Z" fill="var(--fill-0, white)"/>
<path id="Vector_301" d="M32.9286 17.5601H30.7334V19.7552H32.9286V17.5601Z" fill="var(--fill-0, white)"/>
<path id="Vector_302" d="M32.9286 19.7573H30.7334V21.9525H32.9286V19.7573Z" fill="var(--fill-0, white)"/>
<path id="Vector_303" d="M32.9286 28.5366H30.7334V30.7317H32.9286V28.5366Z" fill="var(--fill-0, white)"/>
<path id="Vector_304" d="M32.9286 30.7319H30.7334V32.9271H32.9286V30.7319Z" fill="var(--fill-0, white)"/>
<path id="Vector_305" d="M32.9286 32.9268H30.7334V35.1219H32.9286V32.9268Z" fill="var(--fill-0, white)"/>
<path id="Vector_306" d="M32.9286 35.1221H30.7334V37.3173H32.9286V35.1221Z" fill="var(--fill-0, white)"/>
<path id="Vector_307" d="M32.9286 39.5127H30.7334V41.7078H32.9286V39.5127Z" fill="var(--fill-0, white)"/>
<path id="Vector_308" d="M32.9286 43.9023H30.7334V46.0975H32.9286V43.9023Z" fill="var(--fill-0, white)"/>
<path id="Vector_309" d="M32.9286 46.0977H30.7334V48.2928H32.9286V46.0977Z" fill="var(--fill-0, white)"/>
<path id="Vector_310" d="M32.9286 48.293H30.7334V50.4882H32.9286V48.293Z" fill="var(--fill-0, white)"/>
<path id="Vector_311" d="M32.9286 57.0737H30.7334V59.2686H32.9286V57.0737Z" fill="var(--fill-0, white)"/>
<path id="Vector_312" d="M32.9286 61.4644H30.7334V63.6599H32.9286V61.4644Z" fill="var(--fill-0, white)"/>
<path id="Vector_313" d="M32.9286 68.0493H30.7334V70.2443H32.9286V68.0493Z" fill="var(--fill-0, white)"/>
<path id="Vector_314" d="M32.9286 70.2441H30.7334V72.4391H32.9286V70.2441Z" fill="var(--fill-0, white)"/>
<path id="Vector_315" d="M32.9286 74.6348H30.7334V76.8302H32.9286V74.6348Z" fill="var(--fill-0, white)"/>
<path id="Vector_316" d="M32.9286 76.8296H30.7334V79.025H32.9286V76.8296Z" fill="var(--fill-0, white)"/>
<path id="Vector_317" d="M32.9286 85.6099H30.7334V87.805H32.9286V85.6099Z" fill="var(--fill-0, white)"/>
<path id="Vector_318" d="M32.9286 87.8047H30.7334V89.9999H32.9286V87.8047Z" fill="var(--fill-0, white)"/>
<path id="Vector_319" d="M35.1237 4.38994H32.9286V6.58508H35.1237V4.38994Z" fill="var(--fill-0, white)"/>
<path id="Vector_320" d="M35.1237 6.5852H32.9286V8.7804H35.1237V6.5852Z" fill="var(--fill-0, white)"/>
<path id="Vector_321" d="M35.1237 15.3664H32.9286V17.5616H35.1237V15.3664Z" fill="var(--fill-0, white)"/>
<path id="Vector_322" d="M35.1237 19.7572H32.9286V21.9524H35.1237V19.7572Z" fill="var(--fill-0, white)"/>
<path id="Vector_323" d="M35.1237 21.9519H32.9286V24.147H35.1237V21.9519Z" fill="var(--fill-0, white)"/>
<path id="Vector_324" d="M35.1237 28.5365H32.9286V30.7316H35.1237V28.5365Z" fill="var(--fill-0, white)"/>
<path id="Vector_325" d="M35.1237 30.7321H32.9286V32.9273H35.1237V30.7321Z" fill="var(--fill-0, white)"/>
<path id="Vector_326" d="M35.1237 32.9268H32.9286V35.122H35.1237V32.9268Z" fill="var(--fill-0, white)"/>
<path id="Vector_327" d="M35.1237 35.1223H32.9286V37.3174H35.1237V35.1223Z" fill="var(--fill-0, white)"/>
<path id="Vector_328" d="M35.1237 37.3182H32.9286V39.5134H35.1237V37.3182Z" fill="var(--fill-0, white)"/>
<path id="Vector_329" d="M35.1237 39.5129H32.9286V41.708H35.1237V39.5129Z" fill="var(--fill-0, white)"/>
<path id="Vector_330" d="M35.1237 41.7069H32.9286V43.9021H35.1237V41.7069Z" fill="var(--fill-0, white)"/>
<path id="Vector_331" d="M35.1237 46.0977H32.9286V48.2928H35.1237V46.0977Z" fill="var(--fill-0, white)"/>
<path id="Vector_332" d="M35.1237 48.2931H32.9286V50.4883H35.1237V48.2931Z" fill="var(--fill-0, white)"/>
<path id="Vector_333" d="M35.1237 50.4878H32.9286V52.6829H35.1237V50.4878Z" fill="var(--fill-0, white)"/>
<path id="Vector_334" d="M35.1237 54.8785H32.9286V57.0735H35.1237V54.8785Z" fill="var(--fill-0, white)"/>
<path id="Vector_335" d="M35.1237 57.0736H32.9286V59.2684H35.1237V57.0736Z" fill="var(--fill-0, white)"/>
<path id="Vector_336" d="M35.1237 59.2694H32.9286V61.4644H35.1237V59.2694Z" fill="var(--fill-0, white)"/>
<path id="Vector_337" d="M35.1237 65.8541H32.9286V68.0489H35.1237V65.8541Z" fill="var(--fill-0, white)"/>
<path id="Vector_338" d="M35.1237 72.4393H32.9286V74.6341H35.1237V72.4393Z" fill="var(--fill-0, white)"/>
<path id="Vector_339" d="M35.1237 74.6347H32.9286V76.8301H35.1237V74.6347Z" fill="var(--fill-0, white)"/>
<path id="Vector_340" d="M35.1237 83.4145H32.9286V85.6096H35.1237V83.4145Z" fill="var(--fill-0, white)"/>
<path id="Vector_341" d="M37.3154 2.19527H35.1203V4.3904H37.3154V2.19527Z" fill="var(--fill-0, white)"/>
<path id="Vector_342" d="M37.3154 6.5852H35.1203V8.7804H37.3154V6.5852Z" fill="var(--fill-0, white)"/>
<path id="Vector_343" d="M37.3154 10.9756H35.1203V13.1707H37.3154V10.9756Z" fill="var(--fill-0, white)"/>
<path id="Vector_344" d="M37.3154 13.171H35.1203V15.3662H37.3154V13.171Z" fill="var(--fill-0, white)"/>
<path id="Vector_345" d="M37.3154 15.3664H35.1203V17.5616H37.3154V15.3664Z" fill="var(--fill-0, white)"/>
<path id="Vector_346" d="M37.3154 17.5601H35.1203V19.7553H37.3154V17.5601Z" fill="var(--fill-0, white)"/>
<path id="Vector_347" d="M37.3154 21.9519H35.1203V24.147H37.3154V21.9519Z" fill="var(--fill-0, white)"/>
<path id="Vector_348" d="M37.3154 24.1473H35.1203V26.3424H37.3154V24.1473Z" fill="var(--fill-0, white)"/>
<path id="Vector_349" d="M37.3154 26.3426H35.1203V28.5378H37.3154V26.3426Z" fill="var(--fill-0, white)"/>
<path id="Vector_350" d="M37.3154 28.5365H35.1203V30.7316H37.3154V28.5365Z" fill="var(--fill-0, white)"/>
<path id="Vector_351" d="M37.3154 30.7321H35.1203V32.9273H37.3154V30.7321Z" fill="var(--fill-0, white)"/>
<path id="Vector_352" d="M37.3154 35.1223H35.1203V37.3174H37.3154V35.1223Z" fill="var(--fill-0, white)"/>
<path id="Vector_353" d="M37.3154 48.2931H35.1203V50.4883H37.3154V48.2931Z" fill="var(--fill-0, white)"/>
<path id="Vector_354" d="M37.3154 50.4878H35.1203V52.6829H37.3154V50.4878Z" fill="var(--fill-0, white)"/>
<path id="Vector_355" d="M37.3154 52.6831H35.1203V54.8782H37.3154V52.6831Z" fill="var(--fill-0, white)"/>
<path id="Vector_356" d="M37.3154 54.8785H35.1203V57.0735H37.3154V54.8785Z" fill="var(--fill-0, white)"/>
<path id="Vector_357" d="M37.3154 61.4643H35.1203V63.6598H37.3154V61.4643Z" fill="var(--fill-0, white)"/>
<path id="Vector_358" d="M37.3154 63.6592H35.1203V65.8541H37.3154V63.6592Z" fill="var(--fill-0, white)"/>
<path id="Vector_359" d="M37.3154 65.8541H35.1203V68.0489H37.3154V65.8541Z" fill="var(--fill-0, white)"/>
<path id="Vector_360" d="M37.3154 68.0495H35.1203V70.2444H37.3154V68.0495Z" fill="var(--fill-0, white)"/>
<path id="Vector_361" d="M37.3154 74.6347H35.1203V76.8301H37.3154V74.6347Z" fill="var(--fill-0, white)"/>
<path id="Vector_362" d="M37.3154 79.0251H35.1203V81.2199H37.3154V79.0251Z" fill="var(--fill-0, white)"/>
<path id="Vector_363" d="M37.3154 81.2199H35.1203V83.4153H37.3154V81.2199Z" fill="var(--fill-0, white)"/>
<path id="Vector_364" d="M39.5106 0H37.3154V2.19514H39.5106V0Z" fill="var(--fill-0, white)"/>
<path id="Vector_365" d="M39.5106 17.5601H37.3154V19.7552H39.5106V17.5601Z" fill="var(--fill-0, white)"/>
<path id="Vector_366" d="M39.5106 19.7573H37.3154V21.9525H39.5106V19.7573Z" fill="var(--fill-0, white)"/>
<path id="Vector_367" d="M39.5106 26.3428H37.3154V28.538H39.5106V26.3428Z" fill="var(--fill-0, white)"/>
<path id="Vector_368" d="M39.5106 35.1221H37.3154V37.3173H39.5106V35.1221Z" fill="var(--fill-0, white)"/>
<path id="Vector_369" d="M39.5106 37.3184H37.3154V39.5135H39.5106V37.3184Z" fill="var(--fill-0, white)"/>
<path id="Vector_370" d="M39.5106 39.5127H37.3154V41.7078H39.5106V39.5127Z" fill="var(--fill-0, white)"/>
<path id="Vector_371" d="M39.5106 43.9023H37.3154V46.0975H39.5106V43.9023Z" fill="var(--fill-0, white)"/>
<path id="Vector_372" d="M39.5106 54.8784H37.3154V57.0734H39.5106V54.8784Z" fill="var(--fill-0, white)"/>
<path id="Vector_373" d="M39.5106 65.854H37.3154V68.0489H39.5106V65.854Z" fill="var(--fill-0, white)"/>
<path id="Vector_374" d="M39.5106 70.2441H37.3154V72.4391H39.5106V70.2441Z" fill="var(--fill-0, white)"/>
<path id="Vector_375" d="M39.5106 79.0249H37.3154V81.2198H39.5106V79.0249Z" fill="var(--fill-0, white)"/>
<path id="Vector_376" d="M39.5106 81.2197H37.3154V83.4151H39.5106V81.2197Z" fill="var(--fill-0, white)"/>
<path id="Vector_377" d="M39.5106 87.8047H37.3154V89.9999H39.5106V87.8047Z" fill="var(--fill-0, white)"/>
<path id="Vector_378" d="M41.7099 0H39.5148V2.19514H41.7099V0Z" fill="var(--fill-0, white)"/>
<path id="Vector_379" d="M41.7099 2.19527H39.5148V4.3904H41.7099V2.19527Z" fill="var(--fill-0, white)"/>
<path id="Vector_380" d="M41.7099 8.78007H39.5148V10.9753H41.7099V8.78007Z" fill="var(--fill-0, white)"/>
<path id="Vector_381" d="M41.7099 13.171H39.5148V15.3662H41.7099V13.171Z" fill="var(--fill-0, white)"/>
<path id="Vector_382" d="M41.7099 15.3664H39.5148V17.5616H41.7099V15.3664Z" fill="var(--fill-0, white)"/>
<path id="Vector_383" d="M41.7099 19.7572H39.5148V21.9524H41.7099V19.7572Z" fill="var(--fill-0, white)"/>
<path id="Vector_384" d="M41.7099 24.1473H39.5148V26.3424H41.7099V24.1473Z" fill="var(--fill-0, white)"/>
<path id="Vector_385" d="M41.7099 28.5365H39.5148V30.7316H41.7099V28.5365Z" fill="var(--fill-0, white)"/>
<path id="Vector_386" d="M41.7099 37.3182H39.5148V39.5134H41.7099V37.3182Z" fill="var(--fill-0, white)"/>
<path id="Vector_387" d="M41.7099 41.7069H39.5148V43.9021H41.7099V41.7069Z" fill="var(--fill-0, white)"/>
<path id="Vector_388" d="M41.7099 43.9023H39.5148V46.0975H41.7099V43.9023Z" fill="var(--fill-0, white)"/>
<path id="Vector_389" d="M41.7099 46.0977H39.5148V48.2928H41.7099V46.0977Z" fill="var(--fill-0, white)"/>
<path id="Vector_390" d="M41.7099 63.6592H39.5148V65.8541H41.7099V63.6592Z" fill="var(--fill-0, white)"/>
<path id="Vector_391" d="M41.7099 65.8541H39.5148V68.0489H41.7099V65.8541Z" fill="var(--fill-0, white)"/>
<path id="Vector_392" d="M41.7099 68.0495H39.5148V70.2444H41.7099V68.0495Z" fill="var(--fill-0, white)"/>
<path id="Vector_393" d="M41.7099 72.4393H39.5148V74.6341H41.7099V72.4393Z" fill="var(--fill-0, white)"/>
<path id="Vector_394" d="M41.7099 74.6347H39.5148V76.8301H41.7099V74.6347Z" fill="var(--fill-0, white)"/>
<path id="Vector_395" d="M41.7099 81.2199H39.5148V83.4153H41.7099V81.2199Z" fill="var(--fill-0, white)"/>
<path id="Vector_396" d="M41.7099 85.6096H39.5148V87.8048H41.7099V85.6096Z" fill="var(--fill-0, white)"/>
<path id="Vector_397" d="M43.9012 4.39014H41.7061V6.58528H43.9012V4.39014Z" fill="var(--fill-0, white)"/>
<path id="Vector_398" d="M43.9012 6.58496H41.7061V8.78016H43.9012V6.58496Z" fill="var(--fill-0, white)"/>
<path id="Vector_399" d="M43.9012 17.5601H41.7061V19.7552H43.9012V17.5601Z" fill="var(--fill-0, white)"/>
<path id="Vector_400" d="M43.9012 24.1475H41.7061V26.3426H43.9012V24.1475Z" fill="var(--fill-0, white)"/>
<path id="Vector_401" d="M43.9012 28.5366H41.7061V30.7317H43.9012V28.5366Z" fill="var(--fill-0, white)"/>
<path id="Vector_402" d="M43.9012 37.3184H41.7061V39.5135H43.9012V37.3184Z" fill="var(--fill-0, white)"/>
<path id="Vector_403" d="M43.9012 39.5127H41.7061V41.7078H43.9012V39.5127Z" fill="var(--fill-0, white)"/>
<path id="Vector_404" d="M43.9012 50.4878H41.7061V52.6829H43.9012V50.4878Z" fill="var(--fill-0, white)"/>
<path id="Vector_405" d="M43.9012 52.6831H41.7061V54.8783H43.9012V52.6831Z" fill="var(--fill-0, white)"/>
<path id="Vector_406" d="M43.9012 54.8784H41.7061V57.0734H43.9012V54.8784Z" fill="var(--fill-0, white)"/>
<path id="Vector_407" d="M43.9012 65.854H41.7061V68.0489H43.9012V65.854Z" fill="var(--fill-0, white)"/>
<path id="Vector_408" d="M43.9012 68.0493H41.7061V70.2443H43.9012V68.0493Z" fill="var(--fill-0, white)"/>
<path id="Vector_409" d="M43.9012 70.2441H41.7061V72.4391H43.9012V70.2441Z" fill="var(--fill-0, white)"/>
<path id="Vector_410" d="M43.9012 72.4395H41.7061V74.6343H43.9012V72.4395Z" fill="var(--fill-0, white)"/>
<path id="Vector_411" d="M43.9012 76.8296H41.7061V79.025H43.9012V76.8296Z" fill="var(--fill-0, white)"/>
<path id="Vector_412" d="M43.9012 79.0249H41.7061V81.2198H43.9012V79.0249Z" fill="var(--fill-0, white)"/>
<path id="Vector_413" d="M43.9012 87.8047H41.7061V89.9999H43.9012V87.8047Z" fill="var(--fill-0, white)"/>
<path id="Vector_414" d="M46.0973 2.19527H43.9022V4.3904H46.0973V2.19527Z" fill="var(--fill-0, white)"/>
<path id="Vector_415" d="M46.0973 4.38994H43.9022V6.58508H46.0973V4.38994Z" fill="var(--fill-0, white)"/>
<path id="Vector_416" d="M46.0973 6.5852H43.9022V8.7804H46.0973V6.5852Z" fill="var(--fill-0, white)"/>
<path id="Vector_417" d="M46.0973 8.78007H43.9022V10.9753H46.0973V8.78007Z" fill="var(--fill-0, white)"/>
<path id="Vector_418" d="M46.0973 10.9756H43.9022V13.1707H46.0973V10.9756Z" fill="var(--fill-0, white)"/>
<path id="Vector_419" d="M46.0973 13.171H43.9022V15.3662H46.0973V13.171Z" fill="var(--fill-0, white)"/>
<path id="Vector_420" d="M46.0973 15.3664H43.9022V17.5616H46.0973V15.3664Z" fill="var(--fill-0, white)"/>
<path id="Vector_421" d="M46.0973 17.5601H43.9022V19.7553H46.0973V17.5601Z" fill="var(--fill-0, white)"/>
<path id="Vector_422" d="M46.0973 26.3426H43.9022V28.5378H46.0973V26.3426Z" fill="var(--fill-0, white)"/>
<path id="Vector_423" d="M46.0973 30.7321H43.9022V32.9273H46.0973V30.7321Z" fill="var(--fill-0, white)"/>
<path id="Vector_424" d="M46.0973 37.3182H43.9022V39.5134H46.0973V37.3182Z" fill="var(--fill-0, white)"/>
<path id="Vector_425" d="M46.0973 39.5129H43.9022V41.708H46.0973V39.5129Z" fill="var(--fill-0, white)"/>
<path id="Vector_426" d="M46.0973 41.7069H43.9022V43.9021H46.0973V41.7069Z" fill="var(--fill-0, white)"/>
<path id="Vector_427" d="M46.0973 43.9023H43.9022V46.0975H46.0973V43.9023Z" fill="var(--fill-0, white)"/>
<path id="Vector_428" d="M46.0973 52.6831H43.9022V54.8782H46.0973V52.6831Z" fill="var(--fill-0, white)"/>
<path id="Vector_429" d="M46.0973 54.8785H43.9022V57.0735H46.0973V54.8785Z" fill="var(--fill-0, white)"/>
<path id="Vector_430" d="M46.0973 57.0736H43.9022V59.2684H46.0973V57.0736Z" fill="var(--fill-0, white)"/>
<path id="Vector_431" d="M46.0973 59.2694H43.9022V61.4644H46.0973V59.2694Z" fill="var(--fill-0, white)"/>
<path id="Vector_432" d="M46.0973 61.4643H43.9022V63.6598H46.0973V61.4643Z" fill="var(--fill-0, white)"/>
<path id="Vector_433" d="M46.0973 63.6592H43.9022V65.8541H46.0973V63.6592Z" fill="var(--fill-0, white)"/>
<path id="Vector_434" d="M46.0973 68.0495H43.9022V70.2444H46.0973V68.0495Z" fill="var(--fill-0, white)"/>
<path id="Vector_435" d="M46.0973 76.8296H43.9022V79.025H46.0973V76.8296Z" fill="var(--fill-0, white)"/>
<path id="Vector_436" d="M46.0973 81.2199H43.9022V83.4153H46.0973V81.2199Z" fill="var(--fill-0, white)"/>
<path id="Vector_437" d="M48.2929 0H46.0978V2.19514H48.2929V0Z" fill="var(--fill-0, white)"/>
<path id="Vector_438" d="M48.2929 4.38994H46.0978V6.58508H48.2929V4.38994Z" fill="var(--fill-0, white)"/>
<path id="Vector_439" d="M48.2929 6.5852H46.0978V8.7804H48.2929V6.5852Z" fill="var(--fill-0, white)"/>
<path id="Vector_440" d="M48.2929 8.78007H46.0978V10.9753H48.2929V8.78007Z" fill="var(--fill-0, white)"/>
<path id="Vector_441" d="M48.2929 19.7572H46.0978V21.9524H48.2929V19.7572Z" fill="var(--fill-0, white)"/>
<path id="Vector_442" d="M48.2929 21.9519H46.0978V24.147H48.2929V21.9519Z" fill="var(--fill-0, white)"/>
<path id="Vector_443" d="M48.2929 48.2931H46.0978V50.4883H48.2929V48.2931Z" fill="var(--fill-0, white)"/>
<path id="Vector_444" d="M48.2929 54.8785H46.0978V57.0735H48.2929V54.8785Z" fill="var(--fill-0, white)"/>
<path id="Vector_445" d="M48.2929 63.6592H46.0978V65.8541H48.2929V63.6592Z" fill="var(--fill-0, white)"/>
<path id="Vector_446" d="M48.2929 74.6347H46.0978V76.8301H48.2929V74.6347Z" fill="var(--fill-0, white)"/>
<path id="Vector_447" d="M48.2929 83.4145H46.0978V85.6096H48.2929V83.4145Z" fill="var(--fill-0, white)"/>
<path id="Vector_448" d="M50.4881 4.39014H48.293V6.58528H50.4881V4.39014Z" fill="var(--fill-0, white)"/>
<path id="Vector_449" d="M50.4881 6.58496H48.293V8.78016H50.4881V6.58496Z" fill="var(--fill-0, white)"/>
<path id="Vector_450" d="M50.4881 10.9756H48.293V13.1707H50.4881V10.9756Z" fill="var(--fill-0, white)"/>
<path id="Vector_451" d="M50.4881 13.1714H48.293V15.3666H50.4881V13.1714Z" fill="var(--fill-0, white)"/>
<path id="Vector_452" d="M50.4881 17.5601H48.293V19.7552H50.4881V17.5601Z" fill="var(--fill-0, white)"/>
<path id="Vector_453" d="M50.4881 19.7573H48.293V21.9525H50.4881V19.7573Z" fill="var(--fill-0, white)"/>
<path id="Vector_454" d="M50.4881 21.9517H48.293V24.1468H50.4881V21.9517Z" fill="var(--fill-0, white)"/>
<path id="Vector_455" d="M50.4881 24.147H48.293V26.3421H50.4881V24.147Z" fill="var(--fill-0, white)"/>
<path id="Vector_456" d="M50.4881 37.3184H48.293V39.5135H50.4881V37.3184Z" fill="var(--fill-0, white)"/>
<path id="Vector_457" d="M50.4881 41.707H48.293V43.9022H50.4881V41.707Z" fill="var(--fill-0, white)"/>
<path id="Vector_458" d="M50.4881 43.9023H48.293V46.0975H50.4881V43.9023Z" fill="var(--fill-0, white)"/>
<path id="Vector_459" d="M50.4881 46.0977H48.293V48.2928H50.4881V46.0977Z" fill="var(--fill-0, white)"/>
<path id="Vector_460" d="M50.4881 57.0737H48.293V59.2686H50.4881V57.0737Z" fill="var(--fill-0, white)"/>
<path id="Vector_461" d="M50.4881 61.4644H48.293V63.6599H50.4881V61.4644Z" fill="var(--fill-0, white)"/>
<path id="Vector_462" d="M50.4881 68.0493H48.293V70.2443H50.4881V68.0493Z" fill="var(--fill-0, white)"/>
<path id="Vector_463" d="M50.4881 76.8296H48.293V79.025H50.4881V76.8296Z" fill="var(--fill-0, white)"/>
<path id="Vector_464" d="M50.4881 85.6099H48.293V87.805H50.4881V85.6099Z" fill="var(--fill-0, white)"/>
<path id="Vector_465" d="M52.6835 19.7572H50.4884V21.9524H52.6835V19.7572Z" fill="var(--fill-0, white)"/>
<path id="Vector_466" d="M52.6835 24.1472H50.4884V26.3423H52.6835V24.1472Z" fill="var(--fill-0, white)"/>
<path id="Vector_467" d="M52.6835 32.9268H50.4884V35.122H52.6835V32.9268Z" fill="var(--fill-0, white)"/>
<path id="Vector_468" d="M52.6835 35.1223H50.4884V37.3174H52.6835V35.1223Z" fill="var(--fill-0, white)"/>
<path id="Vector_469" d="M52.6835 39.5129H50.4884V41.708H52.6835V39.5129Z" fill="var(--fill-0, white)"/>
<path id="Vector_470" d="M52.6835 41.7069H50.4884V43.9021H52.6835V41.7069Z" fill="var(--fill-0, white)"/>
<path id="Vector_471" d="M52.6835 52.6831H50.4884V54.8782H52.6835V52.6831Z" fill="var(--fill-0, white)"/>
<path id="Vector_472" d="M52.6835 54.8785H50.4884V57.0735H52.6835V54.8785Z" fill="var(--fill-0, white)"/>
<path id="Vector_473" d="M52.6835 59.2694H50.4884V61.4644H52.6835V59.2694Z" fill="var(--fill-0, white)"/>
<path id="Vector_474" d="M52.6835 65.8541H50.4884V68.0489H52.6835V65.8541Z" fill="var(--fill-0, white)"/>
<path id="Vector_475" d="M52.6835 70.2444H50.4884V72.4393H52.6835V70.2444Z" fill="var(--fill-0, white)"/>
<path id="Vector_476" d="M52.6835 72.4393H50.4884V74.6341H52.6835V72.4393Z" fill="var(--fill-0, white)"/>
<path id="Vector_477" d="M52.6835 76.8296H50.4884V79.025H52.6835V76.8296Z" fill="var(--fill-0, white)"/>
<path id="Vector_478" d="M54.8787 0H52.6836V2.19514H54.8787V0Z" fill="var(--fill-0, white)"/>
<path id="Vector_479" d="M54.8787 2.19531H52.6836V4.39045H54.8787V2.19531Z" fill="var(--fill-0, white)"/>
<path id="Vector_480" d="M54.8787 6.58496H52.6836V8.78016H54.8787V6.58496Z" fill="var(--fill-0, white)"/>
<path id="Vector_481" d="M54.8787 13.1714H52.6836V15.3666H54.8787V13.1714Z" fill="var(--fill-0, white)"/>
<path id="Vector_482" d="M54.8787 50.4878H52.6836V52.6829H54.8787V50.4878Z" fill="var(--fill-0, white)"/>
<path id="Vector_483" d="M54.8787 52.6831H52.6836V54.8783H54.8787V52.6831Z" fill="var(--fill-0, white)"/>
<path id="Vector_484" d="M54.8787 57.0737H52.6836V59.2686H54.8787V57.0737Z" fill="var(--fill-0, white)"/>
<path id="Vector_485" d="M54.8787 61.4644H52.6836V63.6599H54.8787V61.4644Z" fill="var(--fill-0, white)"/>
<path id="Vector_486" d="M54.8787 74.6348H52.6836V76.8302H54.8787V74.6348Z" fill="var(--fill-0, white)"/>
<path id="Vector_487" d="M54.8787 79.0249H52.6836V81.2198H54.8787V79.0249Z" fill="var(--fill-0, white)"/>
<path id="Vector_488" d="M54.8787 83.4146H52.6836V85.6097H54.8787V83.4146Z" fill="var(--fill-0, white)"/>
<path id="Vector_489" d="M54.8787 87.8047H52.6836V89.9999H54.8787V87.8047Z" fill="var(--fill-0, white)"/>
<path id="Vector_490" d="M57.0742 0H54.8789V2.19514H57.0742V0Z" fill="var(--fill-0, white)"/>
<path id="Vector_491" d="M57.0742 2.19527H54.8789V4.3904H57.0742V2.19527Z" fill="var(--fill-0, white)"/>
<path id="Vector_492" d="M57.0742 17.5601H54.8789V19.7553H57.0742V17.5601Z" fill="var(--fill-0, white)"/>
<path id="Vector_493" d="M57.0742 19.7572H54.8789V21.9524H57.0742V19.7572Z" fill="var(--fill-0, white)"/>
<path id="Vector_494" d="M57.0742 26.3426H54.8789V28.5378H57.0742V26.3426Z" fill="var(--fill-0, white)"/>
<path id="Vector_495" d="M57.0742 28.5365H54.8789V30.7316H57.0742V28.5365Z" fill="var(--fill-0, white)"/>
<path id="Vector_496" d="M57.0742 35.1223H54.8789V37.3174H57.0742V35.1223Z" fill="var(--fill-0, white)"/>
<path id="Vector_497" d="M57.0742 39.5129H54.8789V41.708H57.0742V39.5129Z" fill="var(--fill-0, white)"/>
<path id="Vector_498" d="M57.0742 43.9023H54.8789V46.0975H57.0742V43.9023Z" fill="var(--fill-0, white)"/>
<path id="Vector_499" d="M57.0742 46.0977H54.8789V48.2928H57.0742V46.0977Z" fill="var(--fill-0, white)"/>
<path id="Vector_500" d="M57.0742 61.4643H54.8789V63.6598H57.0742V61.4643Z" fill="var(--fill-0, white)"/>
<path id="Vector_501" d="M57.0742 63.6592H54.8789V65.8541H57.0742V63.6592Z" fill="var(--fill-0, white)"/>
<path id="Vector_502" d="M57.0742 65.8541H54.8789V68.0489H57.0742V65.8541Z" fill="var(--fill-0, white)"/>
<path id="Vector_503" d="M57.0742 70.2444H54.8789V72.4393H57.0742V70.2444Z" fill="var(--fill-0, white)"/>
<path id="Vector_504" d="M57.0742 79.0251H54.8789V81.2199H57.0742V79.0251Z" fill="var(--fill-0, white)"/>
<path id="Vector_505" d="M57.0742 81.2199H54.8789V83.4153H57.0742V81.2199Z" fill="var(--fill-0, white)"/>
<path id="Vector_506" d="M57.0742 87.8048H54.8789V90H57.0742V87.8048Z" fill="var(--fill-0, white)"/>
<path id="Vector_507" d="M59.2662 8.78007H57.0714V10.9753H59.2662V8.78007Z" fill="var(--fill-0, white)"/>
<path id="Vector_508" d="M59.2662 10.9756H57.0714V13.1707H59.2662V10.9756Z" fill="var(--fill-0, white)"/>
<path id="Vector_509" d="M59.2662 13.1712H57.0714V15.3664H59.2662V13.1712Z" fill="var(--fill-0, white)"/>
<path id="Vector_510" d="M59.2662 24.1472H57.0714V26.3423H59.2662V24.1472Z" fill="var(--fill-0, white)"/>
<path id="Vector_511" d="M59.2662 28.5365H57.0714V30.7316H59.2662V28.5365Z" fill="var(--fill-0, white)"/>
<path id="Vector_512" d="M59.2662 30.7321H57.0714V32.9273H59.2662V30.7321Z" fill="var(--fill-0, white)"/>
<path id="Vector_513" d="M59.2662 35.1223H57.0714V37.3174H59.2662V35.1223Z" fill="var(--fill-0, white)"/>
<path id="Vector_514" d="M59.2662 37.3182H57.0714V39.5134H59.2662V37.3182Z" fill="var(--fill-0, white)"/>
<path id="Vector_515" d="M59.2662 46.0977H57.0714V48.2928H59.2662V46.0977Z" fill="var(--fill-0, white)"/>
<path id="Vector_516" d="M59.2662 50.4878H57.0714V52.6829H59.2662V50.4878Z" fill="var(--fill-0, white)"/>
<path id="Vector_517" d="M59.2662 54.8785H57.0714V57.0735H59.2662V54.8785Z" fill="var(--fill-0, white)"/>
<path id="Vector_518" d="M59.2662 57.0736H57.0714V59.2684H59.2662V57.0736Z" fill="var(--fill-0, white)"/>
<path id="Vector_519" d="M59.2662 63.6592H57.0714V65.8541H59.2662V63.6592Z" fill="var(--fill-0, white)"/>
<path id="Vector_520" d="M59.2662 65.8541H57.0714V68.0489H59.2662V65.8541Z" fill="var(--fill-0, white)"/>
<path id="Vector_521" d="M59.2662 68.0495H57.0714V70.2444H59.2662V68.0495Z" fill="var(--fill-0, white)"/>
<path id="Vector_522" d="M59.2662 70.2444H57.0714V72.4393H59.2662V70.2444Z" fill="var(--fill-0, white)"/>
<path id="Vector_523" d="M59.2662 72.4393H57.0714V74.6341H59.2662V72.4393Z" fill="var(--fill-0, white)"/>
<path id="Vector_524" d="M59.2662 74.6347H57.0714V76.8301H59.2662V74.6347Z" fill="var(--fill-0, white)"/>
<path id="Vector_525" d="M59.2662 76.8296H57.0714V79.025H59.2662V76.8296Z" fill="var(--fill-0, white)"/>
<path id="Vector_526" d="M59.2662 85.6096H57.0714V87.8048H59.2662V85.6096Z" fill="var(--fill-0, white)"/>
<path id="Vector_527" d="M59.2662 87.8048H57.0714V90H59.2662V87.8048Z" fill="var(--fill-0, white)"/>
<path id="Vector_528" d="M61.4615 6.58496H59.2666V8.78016H61.4615V6.58496Z" fill="var(--fill-0, white)"/>
<path id="Vector_529" d="M61.4615 8.78027H59.2666V10.9755H61.4615V8.78027Z" fill="var(--fill-0, white)"/>
<path id="Vector_530" d="M61.4615 17.5601H59.2666V19.7552H61.4615V17.5601Z" fill="var(--fill-0, white)"/>
<path id="Vector_531" d="M61.4615 21.9517H59.2666V24.1468H61.4615V21.9517Z" fill="var(--fill-0, white)"/>
<path id="Vector_532" d="M61.4615 26.3428H59.2666V28.538H61.4615V26.3428Z" fill="var(--fill-0, white)"/>
<path id="Vector_533" d="M61.4615 28.5366H59.2666V30.7317H61.4615V28.5366Z" fill="var(--fill-0, white)"/>
<path id="Vector_534" d="M61.4615 30.7319H59.2666V32.9271H61.4615V30.7319Z" fill="var(--fill-0, white)"/>
<path id="Vector_535" d="M61.4615 35.1221H59.2666V37.3173H61.4615V35.1221Z" fill="var(--fill-0, white)"/>
<path id="Vector_536" d="M61.4615 37.3184H59.2666V39.5135H61.4615V37.3184Z" fill="var(--fill-0, white)"/>
<path id="Vector_537" d="M61.4615 39.5127H59.2666V41.7078H61.4615V39.5127Z" fill="var(--fill-0, white)"/>
<path id="Vector_538" d="M61.4615 41.707H59.2666V43.9022H61.4615V41.707Z" fill="var(--fill-0, white)"/>
<path id="Vector_539" d="M61.4615 43.9023H59.2666V46.0975H61.4615V43.9023Z" fill="var(--fill-0, white)"/>
<path id="Vector_540" d="M61.4615 46.0977H59.2666V48.2928H61.4615V46.0977Z" fill="var(--fill-0, white)"/>
<path id="Vector_541" d="M61.4615 48.293H59.2666V50.4882H61.4615V48.293Z" fill="var(--fill-0, white)"/>
<path id="Vector_542" d="M61.4615 54.8784H59.2666V57.0734H61.4615V54.8784Z" fill="var(--fill-0, white)"/>
<path id="Vector_543" d="M61.4615 57.0737H59.2666V59.2686H61.4615V57.0737Z" fill="var(--fill-0, white)"/>
<path id="Vector_544" d="M61.4615 61.4644H59.2666V63.6599H61.4615V61.4644Z" fill="var(--fill-0, white)"/>
<path id="Vector_545" d="M61.4615 63.6592H59.2666V65.854H61.4615V63.6592Z" fill="var(--fill-0, white)"/>
<path id="Vector_546" d="M61.4615 65.854H59.2666V68.0489H61.4615V65.854Z" fill="var(--fill-0, white)"/>
<path id="Vector_547" d="M61.4615 68.0493H59.2666V70.2443H61.4615V68.0493Z" fill="var(--fill-0, white)"/>
<path id="Vector_548" d="M61.4615 72.4395H59.2666V74.6343H61.4615V72.4395Z" fill="var(--fill-0, white)"/>
<path id="Vector_549" d="M61.4615 74.6348H59.2666V76.8302H61.4615V74.6348Z" fill="var(--fill-0, white)"/>
<path id="Vector_550" d="M61.4615 76.8296H59.2666V79.025H61.4615V76.8296Z" fill="var(--fill-0, white)"/>
<path id="Vector_551" d="M61.4615 81.2197H59.2666V83.4151H61.4615V81.2197Z" fill="var(--fill-0, white)"/>
<path id="Vector_552" d="M61.4615 83.4146H59.2666V85.6097H61.4615V83.4146Z" fill="var(--fill-0, white)"/>
<path id="Vector_553" d="M61.4615 85.6099H59.2666V87.805H61.4615V85.6099Z" fill="var(--fill-0, white)"/>
<path id="Vector_554" d="M61.4615 87.8047H59.2666V89.9999H61.4615V87.8047Z" fill="var(--fill-0, white)"/>
<path id="Vector_555" d="M63.6581 2.19527H61.4627V4.3904H63.6581V2.19527Z" fill="var(--fill-0, white)"/>
<path id="Vector_556" d="M63.6581 4.38994H61.4627V6.58508H63.6581V4.38994Z" fill="var(--fill-0, white)"/>
<path id="Vector_557" d="M63.6581 6.5852H61.4627V8.7804H63.6581V6.5852Z" fill="var(--fill-0, white)"/>
<path id="Vector_558" d="M63.6581 8.78007H61.4627V10.9753H63.6581V8.78007Z" fill="var(--fill-0, white)"/>
<path id="Vector_559" d="M63.6581 10.9756H61.4627V13.1707H63.6581V10.9756Z" fill="var(--fill-0, white)"/>
<path id="Vector_560" d="M63.6581 13.1712H61.4627V15.3664H63.6581V13.1712Z" fill="var(--fill-0, white)"/>
<path id="Vector_561" d="M63.6581 15.3664H61.4627V17.5616H63.6581V15.3664Z" fill="var(--fill-0, white)"/>
<path id="Vector_562" d="M63.6581 17.5601H61.4627V19.7553H63.6581V17.5601Z" fill="var(--fill-0, white)"/>
<path id="Vector_563" d="M63.6581 24.1472H61.4627V26.3423H63.6581V24.1472Z" fill="var(--fill-0, white)"/>
<path id="Vector_564" d="M63.6581 30.7321H61.4627V32.9273H63.6581V30.7321Z" fill="var(--fill-0, white)"/>
<path id="Vector_565" d="M63.6581 35.1223H61.4627V37.3174H63.6581V35.1223Z" fill="var(--fill-0, white)"/>
<path id="Vector_566" d="M63.6581 37.3182H61.4627V39.5134H63.6581V37.3182Z" fill="var(--fill-0, white)"/>
<path id="Vector_567" d="M63.6581 46.0977H61.4627V48.2928H63.6581V46.0977Z" fill="var(--fill-0, white)"/>
<path id="Vector_568" d="M63.6581 48.2931H61.4627V50.4883H63.6581V48.2931Z" fill="var(--fill-0, white)"/>
<path id="Vector_569" d="M63.6581 50.4878H61.4627V52.6829H63.6581V50.4878Z" fill="var(--fill-0, white)"/>
<path id="Vector_570" d="M63.6581 54.8785H61.4627V57.0735H63.6581V54.8785Z" fill="var(--fill-0, white)"/>
<path id="Vector_571" d="M63.6581 57.0736H61.4627V59.2684H63.6581V57.0736Z" fill="var(--fill-0, white)"/>
<path id="Vector_572" d="M63.6581 61.4643H61.4627V63.6598H63.6581V61.4643Z" fill="var(--fill-0, white)"/>
<path id="Vector_573" d="M63.6581 65.8541H61.4627V68.0489H63.6581V65.8541Z" fill="var(--fill-0, white)"/>
<path id="Vector_574" d="M63.6581 68.0495H61.4627V70.2444H63.6581V68.0495Z" fill="var(--fill-0, white)"/>
<path id="Vector_575" d="M63.6581 70.2444H61.4627V72.4393H63.6581V70.2444Z" fill="var(--fill-0, white)"/>
<path id="Vector_576" d="M63.6581 79.0251H61.4627V81.2199H63.6581V79.0251Z" fill="var(--fill-0, white)"/>
<path id="Vector_577" d="M63.6581 81.2199H61.4627V83.4153H63.6581V81.2199Z" fill="var(--fill-0, white)"/>
<path id="Vector_578" d="M63.6581 83.4145H61.4627V85.6096H63.6581V83.4145Z" fill="var(--fill-0, white)"/>
<path id="Vector_579" d="M65.8527 0H63.6572V2.19514H65.8527V0Z" fill="var(--fill-0, white)"/>
<path id="Vector_580" d="M65.8527 6.58496H63.6572V8.78016H65.8527V6.58496Z" fill="var(--fill-0, white)"/>
<path id="Vector_581" d="M65.8527 17.5601H63.6572V19.7552H65.8527V17.5601Z" fill="var(--fill-0, white)"/>
<path id="Vector_582" d="M65.8527 19.7573H63.6572V21.9525H65.8527V19.7573Z" fill="var(--fill-0, white)"/>
<path id="Vector_583" d="M65.8527 28.5366H63.6572V30.7317H65.8527V28.5366Z" fill="var(--fill-0, white)"/>
<path id="Vector_584" d="M65.8527 30.7319H63.6572V32.9271H65.8527V30.7319Z" fill="var(--fill-0, white)"/>
<path id="Vector_585" d="M65.8527 35.1221H63.6572V37.3173H65.8527V35.1221Z" fill="var(--fill-0, white)"/>
<path id="Vector_586" d="M65.8527 39.5127H63.6572V41.7078H65.8527V39.5127Z" fill="var(--fill-0, white)"/>
<path id="Vector_587" d="M65.8527 43.9023H63.6572V46.0975H65.8527V43.9023Z" fill="var(--fill-0, white)"/>
<path id="Vector_588" d="M65.8527 46.0977H63.6572V48.2928H65.8527V46.0977Z" fill="var(--fill-0, white)"/>
<path id="Vector_589" d="M65.8527 48.293H63.6572V50.4882H65.8527V48.293Z" fill="var(--fill-0, white)"/>
<path id="Vector_590" d="M65.8527 61.4644H63.6572V63.6599H65.8527V61.4644Z" fill="var(--fill-0, white)"/>
<path id="Vector_591" d="M65.8527 65.854H63.6572V68.0489H65.8527V65.854Z" fill="var(--fill-0, white)"/>
<path id="Vector_592" d="M65.8527 70.2441H63.6572V72.4391H65.8527V70.2441Z" fill="var(--fill-0, white)"/>
<path id="Vector_593" d="M65.8527 72.4395H63.6572V74.6343H65.8527V72.4395Z" fill="var(--fill-0, white)"/>
<path id="Vector_594" d="M65.8527 87.8047H63.6572V89.9999H65.8527V87.8047Z" fill="var(--fill-0, white)"/>
<path id="Vector_595" d="M68.0489 2.19531H65.8535V4.39045H68.0489V2.19531Z" fill="var(--fill-0, white)"/>
<path id="Vector_596" d="M68.0489 8.78027H65.8535V10.9755H68.0489V8.78027Z" fill="var(--fill-0, white)"/>
<path id="Vector_597" d="M68.0479 13.171H65.8524V15.3662H68.0479V13.171Z" fill="var(--fill-0, white)"/>
<path id="Vector_598" d="M68.0489 15.3662H65.8535V17.5614H68.0489V15.3662Z" fill="var(--fill-0, white)"/>
<path id="Vector_599" d="M68.0489 17.5601H65.8535V19.7552H68.0489V17.5601Z" fill="var(--fill-0, white)"/>
<path id="Vector_600" d="M68.0489 19.7573H65.8535V21.9525H68.0489V19.7573Z" fill="var(--fill-0, white)"/>
<path id="Vector_601" d="M68.0479 35.1223H65.8524V37.3174H68.0479V35.1223Z" fill="var(--fill-0, white)"/>
<path id="Vector_602" d="M68.0489 39.5127H65.8535V41.7078H68.0489V39.5127Z" fill="var(--fill-0, white)"/>
<path id="Vector_603" d="M68.0479 41.7069H65.8524V43.9021H68.0479V41.7069Z" fill="var(--fill-0, white)"/>
<path id="Vector_604" d="M68.0489 46.0977H65.8535V48.2928H68.0489V46.0977Z" fill="var(--fill-0, white)"/>
<path id="Vector_605" d="M68.0489 54.8784H65.8535V57.0734H68.0489V54.8784Z" fill="var(--fill-0, white)"/>
<path id="Vector_606" d="M68.0489 57.0737H65.8535V59.2686H68.0489V57.0737Z" fill="var(--fill-0, white)"/>
<path id="Vector_607" d="M68.0489 63.6592H65.8535V65.854H68.0489V63.6592Z" fill="var(--fill-0, white)"/>
<path id="Vector_608" d="M68.0489 65.854H65.8535V68.0489H68.0489V65.854Z" fill="var(--fill-0, white)"/>
<path id="Vector_609" d="M68.0489 72.4395H65.8535V74.6343H68.0489V72.4395Z" fill="var(--fill-0, white)"/>
<path id="Vector_610" d="M68.0489 74.6348H65.8535V76.8302H68.0489V74.6348Z" fill="var(--fill-0, white)"/>
<path id="Vector_611" d="M68.0489 81.2197H65.8535V83.4151H68.0489V81.2197Z" fill="var(--fill-0, white)"/>
<path id="Vector_612" d="M68.0489 85.6099H65.8535V87.805H68.0489V85.6099Z" fill="var(--fill-0, white)"/>
<path id="Vector_613" d="M70.2433 4.39014H68.0479V6.58528H70.2433V4.39014Z" fill="var(--fill-0, white)"/>
<path id="Vector_614" d="M70.2433 8.78027H68.0479V10.9755H70.2433V8.78027Z" fill="var(--fill-0, white)"/>
<path id="Vector_615" d="M70.2433 15.3662H68.0479V17.5614H70.2433V15.3662Z" fill="var(--fill-0, white)"/>
<path id="Vector_616" d="M70.2433 19.7573H68.0479V21.9525H70.2433V19.7573Z" fill="var(--fill-0, white)"/>
<path id="Vector_617" d="M70.2433 24.1475H68.0479V26.3426H70.2433V24.1475Z" fill="var(--fill-0, white)"/>
<path id="Vector_618" d="M70.2433 28.5366H68.0479V30.7317H70.2433V28.5366Z" fill="var(--fill-0, white)"/>
<path id="Vector_619" d="M70.2433 32.9268H68.0479V35.1219H70.2433V32.9268Z" fill="var(--fill-0, white)"/>
<path id="Vector_620" d="M70.2433 35.1221H68.0479V37.3173H70.2433V35.1221Z" fill="var(--fill-0, white)"/>
<path id="Vector_621" d="M70.2433 37.3184H68.0479V39.5135H70.2433V37.3184Z" fill="var(--fill-0, white)"/>
<path id="Vector_622" d="M70.2433 39.5127H68.0479V41.7078H70.2433V39.5127Z" fill="var(--fill-0, white)"/>
<path id="Vector_623" d="M70.2433 41.707H68.0479V43.9022H70.2433V41.707Z" fill="var(--fill-0, white)"/>
<path id="Vector_624" d="M70.2433 43.9023H68.0479V46.0975H70.2433V43.9023Z" fill="var(--fill-0, white)"/>
<path id="Vector_625" d="M70.2433 52.6831H68.0479V54.8783H70.2433V52.6831Z" fill="var(--fill-0, white)"/>
<path id="Vector_626" d="M70.2433 54.8784H68.0479V57.0734H70.2433V54.8784Z" fill="var(--fill-0, white)"/>
<path id="Vector_627" d="M70.2433 63.6592H68.0479V65.854H70.2433V63.6592Z" fill="var(--fill-0, white)"/>
<path id="Vector_628" d="M70.2433 65.854H68.0479V68.0489H70.2433V65.854Z" fill="var(--fill-0, white)"/>
<path id="Vector_629" d="M70.2433 68.0493H68.0479V70.2443H70.2433V68.0493Z" fill="var(--fill-0, white)"/>
<path id="Vector_630" d="M70.2433 74.6348H68.0479V76.8302H70.2433V74.6348Z" fill="var(--fill-0, white)"/>
<path id="Vector_631" d="M70.2433 76.8296H68.0479V79.025H70.2433V76.8296Z" fill="var(--fill-0, white)"/>
<path id="Vector_632" d="M70.2433 79.0249H68.0479V81.2198H70.2433V79.0249Z" fill="var(--fill-0, white)"/>
<path id="Vector_633" d="M70.2433 81.2197H68.0479V83.4151H70.2433V81.2197Z" fill="var(--fill-0, white)"/>
<path id="Vector_634" d="M70.2433 85.6099H68.0479V87.805H70.2433V85.6099Z" fill="var(--fill-0, white)"/>
<path id="Vector_635" d="M70.2433 87.8047H68.0479V89.9999H70.2433V87.8047Z" fill="var(--fill-0, white)"/>
<path id="Vector_636" d="M72.4396 2.19531H70.2441V4.39045H72.4396V2.19531Z" fill="var(--fill-0, white)"/>
<path id="Vector_637" d="M72.4396 6.58496H70.2441V8.78016H72.4396V6.58496Z" fill="var(--fill-0, white)"/>
<path id="Vector_638" d="M72.4396 8.78027H70.2441V10.9755H72.4396V8.78027Z" fill="var(--fill-0, white)"/>
<path id="Vector_639" d="M72.4396 10.9756H70.2441V13.1707H72.4396V10.9756Z" fill="var(--fill-0, white)"/>
<path id="Vector_640" d="M72.4396 13.1709H70.2441V15.3661H72.4396V13.1709Z" fill="var(--fill-0, white)"/>
<path id="Vector_641" d="M72.4396 17.5601H70.2441V19.7552H72.4396V17.5601Z" fill="var(--fill-0, white)"/>
<path id="Vector_642" d="M72.4396 24.1475H70.2441V26.3426H72.4396V24.1475Z" fill="var(--fill-0, white)"/>
<path id="Vector_643" d="M72.4396 26.3428H70.2441V28.538H72.4396V26.3428Z" fill="var(--fill-0, white)"/>
<path id="Vector_644" d="M72.4396 28.5366H70.2441V30.7317H72.4396V28.5366Z" fill="var(--fill-0, white)"/>
<path id="Vector_645" d="M72.4396 30.7319H70.2441V32.9271H72.4396V30.7319Z" fill="var(--fill-0, white)"/>
<path id="Vector_646" d="M72.4396 39.5127H70.2441V41.7078H72.4396V39.5127Z" fill="var(--fill-0, white)"/>
<path id="Vector_647" d="M72.4396 43.9023H70.2441V46.0975H72.4396V43.9023Z" fill="var(--fill-0, white)"/>
<path id="Vector_648" d="M72.4396 50.4878H70.2441V52.6829H72.4396V50.4878Z" fill="var(--fill-0, white)"/>
<path id="Vector_649" d="M72.4396 52.6831H70.2441V54.8783H72.4396V52.6831Z" fill="var(--fill-0, white)"/>
<path id="Vector_650" d="M72.4396 54.8784H70.2441V57.0734H72.4396V54.8784Z" fill="var(--fill-0, white)"/>
<path id="Vector_651" d="M72.4396 61.4644H70.2441V63.6599H72.4396V61.4644Z" fill="var(--fill-0, white)"/>
<path id="Vector_652" d="M72.4396 63.6592H70.2441V65.854H72.4396V63.6592Z" fill="var(--fill-0, white)"/>
<path id="Vector_653" d="M72.4396 70.2441H70.2441V72.4391H72.4396V70.2441Z" fill="var(--fill-0, white)"/>
<path id="Vector_654" d="M72.4396 72.4395H70.2441V74.6343H72.4396V72.4395Z" fill="var(--fill-0, white)"/>
<path id="Vector_655" d="M72.4396 74.6348H70.2441V76.8302H72.4396V74.6348Z" fill="var(--fill-0, white)"/>
<path id="Vector_656" d="M72.4396 76.8296H70.2441V79.025H72.4396V76.8296Z" fill="var(--fill-0, white)"/>
<path id="Vector_657" d="M72.4396 79.0249H70.2441V81.2198H72.4396V79.0249Z" fill="var(--fill-0, white)"/>
<path id="Vector_658" d="M74.6343 19.7572H72.4395V21.9524H74.6343V19.7572Z" fill="var(--fill-0, white)"/>
<path id="Vector_659" d="M74.6343 21.9519H72.4395V24.147H74.6343V21.9519Z" fill="var(--fill-0, white)"/>
<path id="Vector_660" d="M74.6343 24.1472H72.4395V26.3423H74.6343V24.1472Z" fill="var(--fill-0, white)"/>
<path id="Vector_661" d="M74.6343 30.7321H72.4395V32.9273H74.6343V30.7321Z" fill="var(--fill-0, white)"/>
<path id="Vector_662" d="M74.6343 50.4878H72.4395V52.6829H74.6343V50.4878Z" fill="var(--fill-0, white)"/>
<path id="Vector_663" d="M74.6343 52.6831H72.4395V54.8782H74.6343V52.6831Z" fill="var(--fill-0, white)"/>
<path id="Vector_664" d="M74.6343 57.0736H72.4395V59.2684H74.6343V57.0736Z" fill="var(--fill-0, white)"/>
<path id="Vector_665" d="M74.6343 63.6592H72.4395V65.8541H74.6343V63.6592Z" fill="var(--fill-0, white)"/>
<path id="Vector_666" d="M74.6343 70.2444H72.4395V72.4393H74.6343V70.2444Z" fill="var(--fill-0, white)"/>
<path id="Vector_667" d="M74.6343 79.0251H72.4395V81.2199H74.6343V79.0251Z" fill="var(--fill-0, white)"/>
<path id="Vector_668" d="M74.6343 81.2199H72.4395V83.4153H74.6343V81.2199Z" fill="var(--fill-0, white)"/>
<path id="Vector_669" d="M74.6343 83.4145H72.4395V85.6096H74.6343V83.4145Z" fill="var(--fill-0, white)"/>
<path id="Vector_670" d="M74.6343 85.6096H72.4395V87.8048H74.6343V85.6096Z" fill="var(--fill-0, white)"/>
<path id="Vector_671" d="M76.8302 0H74.6348V2.19514H76.8302V0Z" fill="var(--fill-0, white)"/>
<path id="Vector_672" d="M76.8302 2.19531H74.6348V4.39045H76.8302V2.19531Z" fill="var(--fill-0, white)"/>
<path id="Vector_673" d="M76.8302 4.39014H74.6348V6.58528H76.8302V4.39014Z" fill="var(--fill-0, white)"/>
<path id="Vector_674" d="M76.8302 6.58496H74.6348V8.78016H76.8302V6.58496Z" fill="var(--fill-0, white)"/>
<path id="Vector_675" d="M76.8302 8.78027H74.6348V10.9755H76.8302V8.78027Z" fill="var(--fill-0, white)"/>
<path id="Vector_676" d="M76.8302 10.9756H74.6348V13.1707H76.8302V10.9756Z" fill="var(--fill-0, white)"/>
<path id="Vector_677" d="M76.8302 13.1709H74.6348V15.3661H76.8302V13.1709Z" fill="var(--fill-0, white)"/>
<path id="Vector_678" d="M76.8302 26.3428H74.6348V28.538H76.8302V26.3428Z" fill="var(--fill-0, white)"/>
<path id="Vector_679" d="M76.8302 28.5366H74.6348V30.7317H76.8302V28.5366Z" fill="var(--fill-0, white)"/>
<path id="Vector_680" d="M76.8302 30.7319H74.6348V32.9271H76.8302V30.7319Z" fill="var(--fill-0, white)"/>
<path id="Vector_681" d="M76.8302 32.9268H74.6348V35.1219H76.8302V32.9268Z" fill="var(--fill-0, white)"/>
<path id="Vector_682" d="M76.8302 37.3184H74.6348V39.5135H76.8302V37.3184Z" fill="var(--fill-0, white)"/>
<path id="Vector_683" d="M76.8302 39.5127H74.6348V41.7078H76.8302V39.5127Z" fill="var(--fill-0, white)"/>
<path id="Vector_684" d="M76.8302 48.293H74.6348V50.4882H76.8302V48.293Z" fill="var(--fill-0, white)"/>
<path id="Vector_685" d="M76.8302 52.6831H74.6348V54.8783H76.8302V52.6831Z" fill="var(--fill-0, white)"/>
<path id="Vector_686" d="M76.8302 54.8784H74.6348V57.0734H76.8302V54.8784Z" fill="var(--fill-0, white)"/>
<path id="Vector_687" d="M76.8302 57.0737H74.6348V59.2686H76.8302V57.0737Z" fill="var(--fill-0, white)"/>
<path id="Vector_688" d="M76.8302 63.6592H74.6348V65.854H76.8302V63.6592Z" fill="var(--fill-0, white)"/>
<path id="Vector_689" d="M76.8302 68.0493H74.6348V70.2443H76.8302V68.0493Z" fill="var(--fill-0, white)"/>
<path id="Vector_690" d="M76.8302 70.2441H74.6348V72.4391H76.8302V70.2441Z" fill="var(--fill-0, white)"/>
<path id="Vector_691" d="M76.8302 74.6348H74.6348V76.8302H76.8302V74.6348Z" fill="var(--fill-0, white)"/>
<path id="Vector_692" d="M76.8302 79.0249H74.6348V81.2198H76.8302V79.0249Z" fill="var(--fill-0, white)"/>
<path id="Vector_693" d="M76.8302 83.4146H74.6348V85.6097H76.8302V83.4146Z" fill="var(--fill-0, white)"/>
<path id="Vector_694" d="M76.8302 85.6099H74.6348V87.805H76.8302V85.6099Z" fill="var(--fill-0, white)"/>
<path id="Vector_695" d="M79.0259 0H76.8311V2.19514H79.0259V0Z" fill="var(--fill-0, white)"/>
<path id="Vector_696" d="M79.0259 13.1714H76.8311V15.3666H79.0259V13.1714Z" fill="var(--fill-0, white)"/>
<path id="Vector_697" d="M79.0259 19.7573H76.8311V21.9525H79.0259V19.7573Z" fill="var(--fill-0, white)"/>
<path id="Vector_698" d="M79.0259 26.3428H76.8311V28.538H79.0259V26.3428Z" fill="var(--fill-0, white)"/>
<path id="Vector_699" d="M79.0259 28.5366H76.8311V30.7317H79.0259V28.5366Z" fill="var(--fill-0, white)"/>
<path id="Vector_700" d="M79.0259 32.9268H76.8311V35.1219H79.0259V32.9268Z" fill="var(--fill-0, white)"/>
<path id="Vector_701" d="M79.0259 37.3184H76.8311V39.5135H79.0259V37.3184Z" fill="var(--fill-0, white)"/>
<path id="Vector_702" d="M79.0259 39.5127H76.8311V41.7078H79.0259V39.5127Z" fill="var(--fill-0, white)"/>
<path id="Vector_703" d="M79.0259 50.4878H76.8311V52.6829H79.0259V50.4878Z" fill="var(--fill-0, white)"/>
<path id="Vector_704" d="M79.0259 57.0737H76.8311V59.2686H79.0259V57.0737Z" fill="var(--fill-0, white)"/>
<path id="Vector_705" d="M79.0259 59.2695H76.8311V61.4645H79.0259V59.2695Z" fill="var(--fill-0, white)"/>
<path id="Vector_706" d="M79.0259 63.6592H76.8311V65.854H79.0259V63.6592Z" fill="var(--fill-0, white)"/>
<path id="Vector_707" d="M79.0259 65.854H76.8311V68.0489H79.0259V65.854Z" fill="var(--fill-0, white)"/>
<path id="Vector_708" d="M79.0259 70.2441H76.8311V72.4391H79.0259V70.2441Z" fill="var(--fill-0, white)"/>
<path id="Vector_709" d="M79.0259 79.0249H76.8311V81.2198H79.0259V79.0249Z" fill="var(--fill-0, white)"/>
<path id="Vector_710" d="M79.0259 85.6099H76.8311V87.805H79.0259V85.6099Z" fill="var(--fill-0, white)"/>
<path id="Vector_711" d="M79.0259 87.8047H76.8311V89.9999H79.0259V87.8047Z" fill="var(--fill-0, white)"/>
<path id="Vector_712" d="M81.2171 0H79.0216V2.19514H81.2171V0Z" fill="var(--fill-0, white)"/>
<path id="Vector_713" d="M81.2171 4.38994H79.0216V6.58508H81.2171V4.38994Z" fill="var(--fill-0, white)"/>
<path id="Vector_714" d="M81.2171 6.5852H79.0216V8.7804H81.2171V6.5852Z" fill="var(--fill-0, white)"/>
<path id="Vector_715" d="M81.2171 8.78007H79.0216V10.9753H81.2171V8.78007Z" fill="var(--fill-0, white)"/>
<path id="Vector_716" d="M81.2171 13.1712H79.0216V15.3664H81.2171V13.1712Z" fill="var(--fill-0, white)"/>
<path id="Vector_717" d="M81.2171 17.5601H79.0216V19.7553H81.2171V17.5601Z" fill="var(--fill-0, white)"/>
<path id="Vector_718" d="M81.2171 19.7572H79.0216V21.9524H81.2171V19.7572Z" fill="var(--fill-0, white)"/>
<path id="Vector_719" d="M81.2171 28.5365H79.0216V30.7316H81.2171V28.5365Z" fill="var(--fill-0, white)"/>
<path id="Vector_720" d="M81.2171 32.9268H79.0216V35.122H81.2171V32.9268Z" fill="var(--fill-0, white)"/>
<path id="Vector_721" d="M81.2171 37.3182H79.0216V39.5134H81.2171V37.3182Z" fill="var(--fill-0, white)"/>
<path id="Vector_722" d="M81.2171 39.5129H79.0216V41.708H81.2171V39.5129Z" fill="var(--fill-0, white)"/>
<path id="Vector_723" d="M81.2171 46.0977H79.0216V48.2928H81.2171V46.0977Z" fill="var(--fill-0, white)"/>
<path id="Vector_724" d="M81.2171 50.4878H79.0216V52.6829H81.2171V50.4878Z" fill="var(--fill-0, white)"/>
<path id="Vector_725" d="M81.2171 54.8785H79.0216V57.0735H81.2171V54.8785Z" fill="var(--fill-0, white)"/>
<path id="Vector_726" d="M81.2171 61.4643H79.0216V63.6598H81.2171V61.4643Z" fill="var(--fill-0, white)"/>
<path id="Vector_727" d="M81.2171 63.6592H79.0216V65.8541H81.2171V63.6592Z" fill="var(--fill-0, white)"/>
<path id="Vector_728" d="M81.2171 68.0495H79.0216V70.2444H81.2171V68.0495Z" fill="var(--fill-0, white)"/>
<path id="Vector_729" d="M81.2171 70.2444H79.0216V72.4393H81.2171V70.2444Z" fill="var(--fill-0, white)"/>
<path id="Vector_730" d="M81.2171 72.4393H79.0216V74.6341H81.2171V72.4393Z" fill="var(--fill-0, white)"/>
<path id="Vector_731" d="M81.2171 74.6347H79.0216V76.8301H81.2171V74.6347Z" fill="var(--fill-0, white)"/>
<path id="Vector_732" d="M81.2171 76.8296H79.0216V79.025H81.2171V76.8296Z" fill="var(--fill-0, white)"/>
<path id="Vector_733" d="M81.2171 79.0251H79.0216V81.2199H81.2171V79.0251Z" fill="var(--fill-0, white)"/>
<path id="Vector_734" d="M81.2171 83.4145H79.0216V85.6096H81.2171V83.4145Z" fill="var(--fill-0, white)"/>
<path id="Vector_735" d="M83.4133 0H81.2178V2.19514H83.4133V0Z" fill="var(--fill-0, white)"/>
<path id="Vector_736" d="M83.4161 4.38994H81.2205V6.58508H83.4161V4.38994Z" fill="var(--fill-0, white)"/>
<path id="Vector_737" d="M83.4161 6.5852H81.2205V8.7804H83.4161V6.5852Z" fill="var(--fill-0, white)"/>
<path id="Vector_738" d="M83.4161 8.78007H81.2205V10.9753H83.4161V8.78007Z" fill="var(--fill-0, white)"/>
<path id="Vector_739" d="M83.4161 13.1712H81.2205V15.3664H83.4161V13.1712Z" fill="var(--fill-0, white)"/>
<path id="Vector_740" d="M83.4161 17.5601H81.2205V19.7553H83.4161V17.5601Z" fill="var(--fill-0, white)"/>
<path id="Vector_741" d="M83.4161 19.7572H81.2205V21.9524H83.4161V19.7572Z" fill="var(--fill-0, white)"/>
<path id="Vector_742" d="M83.4161 24.1472H81.2205V26.3423H83.4161V24.1472Z" fill="var(--fill-0, white)"/>
<path id="Vector_743" d="M83.4161 28.5365H81.2205V30.7316H83.4161V28.5365Z" fill="var(--fill-0, white)"/>
<path id="Vector_744" d="M83.4161 30.7321H81.2205V32.9273H83.4161V30.7321Z" fill="var(--fill-0, white)"/>
<path id="Vector_745" d="M83.4161 35.1223H81.2205V37.3174H83.4161V35.1223Z" fill="var(--fill-0, white)"/>
<path id="Vector_746" d="M83.4161 39.5129H81.2205V41.708H83.4161V39.5129Z" fill="var(--fill-0, white)"/>
<path id="Vector_747" d="M83.4161 41.7069H81.2205V43.9021H83.4161V41.7069Z" fill="var(--fill-0, white)"/>
<path id="Vector_748" d="M83.4161 43.9023H81.2205V46.0975H83.4161V43.9023Z" fill="var(--fill-0, white)"/>
<path id="Vector_749" d="M83.4161 50.4878H81.2205V52.6829H83.4161V50.4878Z" fill="var(--fill-0, white)"/>
<path id="Vector_750" d="M83.4161 52.6831H81.2205V54.8782H83.4161V52.6831Z" fill="var(--fill-0, white)"/>
<path id="Vector_751" d="M83.4161 57.0736H81.2205V59.2684H83.4161V57.0736Z" fill="var(--fill-0, white)"/>
<path id="Vector_752" d="M83.4161 61.4643H81.2205V63.6598H83.4161V61.4643Z" fill="var(--fill-0, white)"/>
<path id="Vector_753" d="M83.4161 63.6592H81.2205V65.8541H83.4161V63.6592Z" fill="var(--fill-0, white)"/>
<path id="Vector_754" d="M83.4161 65.8541H81.2205V68.0489H83.4161V65.8541Z" fill="var(--fill-0, white)"/>
<path id="Vector_755" d="M83.4161 79.0251H81.2205V81.2199H83.4161V79.0251Z" fill="var(--fill-0, white)"/>
<path id="Vector_756" d="M83.4161 81.2199H81.2205V83.4153H83.4161V81.2199Z" fill="var(--fill-0, white)"/>
<path id="Vector_757" d="M83.4161 83.4145H81.2205V85.6096H83.4161V83.4145Z" fill="var(--fill-0, white)"/>
<path id="Vector_758" d="M83.4161 87.8048H81.2205V90H83.4161V87.8048Z" fill="var(--fill-0, white)"/>
<path id="Vector_759" d="M85.6073 0H83.4121V2.19514H85.6073V0Z" fill="var(--fill-0, white)"/>
<path id="Vector_760" d="M85.6073 4.39014H83.4121V6.58528H85.6073V4.39014Z" fill="var(--fill-0, white)"/>
<path id="Vector_761" d="M85.6073 6.58496H83.4121V8.78016H85.6073V6.58496Z" fill="var(--fill-0, white)"/>
<path id="Vector_762" d="M85.6073 8.78027H83.4121V10.9755H85.6073V8.78027Z" fill="var(--fill-0, white)"/>
<path id="Vector_763" d="M85.6073 13.1714H83.4121V15.3666H85.6073V13.1714Z" fill="var(--fill-0, white)"/>
<path id="Vector_764" d="M85.6073 19.7573H83.4121V21.9525H85.6073V19.7573Z" fill="var(--fill-0, white)"/>
<path id="Vector_765" d="M85.6073 32.9268H83.4121V35.1219H85.6073V32.9268Z" fill="var(--fill-0, white)"/>
<path id="Vector_766" d="M85.6073 35.1221H83.4121V37.3173H85.6073V35.1221Z" fill="var(--fill-0, white)"/>
<path id="Vector_767" d="M85.6073 39.5127H83.4121V41.7078H85.6073V39.5127Z" fill="var(--fill-0, white)"/>
<path id="Vector_768" d="M85.6073 43.9023H83.4121V46.0975H85.6073V43.9023Z" fill="var(--fill-0, white)"/>
<path id="Vector_769" d="M85.6073 46.0977H83.4121V48.2928H85.6073V46.0977Z" fill="var(--fill-0, white)"/>
<path id="Vector_770" d="M85.6073 48.293H83.4121V50.4882H85.6073V48.293Z" fill="var(--fill-0, white)"/>
<path id="Vector_771" d="M85.6073 52.6831H83.4121V54.8783H85.6073V52.6831Z" fill="var(--fill-0, white)"/>
<path id="Vector_772" d="M85.6073 57.0737H83.4121V59.2686H85.6073V57.0737Z" fill="var(--fill-0, white)"/>
<path id="Vector_773" d="M85.6073 59.2695H83.4121V61.4645H85.6073V59.2695Z" fill="var(--fill-0, white)"/>
<path id="Vector_774" d="M85.6073 61.4644H83.4121V63.6599H85.6073V61.4644Z" fill="var(--fill-0, white)"/>
<path id="Vector_775" d="M85.6073 70.2441H83.4121V72.4391H85.6073V70.2441Z" fill="var(--fill-0, white)"/>
<path id="Vector_776" d="M85.6073 74.6348H83.4121V76.8302H85.6073V74.6348Z" fill="var(--fill-0, white)"/>
<path id="Vector_777" d="M85.6073 85.6099H83.4121V87.805H85.6073V85.6099Z" fill="var(--fill-0, white)"/>
<path id="Vector_778" d="M85.6073 87.8047H83.4121V89.9999H85.6073V87.8047Z" fill="var(--fill-0, white)"/>
<path id="Vector_779" d="M87.8028 0H85.6084V2.19514H87.8028V0Z" fill="var(--fill-0, white)"/>
<path id="Vector_780" d="M87.8028 13.1709H85.6084V15.3661H87.8028V13.1709Z" fill="var(--fill-0, white)"/>
<path id="Vector_781" d="M87.8028 21.9517H85.6084V24.1468H87.8028V21.9517Z" fill="var(--fill-0, white)"/>
<path id="Vector_782" d="M87.8028 24.1475H85.6084V26.3426H87.8028V24.1475Z" fill="var(--fill-0, white)"/>
<path id="Vector_783" d="M87.8028 26.3428H85.6084V28.538H87.8028V26.3428Z" fill="var(--fill-0, white)"/>
<path id="Vector_784" d="M87.8028 28.5366H85.6084V30.7317H87.8028V28.5366Z" fill="var(--fill-0, white)"/>
<path id="Vector_785" d="M87.8028 41.707H85.6084V43.9022H87.8028V41.707Z" fill="var(--fill-0, white)"/>
<path id="Vector_786" d="M87.8028 43.9023H85.6084V46.0975H87.8028V43.9023Z" fill="var(--fill-0, white)"/>
<path id="Vector_787" d="M87.8028 46.0977H85.6084V48.2928H87.8028V46.0977Z" fill="var(--fill-0, white)"/>
<path id="Vector_788" d="M87.8028 52.6831H85.6084V54.8783H87.8028V52.6831Z" fill="var(--fill-0, white)"/>
<path id="Vector_789" d="M87.8028 54.8784H85.6084V57.0734H87.8028V54.8784Z" fill="var(--fill-0, white)"/>
<path id="Vector_790" d="M87.8028 57.0737H85.6084V59.2686H87.8028V57.0737Z" fill="var(--fill-0, white)"/>
<path id="Vector_791" d="M87.8028 59.2695H85.6084V61.4645H87.8028V59.2695Z" fill="var(--fill-0, white)"/>
<path id="Vector_792" d="M87.8028 68.0493H85.6084V70.2443H87.8028V68.0493Z" fill="var(--fill-0, white)"/>
<path id="Vector_793" d="M87.8028 70.2441H85.6084V72.4391H87.8028V70.2441Z" fill="var(--fill-0, white)"/>
<path id="Vector_794" d="M87.8028 74.6348H85.6084V76.8302H87.8028V74.6348Z" fill="var(--fill-0, white)"/>
<path id="Vector_795" d="M87.8028 76.8296H85.6084V79.025H87.8028V76.8296Z" fill="var(--fill-0, white)"/>
<path id="Vector_796" d="M87.8028 79.0249H85.6084V81.2198H87.8028V79.0249Z" fill="var(--fill-0, white)"/>
<path id="Vector_797" d="M87.8028 83.4146H85.6084V85.6097H87.8028V83.4146Z" fill="var(--fill-0, white)"/>
<path id="Vector_798" d="M90.0007 0H87.8047V2.19514H90.0007V0Z" fill="var(--fill-0, white)"/>
<path id="Vector_799" d="M90.0007 2.19531H87.8047V4.39045H90.0007V2.19531Z" fill="var(--fill-0, white)"/>
<path id="Vector_800" d="M90.0007 4.39014H87.8047V6.58528H90.0007V4.39014Z" fill="var(--fill-0, white)"/>
<path id="Vector_801" d="M90.0007 6.58496H87.8047V8.78016H90.0007V6.58496Z" fill="var(--fill-0, white)"/>
<path id="Vector_802" d="M90.0007 8.78027H87.8047V10.9755H90.0007V8.78027Z" fill="var(--fill-0, white)"/>
<path id="Vector_803" d="M90.0007 10.9756H87.8047V13.1707H90.0007V10.9756Z" fill="var(--fill-0, white)"/>
<path id="Vector_804" d="M90.0007 13.1714H87.8047V15.3666H90.0007V13.1714Z" fill="var(--fill-0, white)"/>
<path id="Vector_805" d="M90.0007 26.3428H87.8047V28.538H90.0007V26.3428Z" fill="var(--fill-0, white)"/>
<path id="Vector_806" d="M90.0007 28.5366H87.8047V30.7317H90.0007V28.5366Z" fill="var(--fill-0, white)"/>
<path id="Vector_807" d="M90.0007 32.9268H87.8047V35.1219H90.0007V32.9268Z" fill="var(--fill-0, white)"/>
<path id="Vector_808" d="M90.0007 39.5127H87.8047V41.7078H90.0007V39.5127Z" fill="var(--fill-0, white)"/>
<path id="Vector_809" d="M90.0007 41.707H87.8047V43.9022H90.0007V41.707Z" fill="var(--fill-0, white)"/>
<path id="Vector_810" d="M90.0007 54.8784H87.8047V57.0734H90.0007V54.8784Z" fill="var(--fill-0, white)"/>
<path id="Vector_811" d="M90.0007 59.2695H87.8047V61.4645H90.0007V59.2695Z" fill="var(--fill-0, white)"/>
<path id="Vector_812" d="M90.0007 63.6592H87.8047V65.854H90.0007V63.6592Z" fill="var(--fill-0, white)"/>
<path id="Vector_813" d="M90.0007 65.854H87.8047V68.0489H90.0007V65.854Z" fill="var(--fill-0, white)"/>
<path id="Vector_814" d="M90.0007 68.0493H87.8047V70.2443H90.0007V68.0493Z" fill="var(--fill-0, white)"/>
<path id="Vector_815" d="M90.0007 83.4146H87.8047V85.6097H90.0007V83.4146Z" fill="var(--fill-0, white)"/>
<path id="Vector_816" d="M90.0007 85.6099H87.8047V87.805H90.0007V85.6099Z" fill="var(--fill-0, white)"/>
</g>
</svg>
