<svg preserveAspectRatio="none" width="100%" height="100%" overflow="visible" style="display: block;" viewBox="0 0 15 15.7106" fill="none" xmlns="http://www.w3.org/2000/svg">
<g id="Group 1171275139">
<path id="Vector" fill-rule="evenodd" clip-rule="evenodd" d="M0.340291 15.4067C0.222941 15.2831 0.13366 15.1384 0.0778965 14.9813C0.0221339 14.8243 0.00106105 14.6582 0.0159666 14.4933V14.615V1.09656V1.21835C0.0159666 0.792093 0.145696 0.48762 0.340291 0.304936L8.44835 7.85581L0.340291 15.4067Z" fill="url(#paint0_linear_0_29)"/>
<path id="Vector_2" fill-rule="evenodd" clip-rule="evenodd" d="M11.0427 10.473H11.1076L14.3508 8.70703L11.1076 10.4121L11.0427 10.473ZM11.0427 10.3512L8.44815 7.85453L11.1076 5.35788L14.3508 7.06289C14.74 7.30649 14.9994 7.55005 14.9994 7.85453C14.9994 8.159 14.74 8.46347 14.3508 8.64617L11.1076 10.3512H11.0427Z" fill="url(#paint1_linear_0_29)"/>
<path id="Vector_3" fill-rule="evenodd" clip-rule="evenodd" d="M0.923972 15.7104C0.664516 15.7104 0.469921 15.5886 0.340191 15.4668C0.493226 15.6168 0.70288 15.7043 0.923972 15.7104ZM0.923972 15.5886C0.664516 15.5886 0.469921 15.5277 0.340191 15.406L8.44827 7.85505L11.1077 10.3517L1.70235 15.406L0.988837 15.5886H0.923972Z" fill="url(#paint2_linear_0_29)"/>
<path id="Vector_4" fill-rule="evenodd" clip-rule="evenodd" d="M8.38339 7.85533L0.340191 0.304486C0.469921 0.1827 0.664516 0.121805 0.923972 0.121805C1.11857 0.121805 1.37803 0.121806 1.63748 0.304486L11.0429 5.4196L8.44827 7.85533H8.38339Z" fill="url(#paint3_linear_0_29)"/>
<path id="Vector_5" d="M0.988991 15.6807C1.18359 15.6807 1.41061 15.6045 1.63764 15.4828L11.0592 10.459L1.65385 15.4828C1.44643 15.5979 1.21316 15.6656 0.972772 15.6807H0.988991Z" fill="var(--fill-0, white)"/>
<path id="Vector_6" fill-rule="evenodd" clip-rule="evenodd" d="M0.924695 15.7105C0.665234 15.7105 0.470644 15.5888 0.340914 15.4669V15.4061C0.470644 15.5278 0.665234 15.5888 0.924695 15.5888C1.11929 15.5888 1.37875 15.5888 1.63821 15.4061L11.0436 10.2909L11.1084 10.3518L1.63821 15.4061C1.42543 15.5413 1.1803 15.6249 0.924695 15.6496V15.7105Z" fill="url(#paint4_linear_0_29)"/>
<path id="Vector_7" fill-rule="evenodd" clip-rule="evenodd" d="M0.276074 15.4668C0.170162 15.3385 0.0926493 15.1916 0.0480921 15.0347C0.00353489 14.8779 -0.00716691 14.7142 0.0166165 14.5534V14.4316C0.0166165 14.797 0.0814811 15.1015 0.276074 15.2841H0.34094V15.406L0.276074 15.4668Z" fill="url(#paint5_linear_0_29)"/>
<path id="Vector_8" fill-rule="evenodd" clip-rule="evenodd" d="M11.1081 10.4126L14.3513 8.64669C14.6757 8.40313 14.9351 8.15952 15 7.85505C15 7.97688 15 8.09866 14.8703 8.15952C14.8054 8.40313 14.6108 8.58583 14.2865 8.76847L11.1081 10.4126Z" fill="url(#paint6_linear_0_29)"/>
<path id="Vector_9" d="M14.9837 7.85512C14.9837 7.55064 14.7567 7.21571 14.3027 6.97215L11.1243 5.29755V5.26709L14.2864 6.97215C14.7405 7.21571 14.9675 7.53541 14.9675 7.85512H14.9837Z" fill="var(--fill-0, white)"/>
<path id="Vector_10" fill-rule="evenodd" clip-rule="evenodd" d="M14.9351 7.85511C14.9351 7.55064 14.6756 7.24617 14.2864 7.06347L11.0432 5.35841L11.1081 5.29755L14.3513 7.00256C14.7405 7.24617 14.9999 7.55064 14.9999 7.85511H14.9351Z" fill="url(#paint7_linear_0_29)"/>
<path id="Vector_11" d="M8.30498e-05 1.02C0.0325151 0.380614 0.405486 0.030471 0.908188 0.030471C0.697379 0.030471 0.502784 0.0913651 0.340621 0.228377L0.291975 0.258825C0.100278 0.471308 -0.00335873 0.741569 8.30498e-05 1.02Z" fill="var(--fill-0, white)"/>
<path id="Vector_12" fill-rule="evenodd" clip-rule="evenodd" d="M0.0161422 1.15744V1.03565C0.0161422 0.670287 0.145871 0.426714 0.275601 0.24403L0.340466 0.304924C0.145871 0.487608 0.0161422 0.792076 0.0161422 1.21833V1.15744Z" fill="url(#paint8_linear_0_29)"/>
<path id="Vector_13" fill-rule="evenodd" clip-rule="evenodd" d="M11.0429 5.35868L1.63748 0.304486L0.923972 0.121805C0.664516 0.121805 0.469921 0.1827 0.340191 0.304486V0.243592C0.469921 0.121805 0.664516 1.76681e-05 0.923972 1.76681e-05C1.11857 1.76681e-05 1.37803 0.0609118 1.63748 0.243592L11.1077 5.29782L11.0429 5.35868Z" fill="url(#paint9_linear_0_29)"/>
</g>
<defs>
<linearGradient id="paint0_linear_0_29" x1="7.46211" y1="1.11958" x2="-2.73709" y2="-9.74463" gradientUnits="userSpaceOnUse">
<stop stop-color="#00A0FF"/>
<stop offset="1" stop-color="#00E2FF"/>
</linearGradient>
<linearGradient id="paint1_linear_0_29" x1="15.4535" y1="7.85453" x2="-0.241785" y2="7.85453" gradientUnits="userSpaceOnUse">
<stop stop-color="#FFDF00"/>
<stop offset="1" stop-color="#FF9C00"/>
</linearGradient>
<linearGradient id="paint2_linear_0_29" x1="9.33445" y1="9.62042" x2="-4.49643" y2="-5.11226" gradientUnits="userSpaceOnUse">
<stop stop-color="#FF3A44"/>
<stop offset="1" stop-color="#C31162"/>
</linearGradient>
<linearGradient id="paint3_linear_0_29" x1="-1.6103" y1="-3.94994" x2="4.56577" y2="-10.5287" gradientUnits="userSpaceOnUse">
<stop stop-color="#31A070"/>
<stop offset="1" stop-color="#00EF75"/>
</linearGradient>
<linearGradient id="paint4_linear_0_29" x1="9.33518" y1="9.62052" x2="-4.49571" y2="-5.11216" gradientUnits="userSpaceOnUse">
<stop stop-color="#CC2D36"/>
<stop offset="1" stop-color="#9C0E4D"/>
</linearGradient>
<linearGradient id="paint5_linear_0_29" x1="7.46274" y1="1.11882" x2="-2.73646" y2="-9.7454" gradientUnits="userSpaceOnUse">
<stop stop-color="#008CDF"/>
<stop offset="1" stop-color="#00C6DF"/>
</linearGradient>
<linearGradient id="paint6_linear_0_29" x1="15.454" y1="7.85505" x2="-0.241248" y2="7.85505" gradientUnits="userSpaceOnUse">
<stop stop-color="#DFC400"/>
<stop offset="1" stop-color="#DF8900"/>
</linearGradient>
<linearGradient id="paint7_linear_0_29" x1="15.454" y1="7.85511" x2="-0.24129" y2="7.85511" gradientUnits="userSpaceOnUse">
<stop stop-color="#FFE83F"/>
<stop offset="1" stop-color="#FFB53F"/>
</linearGradient>
<linearGradient id="paint8_linear_0_29" x1="7.46226" y1="1.11956" x2="-2.73691" y2="-9.74462" gradientUnits="userSpaceOnUse">
<stop stop-color="#3FB8FF"/>
<stop offset="1" stop-color="#3FE9FF"/>
</linearGradient>
<linearGradient id="paint9_linear_0_29" x1="-1.6103" y1="-3.94994" x2="4.56576" y2="-10.5287" gradientUnits="userSpaceOnUse">
<stop stop-color="#64B895"/>
<stop offset="1" stop-color="#3FF497"/>
</linearGradient>
</defs>
</svg>
