<svg width="24" height="24" viewBox="0 0 24 24" fill="none" xmlns="http://www.w3.org/2000/svg">
  <path d="M15.5562 14.5477L15.1007 15.0272C15.1007 15.0272 14.0181 16.167 11.0631 13.0559C8.10812 9.94484 9.1907 8.80507 9.1907 8.80507L9.47752 8.50311C10.1841 7.75924 10.2507 6.56497 9.63424 5.6931L8.37326 3.90962C7.61028 2.8305 6.13596 2.68795 5.26145 3.60864L3.69185 5.26114C3.25823 5.71766 2.96765 6.30945 3.00289 6.96594C3.09304 8.64546 3.81071 12.2591 7.81536 16.4752C12.0621 20.9462 16.0468 21.1239 17.6763 20.9631C18.1917 20.9122 18.6399 20.6343 19.0011 20.254L20.4217 18.7584C21.3806 17.7489 21.1102 16.0182 19.8833 15.312L17.9728 14.2123C17.1672 13.7486 16.1858 13.8848 15.5562 14.5477Z" fill="#00BFFF"/>
  <path d="M1.25949 1.87983C1.32569 1.47094 1.71222 1.19357 2.12111 1.25976C2.14642 1.26461 2.22786 1.27983 2.27053 1.28933C2.35585 1.30834 2.47488 1.33759 2.62329 1.38082C2.92007 1.46726 3.33467 1.60967 3.83229 1.8378C4.82857 2.29456 6.15438 3.09356 7.53018 4.46936C8.90598 5.84516 9.70499 7.17097 10.1617 8.16725C10.3899 8.66487 10.5323 9.07947 10.6187 9.37625C10.6619 9.52466 10.6912 9.64369 10.7102 9.72901C10.7197 9.77168 10.7267 9.80594 10.7315 9.83125L10.7372 9.86245C10.8034 10.2713 10.5286 10.6738 10.1197 10.7401C9.71199 10.8061 9.32789 10.53 9.26006 10.1231C9.25797 10.1121 9.25224 10.0828 9.24608 10.0551C9.23374 9.9997 9.2124 9.91188 9.17857 9.79572C9.11089 9.56339 8.99336 9.21806 8.7982 8.79238C8.40837 7.94207 7.70738 6.76789 6.46952 5.53002C5.23166 4.29216 4.05747 3.59117 3.20716 3.20134C2.78148 3.00618 2.43615 2.88865 2.20381 2.82097C2.08766 2.78714 1.94167 2.75363 1.88628 2.7413C1.47931 2.67347 1.19348 2.28755 1.25949 1.87983Z" fill="#00BFFF"/>
  <path fill-rule="evenodd" clip-rule="evenodd" d="M1.48574 5.3293C1.59953 4.93102 2.01464 4.7004 2.41292 4.81419L2.20688 5.53534C2.41292 4.81419 2.41292 4.81419 2.41292 4.81419L2.41436 4.81461L2.41589 4.81505L2.41923 4.81602L2.42698 4.81834L2.44676 4.8245C2.46184 4.82932 2.48067 4.8356 2.50312 4.84357C2.54804 4.85951 2.60739 4.88217 2.6802 4.91337C2.82588 4.97581 3.02495 5.07223 3.26946 5.21694C3.75892 5.50662 4.42711 5.9878 5.21208 6.77277C5.99706 7.55775 6.47823 8.22593 6.76792 8.7154C6.91263 8.95991 7.00905 9.15897 7.07148 9.30466C7.10268 9.37746 7.12535 9.43682 7.14129 9.48173C7.14925 9.50418 7.15553 9.52301 7.16036 9.53809L7.16652 9.55788L7.16883 9.56563L7.16981 9.56896L7.17025 9.5705C7.17025 9.5705 7.17066 9.57194 6.44952 9.77798L7.17066 9.57194C7.28446 9.97021 7.05384 10.3853 6.65556 10.4991C6.26067 10.6119 5.84922 10.3862 5.73134 9.99413L5.72765 9.98335C5.72231 9.96832 5.71128 9.93874 5.69276 9.89554C5.65576 9.8092 5.58867 9.66797 5.47705 9.47938C5.25408 9.10264 4.85138 8.53339 4.15142 7.83343C3.45147 7.13348 2.88222 6.73078 2.50548 6.50781C2.31689 6.39619 2.17566 6.32909 2.08932 6.29209C2.04612 6.27358 2.01654 6.26254 2.00151 6.25721L1.99073 6.25352C1.59867 6.13564 1.37291 5.72419 1.48574 5.3293Z" fill="#00BFFF"/>
</svg>
