<svg preserveAspectRatio="none" width="100%" height="100%" overflow="visible" style="display: block;" viewBox="0 0 285 94.2943" fill="none" xmlns="http://www.w3.org/2000/svg">
<g id="Layer 1">
<path id="Vector" fill-rule="evenodd" clip-rule="evenodd" d="M56.6349 62.8653H35.3228C32.752 62.8653 30.6549 65.0229 30.6549 67.6521V89.5074C30.6549 92.1438 32.7589 94.2943 35.3228 94.2943H57.0739C60.1533 94.2943 62.1389 93.4441 64.2987 91.2221L88.9689 65.9231C91.1147 63.7226 91.9647 61.7721 91.9647 58.5142V36.2088C91.9647 33.5724 89.8607 31.4219 87.2968 31.4219H65.9847C63.4138 31.4219 61.3168 33.5796 61.3168 36.2088V58.0641C61.3168 60.7004 59.2127 62.851 56.6489 62.851M119.666 86.6925C118.432 86.6925 117.311 86.2424 116.565 85.1993V86.4353H114.942V74.3395H116.739V79.1478C117.52 78.269 118.481 77.8689 119.638 77.8689C122.083 77.8689 123.727 79.8408 123.727 82.2771C123.727 84.7134 122.118 86.6853 119.666 86.6853V86.6925ZM119.338 85.0564C120.927 85.0564 121.93 83.8775 121.93 82.2843C121.93 80.691 120.954 79.5122 119.338 79.5122C117.722 79.5122 116.739 80.6767 116.739 82.2843C116.739 83.8918 117.743 85.0564 119.338 85.0564ZM126.152 90.2076C125.539 90.2076 124.981 90.079 124.445 89.7647L124.856 88.1857C125.163 88.3857 125.588 88.5215 125.957 88.5215C126.744 88.5215 127.134 88.1285 127.371 87.3855L127.643 86.5782L124.445 78.1261H126.417L128.66 84.5777L130.848 78.1261H132.757L129.252 87.6427C128.667 89.1859 127.859 90.2076 126.145 90.2076H126.152ZM138.428 86.4424V74.6824H142.58C144.782 74.6824 146.739 75.8327 146.739 78.3047C146.739 80.9268 144.858 81.9056 142.538 81.9056H140.26V86.4424H138.428ZM140.26 80.2909H142.559C143.834 80.2909 144.9 79.8122 144.9 78.3405C144.9 76.8687 143.841 76.3257 142.573 76.3257H140.253V80.2909H140.26ZM148.572 86.4424V78.1261H150.376V79.2764C150.683 78.7548 151.052 78.3905 151.491 78.1761C151.93 77.9689 152.397 77.8618 152.898 77.8618C153.198 77.8618 153.497 77.8903 153.79 77.9618L153.553 79.8694C153.226 79.7694 152.884 79.7051 152.543 79.7051C151.247 79.7051 150.369 80.5696 150.369 81.9056V86.4353H148.565L148.572 86.4424ZM158.827 86.6925C156.389 86.6925 154.438 84.8063 154.438 82.2843C154.438 79.7622 156.417 77.8761 158.834 77.8761C161.252 77.8761 163.223 79.7551 163.223 82.2843C163.223 84.8134 161.252 86.6925 158.827 86.6925ZM158.827 85.0564C160.423 85.0564 161.426 83.8847 161.426 82.2843C161.426 80.6839 160.43 79.5122 158.827 79.5122C157.225 79.5122 156.235 80.6767 156.235 82.2843C156.235 83.8918 157.239 85.0564 158.827 85.0564ZM169.758 86.6925C168.518 86.6925 167.404 86.2424 166.658 85.1993V86.4353H165.035V74.3395H166.825V79.1478C167.606 78.269 168.567 77.8689 169.724 77.8689C172.169 77.8689 173.813 79.8408 173.813 82.2771C173.813 84.7134 172.211 86.6853 169.752 86.6853L169.758 86.6925ZM169.431 85.0564C171.02 85.0564 172.023 83.8775 172.023 82.2843C172.023 80.691 171.047 79.5122 169.431 79.5122C167.815 79.5122 166.832 80.6767 166.832 82.2843C166.832 83.8918 167.836 85.0564 169.431 85.0564ZM179.408 86.6925C176.969 86.6925 175.019 84.8063 175.019 82.2843C175.019 79.7622 177.004 77.8761 179.422 77.8761C181.839 77.8761 183.811 79.7551 183.811 82.2843C183.811 84.8134 181.839 86.6925 179.408 86.6925ZM179.408 85.0564C181.003 85.0564 182.007 83.8847 182.007 82.2843C182.007 80.6839 181.017 79.5122 179.408 79.5122C177.798 79.5122 176.816 80.6767 176.816 82.2843C176.816 83.8918 177.819 85.0564 179.408 85.0564ZM184.501 86.4496L187.434 82.2628L184.675 78.119H186.946L188.674 80.9339L190.346 78.119H192.562L189.879 82.2128L192.784 86.4424H190.471L188.604 83.5203L186.709 86.4281L184.501 86.4496ZM174.886 55.9064C177.575 55.9064 179.268 53.8774 179.268 51.191C179.268 48.5046 177.603 46.4756 174.886 46.4756C172.169 46.4756 170.511 48.4761 170.511 51.191C170.511 53.9059 172.211 55.9064 174.886 55.9064ZM174.886 63.5369C167.926 63.5369 162.011 58.5714 162.011 51.191C162.011 43.8106 168.059 38.8451 174.886 38.8451C181.714 38.8451 187.761 43.7963 187.761 51.191C187.761 58.5857 181.721 63.5369 174.886 63.5369ZM143.799 62.8653V39.5167H152.557V41.9388C153.769 39.6811 156.124 38.7951 158.535 38.7951C159.468 38.7951 160.172 38.9309 161.071 39.1095L160.088 48.3117C158.953 47.8402 157.719 47.5901 156.5 47.5901C154.055 47.5901 152.557 48.9405 152.557 51.4982V62.8581H143.799V62.8653ZM123.79 45.6682H127.469C129.698 45.6682 131.412 45.0109 131.412 42.4389C131.412 39.8668 129.747 39.1595 127.517 39.1595H123.797V45.6682H123.79ZM202.552 63.5369C195.592 63.5369 189.81 58.5428 189.81 51.191C189.81 43.8392 195.871 38.8451 202.81 38.8451C206.182 38.8451 209.471 39.7597 212.132 41.9459L208.412 48.5475C207.011 47.19 205.353 46.4827 203.423 46.4827C200.448 46.4827 198.435 48.0045 198.435 51.1981C198.435 54.3918 200.532 55.9136 203.472 55.9136C205.639 55.9136 207.422 55.0276 208.99 53.5344L212.313 60.3146C209.624 62.3651 205.896 63.544 202.552 63.544V63.5369ZM228.275 53.4273C227.703 53.3344 227.153 53.2701 226.609 53.2415C225.111 53.1558 221.928 53.2415 221.928 55.4349C221.928 56.8924 223.37 57.2568 224.533 57.2568C227.069 57.2568 228.275 55.985 228.275 53.4344V53.4273ZM241.777 62.8653V39.5239H250.534V41.9459C251.739 39.6882 254.101 38.8023 256.512 38.8023C257.445 38.8023 258.149 38.938 259.048 39.1166L258.066 48.3189C256.93 47.8473 255.704 47.5973 254.477 47.5973C252.032 47.5973 250.541 48.9476 250.541 51.5054V62.8653H241.784H241.777ZM273.163 63.5369C265.813 63.5369 260.427 58.9 260.427 51.1481C260.427 43.3962 265.966 38.8451 273.079 38.8451C281.614 38.8451 286.31 45.511 284.68 53.7059H268.265C268.398 55.1277 269.582 55.9779 270.801 56.4066C271.547 56.6709 272.39 56.8067 273.337 56.8067C276.082 56.8067 278.416 56.1779 280.778 54.7419L283.314 60.6647C280.987 62.4795 276.047 63.5369 273.156 63.5369H273.163ZM268.83 47.8688H276.445C276.445 45.8897 274.459 45.1324 272.808 45.1324C271.157 45.1324 269.004 45.8897 268.823 47.8688H268.83ZM228.205 48.2331C222.91 47.9331 214.006 48.5975 214.006 55.9493C214.006 60.7005 217.587 63.5369 222.018 63.5369C224.617 63.5369 227.501 62.7938 229.152 60.5718V62.8581H236.593V48.9405C236.593 41.703 231.849 38.6165 225.258 38.6165C221.739 38.6165 218.117 39.5667 215.1 41.4458L217.246 47.4187C219.043 46.0398 221.496 45.3539 223.725 45.3539C225.822 45.3539 227.794 45.8468 228.205 48.2331ZM114.949 62.8653V31.4362H128.04C134.624 31.4362 140.253 35.0014 140.253 42.3031C140.253 50.0264 134.714 53.1701 127.817 53.1701H123.79V62.8724H114.949V62.8653ZM35.3228 31.4362H56.6349C59.2058 31.4362 61.3028 29.2785 61.3028 26.6493V4.78688C61.3028 2.15052 59.1988 0 56.6349 0H34.8839C31.8045 0 29.8189 0.850207 27.6591 3.07217L2.98885 28.364C0.84301 30.5646 0 32.515 0 35.773V58.0784C0 60.7147 2.10404 62.8653 4.66791 62.8653H25.98C28.5509 62.8653 30.6479 60.7076 30.6479 58.0784V36.2231C30.6479 33.5867 32.752 31.4362 35.3158 31.4362H35.3228Z" fill="var(--fill-0, #F8FAFC)"/>
</g>
</svg>
