<svg preserveAspectRatio="none" width="100%" height="100%" overflow="visible" style="display: block;" viewBox="0 0 15.8333 19.1667" fill="none" xmlns="http://www.w3.org/2000/svg">
<g id="Vector">
<path fill-rule="evenodd" clip-rule="evenodd" d="M0.663125 3.37066C0.94129 1.49864 2.43626 0 4.33283 0C5.46821 0 6.47174 0.546952 7.144 1.38353C7.36279 1.6558 7.31893 2.05348 7.04603 2.27176C6.77313 2.49005 6.37453 2.44629 6.15573 2.17402C5.69797 1.60437 5.0443 1.26373 4.33283 1.26373C3.21327 1.26373 2.20483 2.13217 1.94684 3.37501C2.07183 3.39084 2.19332 3.44394 2.29345 3.53512C2.5518 3.77037 2.57009 4.17003 2.33429 4.42779L1.71771 5.10178C1.59771 5.23295 1.42792 5.30768 1.24992 5.30768C1.07192 5.30768 0.902131 5.23295 0.782133 5.10178L0.165551 4.42779C-0.0702474 4.17003 -0.0519646 3.77037 0.206387 3.53512C0.335805 3.41727 0.500916 3.36304 0.663125 3.37066ZM7.61675 2.69597C7.79475 2.69597 7.96454 2.7707 8.08454 2.90187L8.70112 3.57586C8.93692 3.83361 8.91864 4.23327 8.66029 4.46853C8.53087 4.58637 8.36575 4.64061 8.20354 4.63299C7.92538 6.50501 6.43041 8.00365 4.53384 8.00365C3.47785 8.00365 2.53459 7.53004 1.86725 6.78994C1.63332 6.5305 1.65448 6.13098 1.91452 5.89759C2.17456 5.6642 2.57501 5.68531 2.80894 5.94475C3.2598 6.44477 3.87106 6.73991 4.53384 6.73991C5.6534 6.73991 6.66184 5.87148 6.91983 4.62864C6.79485 4.6128 6.67335 4.5597 6.57322 4.46853C6.31487 4.23327 6.29659 3.83361 6.53238 3.57586L7.14897 2.90187C7.26896 2.7707 7.43875 2.69597 7.61675 2.69597Z" fill="#1C274C"/>
<path fill-rule="evenodd" clip-rule="evenodd" d="M15.8333 9.0568V12.4268C15.8333 15.604 15.8333 17.1926 14.844 18.1796C13.8547 19.1667 12.2624 19.1667 9.07778 19.1667C5.89318 19.1667 4.30088 19.1667 3.31155 18.1796C2.32223 17.1926 2.32223 15.604 2.32223 12.4268V10.9833C2.32223 10.7595 2.32223 10.6476 2.3434 10.5551C2.41558 10.2396 2.66252 9.99321 2.97876 9.92119C3.07152 9.90007 3.18379 9.90007 3.40833 9.90007C4.75301 9.90007 5.42535 9.90007 5.98091 9.77381C7.88004 9.34219 9.36305 7.86262 9.79567 5.96788C9.92222 5.41361 9.92222 4.7436 9.92222 3.40359C9.92222 3.1813 9.92222 3.07015 9.94386 2.97663C10.017 2.66043 10.2751 2.40813 10.5934 2.34156C10.6876 2.32187 10.7955 2.32405 11.0112 2.32842C12.9539 2.36771 14.0792 2.54085 14.844 3.30392C15.8333 4.29096 15.8333 5.87957 15.8333 9.0568ZM6.54445 16.0073C6.19467 16.0073 5.91111 16.2902 5.91111 16.6392C5.91111 16.9881 6.19467 17.271 6.54445 17.271H11.6111C11.9609 17.271 12.2444 16.9881 12.2444 16.6392C12.2444 16.2902 11.9609 16.0073 11.6111 16.0073H6.54445Z" fill="var(--fill-0, #64748B)"/>
</g>
</svg>
