<svg preserveAspectRatio="none" width="100%" height="100%" overflow="visible" style="display: block;" viewBox="0 0 16.6667 14.7917" fill="none" xmlns="http://www.w3.org/2000/svg">
<g id="Vector">
<path d="M8.40319 1.25C6.75411 1.25 5.33913 2.2586 4.74427 3.69499C4.6122 4.0139 4.2466 4.16536 3.92769 4.03329C3.60878 3.90122 3.45732 3.53562 3.58939 3.21671C4.37096 1.3295 6.23108 0 8.40319 0C10.5753 0 12.4354 1.3295 13.217 3.21671C13.3491 3.53562 13.1976 3.90122 12.8787 4.03329C12.5598 4.16536 12.1942 4.0139 12.0621 3.69499C11.4672 2.2586 10.0523 1.25 8.40319 1.25Z" fill="var(--fill-0, #64748B)"/>
<path d="M8.4038 3.33333C7.55185 3.33333 6.83111 3.90204 6.60356 4.68183C6.50686 5.01319 6.15986 5.20343 5.8285 5.10673C5.49714 5.01004 5.30691 4.66303 5.4036 4.33168C5.78255 3.03308 6.98145 2.08333 8.4038 2.08333C9.82615 2.08333 11.025 3.03308 11.404 4.33168C11.5007 4.66303 11.3105 5.01004 10.9791 5.10673C10.6477 5.20343 10.3007 5.01319 10.204 4.68183C9.97649 3.90204 9.25574 3.33333 8.4038 3.33333Z" fill="var(--fill-0, #64748B)"/>
<path d="M9.23665 4.79167C9.23665 5.2519 8.86356 5.625 8.40332 5.625C7.94308 5.625 7.56999 5.2519 7.56999 4.79167C7.56999 4.33143 7.94308 3.95833 8.40332 3.95833C8.86356 3.95833 9.23665 4.33143 9.23665 4.79167Z" fill="var(--fill-0, #64748B)"/>
<path fill-rule="evenodd" clip-rule="evenodd" d="M1.37609 1.98169C1.20484 1.68199 0.823052 1.57787 0.523353 1.74912C0.223655 1.92038 0.119532 2.30216 0.290788 2.60186L3.44687 8.125H3.33333C1.76198 8.125 0.976311 8.125 0.488155 8.61316C0 9.10131 0 9.88699 0 11.4583C0 13.0297 0 13.8154 0.488155 14.3035C0.976311 14.7917 1.76199 14.7917 3.33333 14.7917H13.3333C14.9047 14.7917 15.6904 14.7917 16.1785 14.3035C16.6667 13.8154 16.6667 13.0297 16.6667 11.4583C16.6667 9.88699 16.6667 9.10131 16.1785 8.61316C15.6904 8.125 14.9047 8.125 13.3333 8.125H13.2198L16.3759 2.60186C16.5471 2.30216 16.443 1.92038 16.1433 1.74912C15.8436 1.57787 15.4618 1.68199 15.2906 1.98169L11.9572 7.81502L11.774 8.125H4.90107L4.70943 7.81502L1.37609 1.98169ZM3.33333 12.2917C3.79357 12.2917 4.16667 11.9186 4.16667 11.4583C4.16667 10.9981 3.79357 10.625 3.33333 10.625C2.8731 10.625 2.5 10.9981 2.5 11.4583C2.5 11.9186 2.8731 12.2917 3.33333 12.2917ZM6.66667 11.4583C6.66667 11.9186 6.29357 12.2917 5.83333 12.2917C5.3731 12.2917 5 11.9186 5 11.4583C5 10.9981 5.3731 10.625 5.83333 10.625C6.29357 10.625 6.66667 10.9981 6.66667 11.4583ZM10 10.8333C9.65482 10.8333 9.375 11.1132 9.375 11.4583C9.375 11.8035 9.65482 12.0833 10 12.0833H13.3333C13.6785 12.0833 13.9583 11.8035 13.9583 11.4583C13.9583 11.1132 13.6785 10.8333 13.3333 10.8333H10Z" fill="var(--fill-0, #64748B)"/>
</g>
</svg>
