<svg preserveAspectRatio="none" width="100%" height="100%" overflow="visible" style="display: block;" viewBox="0 0 13.3333 16.6667" fill="none" xmlns="http://www.w3.org/2000/svg">
<path id="Vector" fill-rule="evenodd" clip-rule="evenodd" d="M13.3333 6.50121V9.8897C13.3333 13.0844 13.3333 14.6817 12.357 15.6742C11.3807 16.6667 9.80936 16.6667 6.66667 16.6667C3.52397 16.6667 1.95262 16.6667 0.976311 15.6742C0 14.6817 0 13.0844 0 9.8897V6.50121C0 3.30652 0 1.70917 0.976311 0.716706C1.28949 0.398342 1.6639 0.182103 2.13177 0.0352293C2.42618 -0.0571916 2.73797 0.0744404 2.91667 0.327207C2.96159 0.395705 3.00421 0.460866 3.04481 0.522923C3.57358 1.33124 3.75781 1.61286 4.18513 1.8828C4.27662 1.94059 4.3717 1.99232 4.46976 2.03765C4.96289 2.26561 5.53082 2.26561 6.66667 2.26561C7.80251 2.26561 8.37044 2.26561 8.86358 2.03765C8.96163 1.99232 9.05671 1.94059 9.1482 1.8828C9.57553 1.61287 9.75975 1.33124 10.2885 0.522933C10.3291 0.460873 10.3717 0.395709 10.4167 0.327207C10.5827 0.0736279 10.8866 -0.0613004 11.1755 0.0271353C11.6555 0.174123 12.038 0.392442 12.357 0.716706C13.3333 1.70917 13.3333 3.30652 13.3333 6.50121ZM4.16667 13.5245C3.82149 13.5245 3.54167 13.8058 3.54167 14.1529C3.54167 14.5 3.82149 14.7813 4.16667 14.7813H9.16667C9.51184 14.7813 9.79167 14.5 9.79167 14.1529C9.79167 13.8058 9.51184 13.5245 9.16667 13.5245H4.16667Z" fill="var(--fill-0, #00BFFF)"/>
</svg>
