<svg preserveAspectRatio="none" width="100%" height="100%" overflow="visible" style="display: block;" viewBox="0 0 13.3333 16.6667" fill="none" xmlns="http://www.w3.org/2000/svg">
<path id="Vector" fill-rule="evenodd" clip-rule="evenodd" d="M6.70966 2.41758e-07H6.62368C5.22349 -1.17995e-05 4.11443 -2.13352e-05 3.24646 0.11871C2.35319 0.240902 1.63018 0.498357 1.06 1.07848C0.489814 1.65861 0.236772 2.39423 0.116675 3.30308C-2.09695e-05 4.18619 -1.15973e-05 5.31459 2.37613e-07 6.7392V9.92745C-1.15973e-05 11.3521 -2.09695e-05 12.4805 0.116675 13.3636C0.236772 14.2724 0.489814 15.0081 1.06 15.5882C1.63018 16.1683 2.35319 16.4258 3.24646 16.548C4.11443 16.6667 5.22347 16.6667 6.62365 16.6667H6.70965C8.10983 16.6667 9.21891 16.6667 10.0869 16.548C10.9801 16.4258 11.7032 16.1683 12.2733 15.5882C12.8435 15.0081 13.0966 14.2724 13.2167 13.3636C13.3334 12.4805 13.3333 11.3521 13.3333 9.92749V6.73922C13.3333 5.31461 13.3334 4.18619 13.2167 3.30308C13.0966 2.39423 12.8435 1.65861 12.2733 1.07848C11.7032 0.498357 10.9801 0.240902 10.0869 0.11871C9.2189 -2.13352e-05 8.10985 -1.17995e-05 6.70966 2.41758e-07ZM3.80952 13.7597C3.80952 13.4386 4.06536 13.1783 4.38095 13.1783H8.95238C9.26797 13.1783 9.52381 13.4386 9.52381 13.7597C9.52381 14.0808 9.26797 14.3411 8.95238 14.3411H4.38095C4.06536 14.3411 3.80952 14.0808 3.80952 13.7597Z" fill="var(--fill-0, #64748B)"/>
</svg>
