<svg preserveAspectRatio="none" width="100%" height="100%" overflow="visible" style="display: block;" viewBox="0 0 17.2917 13.3333" fill="none" xmlns="http://www.w3.org/2000/svg">
<g id="Vector">
<path fill-rule="evenodd" clip-rule="evenodd" d="M0 6.66667C0 3.52397 0 1.95262 0.976311 0.976311C1.95262 0 3.52397 0 6.66667 0H7.91667C11.0594 0 12.6307 0 13.607 0.976311C14.5833 1.95262 14.5833 3.52397 14.5833 6.66667C14.5833 9.80936 14.5833 11.3807 13.607 12.357C12.6307 13.3333 11.0594 13.3333 7.91667 13.3333H6.66667C3.52397 13.3333 1.95262 13.3333 0.976311 12.357C0 11.3807 0 9.80936 0 6.66667ZM8.31678 3.68653C8.58195 3.90751 8.61778 4.30161 8.3968 4.56678L7.16773 6.04167H8.75C8.99251 6.04167 9.21313 6.18195 9.31599 6.40157C9.41886 6.62118 9.38539 6.88048 9.23014 7.06678L7.1468 9.56678C6.92583 9.83195 6.53172 9.86778 6.26655 9.6468C6.00138 9.42583 5.96555 9.03172 6.18653 8.76655L7.4156 7.29167H5.83333C5.59082 7.29167 5.3702 7.15138 5.26734 6.93176C5.16448 6.71215 5.19794 6.45285 5.35319 6.26655L7.43653 3.76655C7.65751 3.50138 8.05161 3.46555 8.31678 3.68653Z" fill="var(--fill-0, #64748B)"/>
<path d="M16.0417 8.33333C16.0417 8.67851 16.3215 8.95833 16.6667 8.95833C17.0118 8.95833 17.2917 8.67851 17.2917 8.33333V5C17.2917 4.65482 17.0118 4.375 16.6667 4.375C16.3215 4.375 16.0417 4.65482 16.0417 5V8.33333Z" fill="var(--fill-0, #64748B)"/>
</g>
</svg>
