<svg preserveAspectRatio="none" width="100%" height="100%" overflow="visible" style="display: block;" viewBox="0 0 16.6667 16.6667" fill="none" xmlns="http://www.w3.org/2000/svg">
<path id="Vector" fill-rule="evenodd" clip-rule="evenodd" d="M0.279472 4.89579C-0.170912 5.83524 -0.0128102 6.93401 0.303394 9.13155L0.535698 10.746C0.941879 13.5689 1.14497 14.9803 2.12419 15.8235C3.10341 16.6667 4.53947 16.6667 7.4116 16.6667H9.25506C12.1272 16.6667 13.5633 16.6667 14.5425 15.8235C15.5217 14.9803 15.7248 13.5689 16.131 10.746L16.3633 9.13156C16.6795 6.93401 16.8376 5.83524 16.3872 4.89579C15.9368 3.95633 14.9782 3.38528 13.0609 2.24317L11.9069 1.55572C10.1658 0.518575 9.29526 0 8.33333 0C7.37141 0 6.50087 0.518575 4.75979 1.55573L3.60576 2.24318C1.68849 3.38528 0.729856 3.95633 0.279472 4.89579ZM9.54164 12.0913C8.86851 11.3647 7.79838 11.3647 7.12525 12.0913C6.89066 12.3445 6.49522 12.3596 6.24201 12.125C5.9888 11.8904 5.97371 11.4949 6.2083 11.2417C7.37613 9.98122 9.29076 9.98122 10.4586 11.2417C10.6932 11.4949 10.6781 11.8904 10.4249 12.125C10.1717 12.3596 9.77623 12.3445 9.54164 12.0913ZM5.45857 10.2921C7.05217 8.57203 9.61469 8.57203 11.2083 10.2921C11.4429 10.5453 11.8383 10.5604 12.0915 10.3258C12.3447 10.0912 12.3598 9.69578 12.1252 9.44257C10.0369 7.18854 6.62992 7.18854 4.54162 9.44257C4.30703 9.69578 4.32212 10.0912 4.57533 10.3258C4.82854 10.5604 5.22398 10.5453 5.45857 10.2921ZM12.8749 8.49335C10.3609 5.77976 6.30597 5.77976 3.79189 8.49335C3.5573 8.74656 3.16186 8.76166 2.90865 8.52706C2.65544 8.29247 2.64035 7.89703 2.87494 7.64382C5.88371 4.39627 10.7831 4.39627 13.7919 7.64382C14.0265 7.89703 14.0114 8.29247 13.7582 8.52706C13.505 8.76166 13.1095 8.74656 12.8749 8.49335Z" fill="var(--fill-0, #64748B)"/>
</svg>
