<svg preserveAspectRatio="none" width="100%" height="100%" overflow="visible" style="display: block;" viewBox="0 0 23.9998 23.9995" fill="none" xmlns="http://www.w3.org/2000/svg">
<g id="Group">
<g id="Group_2">
<path id="Vector" fill-rule="evenodd" clip-rule="evenodd" d="M22.509 8.43546C22.3799 7.40346 22.1557 6.4017 21.753 5.4921C21.1256 4.03098 19.9703 2.8761 18.5091 2.24826C16.7 1.44762 14.5299 1.35114 12.4731 1.31034C12.1568 1.3041 11.8443 1.3041 11.528 1.31034C9.47123 1.35114 7.30163 1.44762 5.49203 2.24826C4.03091 2.87562 2.87603 4.03098 2.24819 5.4921C1.84547 6.40218 1.62083 7.40346 1.49219 8.43546H22.509Z" fill="var(--fill-0, #0D93CE)"/>
<path id="Vector_2" fill-rule="evenodd" clip-rule="evenodd" d="M22.6899 11.5276C22.6697 10.5052 22.6356 9.45539 22.508 8.43539H1.49211C1.36491 9.45539 1.33083 10.5056 1.31019 11.5276C1.30395 11.8439 1.30395 12.1564 1.31019 12.4727C1.33035 13.4951 1.36443 14.5448 1.49211 15.5648H22.5084C22.6356 14.5448 22.6697 13.4946 22.6904 12.4727C22.6966 12.1564 22.6966 11.8444 22.6899 11.5276Z" fill="var(--fill-0, #F1F0F0)"/>
<path id="Vector_3" fill-rule="evenodd" clip-rule="evenodd" d="M1.39597 14.5746C1.42045 14.9067 1.45165 15.2375 1.49245 15.5653H22.5088C22.5496 15.2375 22.5808 14.9067 22.6053 14.5746H1.39597Z" fill="var(--fill-0, #D81F2A)"/>
<path id="Vector_4" fill-rule="evenodd" clip-rule="evenodd" d="M22.6053 9.42611C22.5808 9.09395 22.5496 8.76323 22.5088 8.43539H1.49245C1.45165 8.76323 1.42045 9.09395 1.39597 9.42611H22.6053Z" fill="var(--fill-0, #D81F2A)"/>
<path id="Vector_5" fill-rule="evenodd" clip-rule="evenodd" d="M1.49219 15.5653C1.62131 16.5978 1.84547 17.5991 2.24819 18.5087C2.87411 19.966 4.03235 21.1256 5.49203 21.7525C7.30115 22.5532 9.47123 22.6496 11.528 22.6904C11.6811 22.6933 11.8338 22.6952 11.9859 22.6952H12.0003H12.0152C12.1674 22.6952 12.32 22.6938 12.4731 22.6904C14.5299 22.6496 16.6995 22.5532 18.5091 21.7525C19.9703 21.1252 21.1251 19.9698 21.753 18.5087C22.1557 17.5986 22.3803 16.5973 22.509 15.5653H1.49219Z" fill="var(--fill-0, #6FB444)"/>
<path id="Vector_6" fill-rule="evenodd" clip-rule="evenodd" d="M10.1328 6.4358L10.2547 6.81356L10.6517 6.8126L10.3301 7.0454L10.4535 7.42268L10.1328 7.18892L9.81217 7.42268L9.93553 7.0454L9.61393 6.8126L10.0109 6.81356L10.1328 6.4358ZM7.03441 2.98412C7.51345 2.98412 7.95889 3.12908 8.32897 3.37772C8.18113 3.34268 8.02657 3.32396 7.86769 3.32396C6.77089 3.32396 5.88193 4.21292 5.88193 5.30972C5.88193 6.40652 6.77089 7.29548 7.86769 7.29548C8.02657 7.29548 8.18065 7.27676 8.32897 7.24172C7.95889 7.49036 7.51345 7.63532 7.03441 7.63532C5.75041 7.63532 4.70929 6.5942 4.70929 5.3102C4.70929 4.02524 5.74993 2.98412 7.03441 2.98412ZM16.8634 3.19628L16.9853 3.57404L17.3823 3.57308L17.0607 3.80588L17.184 4.18316L16.8634 3.9494L16.5427 4.18316L16.6661 3.80588L16.3445 3.57308L16.7415 3.57404L16.8634 3.19628ZM15.181 3.19628L15.3029 3.57404L15.6999 3.57308L15.3783 3.80588L15.5016 4.18316L15.181 3.9494L14.8603 4.18316L14.9837 3.80588L14.6621 3.57308L15.0591 3.57404L15.181 3.19628ZM13.4981 3.19628L13.62 3.57404L14.017 3.57308L13.6954 3.80588L13.8187 4.18316L13.4981 3.9494L13.1775 4.18316L13.3008 3.80588L12.9792 3.57308L13.3762 3.57404L13.4981 3.19628ZM16.8634 4.8158L16.9853 5.19356L17.3823 5.1926L17.0607 5.4254L17.184 5.80268L16.8634 5.56892L16.5427 5.80268L16.6661 5.4254L16.3445 5.1926L16.7415 5.19356L16.8634 4.8158ZM15.181 4.8158L15.3029 5.19356L15.6999 5.1926L15.3783 5.4254L15.5016 5.80268L15.181 5.56892L14.8603 5.80268L14.9837 5.4254L14.6621 5.1926L15.0591 5.19356L15.181 4.8158ZM13.4981 4.8158L13.62 5.19356L14.017 5.1926L13.6954 5.4254L13.8187 5.80268L13.4981 5.56892L13.1775 5.80268L13.3008 5.4254L12.9792 5.1926L13.3762 5.19356L13.4981 4.8158ZM11.8157 4.8158L11.9376 5.19356L12.3346 5.1926L12.013 5.4254L12.1363 5.80268L11.8157 5.56892L11.4951 5.80268L11.6184 5.4254L11.2968 5.1926L11.6938 5.19356L11.8157 4.8158ZM16.8634 6.4358L16.9853 6.81356L17.3823 6.8126L17.0607 7.0454L17.184 7.42268L16.8634 7.18892L16.5427 7.42268L16.6661 7.0454L16.3445 6.8126L16.7415 6.81356L16.8634 6.4358ZM15.181 6.4358L15.3029 6.81356L15.6999 6.8126L15.3783 7.0454L15.5016 7.42268L15.181 7.18892L14.8603 7.42268L14.9837 7.0454L14.6621 6.8126L15.0591 6.81356L15.181 6.4358ZM13.4981 6.4358L13.62 6.81356L14.017 6.8126L13.6954 7.0454L13.8187 7.42268L13.4981 7.18892L13.1775 7.42268L13.3008 7.0454L12.9792 6.8126L13.3762 6.81356L13.4981 6.4358ZM11.8157 6.4358L11.9376 6.81356L12.3346 6.8126L12.013 7.0454L12.1363 7.42268L11.8157 7.18892L11.4951 7.42268L11.6184 7.0454L11.2968 6.8126L11.6938 6.81356L11.8157 6.4358Z" fill="var(--fill-0, white)"/>
</g>
<path id="Vector_7" fill-rule="evenodd" clip-rule="evenodd" d="M8.3982 2.00508C4.1742 2.5374 2.48412 4.59708 2.00508 8.3982C1.74924 10.4291 1.74924 13.5712 2.00508 15.602C2.5374 19.8246 4.599 21.5166 8.3982 21.9952C10.4291 22.251 13.5712 22.251 15.602 21.9952C19.8241 21.4633 21.5166 19.4008 21.9952 15.602C22.251 13.5712 22.251 10.4291 21.9952 8.3982C21.5166 4.599 19.8246 2.53692 15.602 2.00508C13.5712 1.74924 10.4291 1.74924 8.3982 2.00508ZM8.17116 0.20844C10.3768 -0.06948 13.6235 -0.06948 15.8291 0.20844C20.9195 0.84972 23.2091 3.54876 23.7913 8.17068C24.0692 10.3763 24.0692 13.623 23.7913 15.8286C23.2091 20.4505 20.919 23.1496 15.8291 23.7908C13.6235 24.0688 10.3768 24.0688 8.17116 23.7908C3.54876 23.2091 0.8502 20.92 0.20844 15.8291C-0.06948 13.6235 -0.06948 10.3768 0.20844 8.17116C0.79164 3.5454 3.07644 0.85068 8.17116 0.20844Z" fill="var(--fill-0, #E2E8F0)"/>
</g>
</svg>
