<svg preserveAspectRatio="none" width="100%" height="100%" overflow="visible" style="display: block;" viewBox="0 0 18 20" fill="none" xmlns="http://www.w3.org/2000/svg">
<path id="Vector" fill-rule="evenodd" clip-rule="evenodd" d="M0.377516 3.08241C0 3.62028 0 5.21907 0 8.41666V9.99136C0 15.6294 4.23896 18.3655 6.89856 19.5273C7.62001 19.8424 7.98074 20 9 20C10.0193 20 10.38 19.8424 11.1014 19.5273C13.761 18.3655 18 15.6294 18 9.99136V8.41666C18 5.21907 18 3.62028 17.6225 3.08241C17.245 2.54454 15.7417 2.02996 12.7351 1.00079L12.1623 0.804717C10.595 0.268239 9.81139 0 9 0C8.18861 0 7.40498 0.268239 5.83772 0.804717L5.26491 1.00079C2.25832 2.02996 0.755031 2.54454 0.377516 3.08241ZM7.86127 6.36335L7.73019 6.59849C7.58621 6.85677 7.51422 6.98591 7.40198 7.07112C7.28973 7.15633 7.14994 7.18796 6.87035 7.25122L6.61581 7.30881C5.63194 7.53142 5.14001 7.64273 5.02297 8.01909C4.90593 8.39546 5.2413 8.78763 5.91204 9.57197L6.08557 9.77489C6.27617 9.99777 6.37147 10.1092 6.41435 10.2471C6.45722 10.385 6.44281 10.5336 6.41399 10.831L6.38776 11.1018C6.28635 12.1482 6.23565 12.6715 6.54206 12.9041C6.84847 13.1367 7.30907 12.9246 8.23027 12.5005L8.46859 12.3907C8.73037 12.2702 8.86126 12.2099 9 12.2099C9.13874 12.2099 9.26963 12.2702 9.53141 12.3907L9.76973 12.5005C10.6909 12.9246 11.1515 13.1367 11.4579 12.9041C11.7644 12.6715 11.7136 12.1482 11.6122 11.1018L11.586 10.831C11.5572 10.5337 11.5428 10.385 11.5857 10.2471C11.6285 10.1092 11.7238 9.99777 11.9144 9.77489L12.088 9.57197C12.7587 8.78763 13.0941 8.39546 12.977 8.01909C12.86 7.64273 12.3681 7.53142 11.3842 7.30881L11.1296 7.25122C10.8501 7.18796 10.7103 7.15633 10.598 7.07112C10.4858 6.98592 10.4138 6.85678 10.2698 6.5985L10.1387 6.36335C9.63207 5.45445 9.37875 5 9 5C8.62126 5 8.36792 5.45445 7.86127 6.36335Z" fill="var(--fill-0, #00BFFF)"/>
</svg>
