<svg preserveAspectRatio="none" width="100%" height="100%" overflow="visible" style="display: block;" viewBox="0 0 17.9998 22" fill="none" xmlns="http://www.w3.org/2000/svg">
<g id="Layer 2">
<path id="Vector" d="M14.7165 2.05029C13.6791 1.20085 12.4661 0.592237 11.165 0.268344C9.8639 -0.0555499 8.50712 -0.0866491 7.19254 0.177289C5.50227 0.523829 3.94723 1.34894 2.71268 2.55434C1.47812 3.75973 0.616074 5.2946 0.229234 6.97611C-0.157607 8.65761 -0.0529383 10.4149 0.530771 12.0386C1.11448 13.6623 2.15262 15.084 3.52154 16.1343C5.08447 17.2782 6.41519 18.7094 7.44254 20.3513L8.14254 21.5153C8.23145 21.6631 8.35709 21.7855 8.50726 21.8704C8.65743 21.9553 8.82702 22 8.99954 22C9.17207 22 9.34165 21.9553 9.49182 21.8704C9.64199 21.7855 9.76764 21.6631 9.85654 21.5153L10.5275 20.3973C11.4222 18.8247 12.642 17.461 14.1055 16.3973C15.2531 15.6077 16.2016 14.5623 16.876 13.3434C17.5504 12.1246 17.9323 10.7657 17.9917 9.37395C18.051 7.98223 17.7861 6.59576 17.2179 5.32392C16.6497 4.05209 15.7938 2.92969 14.7175 2.04529L14.7165 2.05029ZM8.99854 13.0013C8.20742 13.0013 7.43406 12.7667 6.77626 12.3272C6.11846 11.8876 5.60577 11.2629 5.30302 10.532C5.00027 9.80112 4.92106 8.99685 5.0754 8.22093C5.22974 7.445 5.6107 6.73227 6.17011 6.17286C6.72952 5.61345 7.44226 5.23249 8.21818 5.07815C8.9941 4.92381 9.79837 5.00302 10.5293 5.30577C11.2602 5.60852 11.8849 6.12121 12.3244 6.77901C12.7639 7.4368 12.9985 8.21016 12.9985 9.00129C12.9985 10.0622 12.5771 11.0796 11.827 11.8297C11.0768 12.5799 10.0594 13.0013 8.99854 13.0013Z" fill="var(--fill-0, #00BFFF)"/>
</g>
</svg>
