<svg preserveAspectRatio="none" width="100%" height="100%" overflow="visible" style="display: block;" viewBox="0 0 327.024 327" fill="none" xmlns="http://www.w3.org/2000/svg">
<path id="Vector" fill-rule="evenodd" clip-rule="evenodd" d="M125.623 109.016H201.401C210.534 109.016 218.008 101.542 218.008 92.4089V16.6072C218.008 7.47442 210.534 0 201.401 0H124.061C113.102 0 106.06 2.95612 98.3692 10.6468L10.6468 98.3692C3.02822 105.988 0 112.765 0 124.061V201.401C0 210.534 7.47442 218.008 16.6072 218.008H92.3848C101.518 218.008 108.992 210.534 108.992 201.401V125.623C108.992 116.49 116.466 109.016 125.599 109.016M201.401 218.008H125.623C116.49 218.008 109.016 225.482 109.016 234.615V310.393C109.016 319.526 116.49 327 125.623 327H202.963C213.922 327 220.964 324.044 228.655 316.353L316.377 228.631C323.996 221.012 327.024 214.235 327.024 202.939V125.599C327.024 116.466 319.55 108.992 310.417 108.992H234.639C225.506 108.992 218.032 116.466 218.032 125.599V201.377C218.032 210.51 210.558 217.984 201.425 217.984L201.401 218.008Z" fill="var(--fill-0, white)" fill-opacity="0.08"/>
</svg>
