<svg width="108" height="39" viewBox="0 0 108 39" fill="none" xmlns="http://www.w3.org/2000/svg">
<g clip-path="url(#clip0_9_20126)">
<path fill-rule="evenodd" clip-rule="evenodd" d="M16.2773 14.5594H24.1219C25.0673 14.5594 25.8411 13.7856 25.8411 12.8402V4.99311C25.8411 4.04769 25.0673 3.27393 24.1219 3.27393H16.1156C14.9811 3.27393 14.2521 3.57995 13.456 4.3761L4.37488 13.4572C3.58619 14.2459 3.27271 14.9475 3.27271 16.1168V24.1231C3.27271 25.0686 4.04646 25.8423 4.99189 25.8423H12.8365C13.7819 25.8423 14.5557 25.0686 14.5557 24.1231V16.2786C14.5557 15.3331 15.3294 14.5594 16.2748 14.5594M89.481 26.0837C86.9183 26.0837 84.7414 24.2998 84.7414 21.6501C84.7414 19.0004 86.9681 17.2165 89.481 17.2165C91.9938 17.2165 94.2205 18.9954 94.2205 21.6501C94.2205 24.3048 91.9988 26.0837 89.481 26.0837ZM89.481 23.3444C90.4712 23.3444 91.0932 22.6179 91.0932 21.6526C91.0932 20.6872 90.4811 19.9608 89.481 19.9608C88.4808 19.9608 87.8687 20.6798 87.8687 21.6526C87.8687 22.6254 88.4957 23.3444 89.481 23.3444ZM77.2725 17.8758C77.8945 17.423 78.6508 17.219 79.4171 17.219C81.9499 17.219 83.6243 19.1895 83.6243 21.6526C83.6243 24.1157 82.0668 26.0861 79.4818 26.0861C78.5065 26.0861 77.4665 25.7752 76.8072 25.0213V25.8423H74.068V14.5594H77.275V17.8758H77.2725ZM78.8847 23.3444C79.8749 23.3444 80.4969 22.6179 80.4969 21.6526C80.4969 20.6872 79.8848 19.9608 78.8847 19.9608C77.8845 19.9608 77.2725 20.6798 77.2725 21.6526C77.2725 22.6254 77.8994 23.3444 78.8847 23.3444ZM67.8605 26.0837C65.2979 26.0837 63.1209 24.2998 63.1209 21.6501C63.1209 19.0004 65.3476 17.2165 67.8605 17.2165C70.3733 17.2165 72.6001 18.9954 72.6001 21.6501C72.6001 24.3048 70.3783 26.0837 67.8605 26.0837ZM67.8605 23.3444C68.8507 23.3444 69.4727 22.6179 69.4727 21.6526C69.4727 20.6872 68.8606 19.9608 67.8605 19.9608C66.8603 19.9608 66.2483 20.6798 66.2483 21.6526C66.2483 22.6254 66.8752 23.3444 67.8605 23.3444ZM56.2342 25.8423V17.4603H59.4586V18.3311C59.9039 17.5201 60.7722 17.2016 61.658 17.2016C62.0013 17.2016 62.26 17.2514 62.5934 17.3136L62.2302 20.6176C61.8122 20.4484 61.3594 20.3588 60.9091 20.3588C60.0109 20.3588 59.4586 20.844 59.4586 21.7621V25.8398H56.2342V25.8423ZM45.5881 25.8423V14.5594H50.4073C52.8306 14.5594 54.9056 15.8407 54.9056 18.4605C54.9056 21.2321 52.868 22.3617 50.3277 22.3617H48.8449V25.8423H45.5881ZM48.8449 19.6697H50.1984C51.0194 19.6697 51.6488 19.4333 51.6488 18.5103C51.6488 17.5872 51.0368 17.3335 50.2133 17.3335H48.8424V19.6697H48.8449ZM94.2504 25.8747L97.2484 21.7645L94.3947 17.4603H98.4576L99.5224 19.5876L100.555 17.4603H104.553L101.764 21.7148L104.73 25.8423H100.602L99.4105 23.8445L98.2187 25.81L94.2529 25.8747H94.2504ZM104.085 34.396C103.436 34.396 103.123 33.9929 103.123 33.3684V31.8707H102.468V31.3208H103.123V30.4501H103.787V31.3208H104.615V31.8707H103.787V33.2241C103.787 33.5451 103.881 33.7939 104.242 33.7939C104.369 33.7939 104.496 33.764 104.61 33.7068L104.727 34.2442C104.536 34.3437 104.299 34.3985 104.085 34.3985V34.396ZM99.8284 32.4728H101.52C101.508 31.9851 101.187 31.7488 100.719 31.7488C100.251 31.7488 99.8807 31.9926 99.8309 32.4728H99.8284ZM100.771 34.396C99.8235 34.396 99.1517 33.7814 99.1517 32.8186C99.1517 31.8558 99.8135 31.2288 100.732 31.2288C101.732 31.2288 102.311 31.9926 102.17 32.9604H99.7886C99.7762 33.56 100.254 33.8536 100.804 33.8536C101.135 33.8536 101.463 33.7541 101.724 33.5501L101.981 34.0253C101.677 34.2716 101.157 34.396 100.771 34.396ZM96.3453 32.4728H98.0371C98.0247 31.9851 97.7037 31.7488 97.236 31.7488C96.7682 31.7488 96.3975 31.9926 96.3478 32.4728H96.3453ZM97.2882 34.396C96.3403 34.396 95.6685 33.7814 95.6685 32.8186C95.6685 31.8558 96.3303 31.2288 97.2484 31.2288C98.2486 31.2288 98.8283 31.9926 98.6865 32.9604H96.3055C96.293 33.56 96.7707 33.8536 97.3206 33.8536C97.6515 33.8536 97.9774 33.7541 98.2411 33.5501L98.4974 34.0253C98.1938 34.2716 97.6739 34.396 97.2882 34.396ZM90.501 34.3064V30.0843H91.1554L92.7452 32.6693L94.2728 30.0843H94.9147V34.3064H94.2554L94.2628 31.2437L92.9567 33.3958H92.4616L91.1081 31.2064L91.1156 34.3064H90.4985H90.501ZM86.9656 34.3935C86.5377 34.3935 86.0675 34.2766 85.7291 34.0054L85.9804 33.5202C86.2516 33.7317 86.6173 33.871 86.9631 33.871C87.2144 33.871 87.5801 33.8014 87.5801 33.4829C87.5801 33.1644 87.1522 33.1072 86.9084 33.0525C86.3809 32.943 85.8361 32.7514 85.8361 32.122C85.8361 31.4925 86.4481 31.2064 87.0029 31.2064C87.406 31.2064 87.824 31.3134 88.1449 31.5672L87.9086 32.0548C87.6772 31.8483 87.3189 31.7289 87.0104 31.7289C86.779 31.7289 86.4407 31.806 86.4407 32.0971C86.4407 32.4081 86.8711 32.4728 87.1099 32.5275C87.6299 32.642 88.1897 32.8211 88.1897 33.4505C88.1897 34.1248 87.5528 34.396 86.9656 34.396V34.3935ZM84.6219 34.396C83.9726 34.396 83.6591 33.9954 83.6591 33.3684V31.8707H83.0048V31.3208H83.6591V30.4501H84.3234V31.3208H85.1519V31.8707H84.3234V33.2241C84.3234 33.5426 84.4179 33.7939 84.7787 33.7939C84.9056 33.7939 85.0325 33.764 85.1469 33.7068L85.2638 34.2442C85.0723 34.3412 84.8359 34.3985 84.6219 34.3985V34.396ZM80.8676 34.3064V31.3208H81.5319V31.7338C81.7434 31.383 82.0568 31.2263 82.4599 31.2263C82.5719 31.2263 82.6813 31.2363 82.7883 31.2636L82.7012 31.9478C82.5818 31.913 82.4549 31.8906 82.3305 31.8906C81.8553 31.8906 81.5319 32.2016 81.5319 32.6818V34.3064H80.8676ZM77.8348 32.4728H79.5266C79.5141 31.9851 79.1932 31.7488 78.7254 31.7488C78.2577 31.7488 77.887 31.9926 77.8372 32.4728H77.8348ZM78.7777 34.396C77.8298 34.396 77.158 33.7814 77.158 32.8186C77.158 31.8558 77.8198 31.2288 78.7379 31.2288C79.7381 31.2288 80.3178 31.9926 80.1759 32.9604H77.795C77.7825 33.56 78.2602 33.8536 78.81 33.8536C79.1409 33.8536 79.4669 33.7541 79.7306 33.5501L79.9869 34.0253C79.6833 34.2716 79.1633 34.396 78.7777 34.396ZM75.103 33.8088C75.6926 33.8088 76.0559 33.3908 76.0559 32.8136C76.0559 32.2364 75.6926 31.8184 75.103 31.8184C74.5133 31.8184 74.1476 32.2364 74.1476 32.8136C74.1476 33.3908 74.5183 33.8088 75.103 33.8088ZM73.4883 35.5728V31.3208H74.0854V31.7388C74.3715 31.3756 74.7721 31.2288 75.2249 31.2288C76.1355 31.2288 76.7201 31.9279 76.7201 32.8111C76.7201 33.6944 76.1156 34.3935 75.2149 34.3935C74.7945 34.3935 74.4262 34.2442 74.1476 33.9257V35.5703H73.4883V35.5728ZM69.8857 34.3089L70.9655 32.8062L69.9504 31.3208H70.7863L71.4233 32.331L72.0378 31.3208H72.8513L71.8661 32.7887L72.9359 34.3064H72.0851L71.3984 33.2565L70.7017 34.2989L69.8882 34.3089H69.8857ZM66.6488 34.3064V30.0843H69.3781V30.6814H67.3256V31.8209H69.0995V32.3857H67.3256V33.7043H69.398V34.3064H66.6513H66.6488ZM62.0511 32.4728H63.7429C63.7304 31.9851 63.4095 31.7488 62.9418 31.7488C62.474 31.7488 62.1033 31.9926 62.0511 32.4728ZM62.994 34.396C62.0461 34.396 61.3743 33.7814 61.3743 32.8186C61.3743 31.8558 62.0361 31.2288 62.9542 31.2288C63.9544 31.2288 64.5341 31.9926 64.3922 32.9604H62.0113C61.9963 33.56 62.4765 33.8536 63.0263 33.8536C63.3572 33.8536 63.6832 33.7541 63.9469 33.5501L64.2032 34.0253C63.8996 34.2716 63.3796 34.396 62.994 34.396ZM59.2173 34.3064V31.3208H59.8815V31.7338C60.093 31.383 60.4065 31.2263 60.8096 31.2263C60.9215 31.2263 61.031 31.2363 61.138 31.2636L61.0509 31.9478C60.9315 31.913 60.8046 31.8906 60.6802 31.8906C60.205 31.8906 59.8815 32.2016 59.8815 32.6818V34.3064H59.2173ZM56.1844 32.4728H57.8762C57.8638 31.9851 57.5429 31.7488 57.0751 31.7488C56.6074 31.7488 56.2367 31.9926 56.1869 32.4728H56.1844ZM57.1274 34.396C56.1794 34.396 55.5077 33.7814 55.5077 32.8186C55.5077 31.8558 56.172 31.2288 57.0876 31.2288C58.0877 31.2288 58.6674 31.9926 58.5256 32.9604H56.1446C56.1297 33.56 56.6099 33.8536 57.1597 33.8536C57.4906 33.8536 57.819 33.7541 58.0803 33.5501L58.3365 34.0253C58.033 34.2716 57.513 34.396 57.1274 34.396ZM46.862 34.3064L45.5906 30.0843H46.2997L47.2203 33.3684L48.1856 30.0843H48.8872L49.8451 33.366L50.7656 30.0843H51.4523L50.1859 34.3064H49.4719L48.5289 31.0994L47.576 34.3064H46.8645H46.862ZM52.7162 31.6194C52.9625 31.3656 53.2984 31.2313 53.6517 31.2313C54.3259 31.2313 54.8733 31.6567 54.8733 32.3583V34.3064H54.209V32.5499C54.209 32.1095 53.9104 31.8458 53.48 31.8408C53.0172 31.8408 52.7162 32.1717 52.7162 32.627V34.3064H52.0519V30.0843H52.7162V31.6194ZM24.1219 25.8423H16.2773C15.3319 25.8423 14.5581 26.6161 14.5581 27.5615V35.4061C14.5581 36.3515 15.3319 37.1253 16.2773 37.1253H24.2836C25.4181 37.1253 26.1471 36.8193 26.9433 36.0231L36.0244 26.942C36.8131 26.1533 37.1266 25.4517 37.1266 24.2824V16.2761C37.1266 15.3306 36.3528 14.5569 35.4074 14.5569H27.5628C26.6174 14.5569 25.8436 15.3306 25.8436 16.2761V24.1206C25.8436 25.0661 25.0698 25.8398 24.1244 25.8398L24.1219 25.8423Z" fill="#1E293B"/>
</g>
<defs>
<clipPath id="clip0_9_20126">
<rect width="101.455" height="33.8538" fill="white" transform="translate(3.27271 3.27271)"/>
</clipPath>
</defs>
</svg>
