<svg width="256" height="256" viewBox="0 0 256 256" fill="none" xmlns="http://www.w3.org/2000/svg">
<rect width="256" height="256" fill="white"/>
<path fill-rule="evenodd" clip-rule="evenodd" d="M149.813 159.779H107.173C102.029 159.779 97.8333 164.096 97.8333 169.356V213.084C97.8333 218.358 102.043 222.661 107.173 222.661H150.692C156.853 222.661 160.825 220.96 165.147 216.514L214.506 165.897C218.799 161.494 220.5 157.592 220.5 151.073V106.445C220.5 101.171 216.29 96.8679 211.161 96.8679H168.52C163.376 96.8679 159.181 101.185 159.181 106.445V150.173C159.181 155.447 154.971 159.75 149.841 159.75M107.173 96.8965H149.813C154.957 96.8965 159.153 92.5795 159.153 87.3191V43.5774C159.153 38.3027 154.943 34 149.813 34H106.295C100.133 34 96.1606 35.7011 91.8394 40.1467L42.48 90.7498C38.1867 95.1526 36.5 99.055 36.5 105.573V150.201C36.5 155.476 40.7097 159.779 45.8394 159.779H88.48C93.6236 159.779 97.8194 155.462 97.8194 150.201V106.474C97.8194 101.199 102.029 96.8965 107.159 96.8965H107.173Z" fill="#00BFFF"/>
</svg>
