<svg width="24" height="24" viewBox="0 0 24 24" fill="none" xmlns="http://www.w3.org/2000/svg">
<path d="M17.4975 18.4851L20.6281 9.09372C21.419 6.72101 21.9594 5.09994 21.9978 3.97913C22.0108 3.60159 21.5845 3.47618 21.3173 3.7433L6.85855 18.2021C6.62519 18.4355 6.6807 18.8286 6.99826 18.9184C7.02946 18.9272 7.0609 18.9355 7.09257 18.9433C7.59254 19.0656 8.24578 18.9769 9.5522 18.7996L9.62363 18.7899C9.99191 18.74 10.1761 18.715 10.3529 18.7256C10.6738 18.745 10.9838 18.8496 11.251 19.0285C11.3981 19.1271 11.5295 19.2585 11.7923 19.5213L12.0436 19.7725C13.5539 21.2827 14.309 22.0379 15.1101 21.9985C15.3309 21.9877 15.5479 21.9365 15.7503 21.8474C16.4844 21.5243 16.8221 20.5113 17.4975 18.4851Z" fill="#1C274C"/>
<path d="M14.906 3.37188L5.57477 6.48217C3.49295 7.17608 2.45203 7.52304 2.13608 8.28636C2.06182 8.46576 2.01692 8.65595 2.00311 8.84962C1.94433 9.67364 2.72018 10.4495 4.27188 12.0011L4.55451 12.2837C4.80921 12.5384 4.93655 12.6658 5.03282 12.8075C5.22269 13.0871 5.33046 13.4142 5.34393 13.7519C5.35076 13.9231 5.32403 14.1012 5.27057 14.4574C5.07488 15.7612 4.97703 16.4131 5.0923 16.9147C5.09632 16.9322 5.1005 16.9496 5.10484 16.9669C5.18629 17.2919 5.58551 17.3538 5.82242 17.1169L20.2567 2.68265C20.5238 2.41553 20.3984 1.98924 20.0209 2.00218C18.9 2.0406 17.2788 2.58096 14.906 3.37188Z" fill="#1C274C"/>
</svg>
